<svg width="49" height="28" viewBox="0 0 49 28" fill="none" xmlns="http://www.w3.org/2000/svg">
<path d="M45.1719 0C43.0572 0 41.3438 1.74144 41.3438 3.88889C41.3438 4.32989 41.4318 4.746 41.5642 5.14111L32.2328 13.3039C31.5782 12.7742 30.7613 12.4444 29.8594 12.4444C28.8189 12.4444 27.878 12.8691 27.1889 13.5536L19.8795 9.83578C19.7371 7.819 18.0994 6.22222 16.0781 6.22222C13.9643 6.22222 12.25 7.96367 12.25 10.1111C12.25 10.6991 12.3878 11.2506 12.6175 11.7499L5.16491 20.4797C4.74687 20.321 4.30052 20.2222 3.82812 20.2222C1.71423 20.2222 0 21.9637 0 24.1111C0 26.2586 1.71423 28 3.82812 28C5.94202 28 7.65625 26.2586 7.65625 24.1111C7.65625 23.5939 7.55213 23.1016 7.37144 22.6504L14.945 13.8071C15.3056 13.9207 15.6808 14 16.0781 14C17.1921 14 18.1858 13.5084 18.8856 12.7361L26.035 16.3777C26.0603 18.5041 27.76 20.2222 29.8594 20.2222C31.9741 20.2222 33.6875 18.4808 33.6875 16.3333C33.6875 16.2641 33.6714 16.1996 33.6676 16.1311L43.6253 7.441C44.0992 7.65411 44.6198 7.77778 45.1719 7.77778C47.2866 7.77778 49 6.03711 49 3.88889C49 1.74144 47.2865 0 45.1719 0Z" fill="#18C29C"/>
</svg>
