<svg width="311" height="330" viewBox="0 0 311 330" fill="none" xmlns="http://www.w3.org/2000/svg">
<path d="M220.61 279.49L210.75 271.59L206.8 276.72L203.25 271.59L196.54 279.09L194.54 271.2L193.35 278.7C191.038 275.375 187.718 272.882 183.88 271.59C177.79 269.76 170.07 270.8 170.07 270.8L181.51 277.51L170.49 274L170.1 279.13L164.18 275.19L162.6 279.53C162.6 279.53 161 274 161 272C161 270 161.4 264.5 161.4 264.5C161.4 264.5 157.06 268.84 157.06 272.39V281.47C157.06 281.47 156.66 276.34 150.35 274.76C146.603 273.813 142.763 273.283 138.9 273.18L143.64 278.71H137L131 285.8L127.84 278.7L123.5 283.83L116.4 279.88L114.82 283.83L105.75 277.91L103.75 272.78V278.3C102.327 277.443 100.679 277.032 99.02 277.12C95.86 277.12 80.08 277.51 80.08 277.51L87.97 281.06L83.68 285C83.68 285 78.15 283.42 75.78 281.45C73.41 279.48 63.55 277.11 63.55 277.11L69.08 285.79L64.73 284.21L61.58 291.71L59.21 283L58.82 289.71L53.69 285L52.9 289.34L52.11 281.84C51.303 283.492 50.6341 285.208 50.11 286.97C49.2318 289.539 48.1793 292.045 46.96 294.47L48.54 285V277.9L46.54 284.61L42.6 291.71L35.49 287.71L38.26 292.84H30L32 297.18L20.16 297.58C20.16 297.58 11.09 299.16 8.72 299.58C6.35 300 0.43 301.95 0.43 301.95L18.58 301.16L11.09 305.5L31.21 309.05L21.74 313.39L36.74 313L35.55 310.63L41.47 315.37L45.47 309.45L46.65 314.97L49.02 311.03L50.6 316.95L59.67 306.68L56.52 318.13L63.62 314.58L65.62 320.5L69.57 315.37L78.65 321.68V311.45L85.75 316.19L86.14 311.84C86.14 311.84 93.64 311.84 95.22 314.61C96.8 317.38 97.98 319.74 97.98 319.74L100.45 313.26L101.14 311.45L108.24 303.56C106.401 306.393 105.288 309.635 105 313C104.6 318.52 104.21 322.08 104.21 322.08L111.31 311.03L112.1 318.13L118.41 314.13L126.31 320.84L126.7 314.13L132.23 318.87L134.23 315.71L137.39 318.87L145.28 316.11L146.07 320.05L149.62 316.9L151.2 322.03C151.2 322.03 151.59 316.9 151.59 313.34V308.61L158.3 325.18L165 315.4L167 320.92L169.76 313.42V319.74L174.11 312.63L174.5 317.76L183.18 311.45L182.39 317.37L191.47 313.82L190.29 319.34L197.78 314.21V319H206L221.39 320.58L210.74 315.45L234.17 315.65C234.17 315.65 243.09 317.81 244.28 317.81C245.47 317.81 221.78 309.53 221.78 309.53L210.78 307.53L223.78 306.74L214.31 303.19C214.31 303.19 217.85 288.56 220.61 279.49Z" fill="#92E3A9"/>
<path opacity="0.5" d="M220.61 279.49L210.75 271.59L206.8 276.72L203.25 271.59L196.54 279.09L194.54 271.2L193.35 278.7C191.038 275.375 187.718 272.882 183.88 271.59C177.79 269.76 170.07 270.8 170.07 270.8L181.51 277.51L170.49 274L170.1 279.13L164.18 275.19L162.6 279.53C162.6 279.53 161 274 161 272C161 270 161.4 264.5 161.4 264.5C161.4 264.5 157.06 268.84 157.06 272.39V281.47C157.06 281.47 156.66 276.34 150.35 274.76C146.603 273.813 142.763 273.283 138.9 273.18L143.64 278.71H137L131 285.8L127.84 278.7L123.5 283.83L116.4 279.88L114.82 283.83L105.75 277.91L103.75 272.78V278.3C102.327 277.443 100.679 277.032 99.02 277.12C95.86 277.12 80.08 277.51 80.08 277.51L87.97 281.06L83.68 285C83.68 285 78.15 283.42 75.78 281.45C73.41 279.48 63.55 277.11 63.55 277.11L69.08 285.79L64.73 284.21L61.58 291.71L59.21 283L58.82 289.71L53.69 285L52.9 289.34L52.11 281.84C51.303 283.492 50.6341 285.208 50.11 286.97C49.2318 289.539 48.1793 292.045 46.96 294.47L48.54 285V277.9L46.54 284.61L42.6 291.71L35.49 287.71L38.26 292.84H30L32 297.18L20.16 297.58C20.16 297.58 11.09 299.16 8.72 299.58C6.35 300 0.43 301.95 0.43 301.95L18.58 301.16L11.09 305.5L31.21 309.05L21.74 313.39L36.74 313L35.55 310.63L41.47 315.37L45.47 309.45L46.65 314.97L49.02 311.03L50.6 316.95L59.67 306.68L56.52 318.13L63.62 314.58L65.62 320.5L69.57 315.37L78.65 321.68V311.45L85.75 316.19L86.14 311.84C86.14 311.84 93.64 311.84 95.22 314.61C96.8 317.38 97.98 319.74 97.98 319.74L100.45 313.26L101.14 311.45L108.24 303.56C106.401 306.393 105.288 309.635 105 313C104.6 318.52 104.21 322.08 104.21 322.08L111.31 311.03L112.1 318.13L118.41 314.13L126.31 320.84L126.7 314.13L132.23 318.87L134.23 315.71L137.39 318.87L145.28 316.11L146.07 320.05L149.62 316.9L151.2 322.03C151.2 322.03 151.59 316.9 151.59 313.34V308.61L158.3 325.18L165 315.4L167 320.92L169.76 313.42V319.74L174.11 312.63L174.5 317.76L183.18 311.45L182.39 317.37L191.47 313.82L190.29 319.34L197.78 314.21V319H206L221.39 320.58L210.74 315.45L234.17 315.65C234.17 315.65 243.09 317.81 244.28 317.81C245.47 317.81 221.78 309.53 221.78 309.53L210.78 307.53L223.78 306.74L214.31 303.19C214.31 303.19 217.85 288.56 220.61 279.49Z" fill="white"/>
<path d="M228.92 181.46C228.92 181.46 216.14 187.85 207.13 195.36C198.12 202.87 186.84 202.12 186.84 202.12C186.84 202.12 190.97 206.63 190.59 210.01C190.21 213.39 188.71 219.78 188.71 219.78C188.71 219.78 178.95 251.72 177.82 254.78C176.69 257.84 177.07 263.78 177.82 269.78C178.57 275.78 175.94 283.31 173.68 286.69C171.42 290.07 174.81 300.97 174.81 307.35C174.81 313.73 169.93 320.88 164.67 322.01C161.336 322.625 157.892 322.093 154.9 320.5C154.9 320.5 154.52 321.63 149.26 320.88C144 320.13 143.63 317.5 143.63 317.5C143.63 317.5 138.36 315.62 138.36 312.24C138.36 308.86 141.36 303.24 147.76 301.34C154.16 299.44 157.53 293.08 158.28 286.69C159.03 280.3 163.92 252.49 164.67 242.69C165.42 232.89 162.41 220.15 162.04 221.28C161.67 222.41 148.13 246.45 142.5 256.6C136.87 266.75 136.5 265.99 136.5 269.75C136.5 273.51 132.36 278.75 128.23 280.27C124.1 281.79 123.34 287.78 121.09 291.92C118.84 296.06 112.45 299.06 106.44 300.92C100.43 302.78 97.04 300.92 97.04 300.92C95.1333 300.858 93.2939 300.201 91.78 299.04C90.4448 297.937 89.4123 296.512 88.78 294.9C88.107 294.328 87.5598 293.623 87.1729 292.83C86.786 292.036 86.5679 291.171 86.5322 290.288C86.4965 289.406 86.644 288.526 86.9655 287.703C87.287 286.881 87.7754 286.134 88.4 285.51C92.91 280.25 104.18 280.63 108.69 279.87C113.2 279.11 111.32 279.12 117.33 273.11C123.34 267.1 139.13 225.77 139.13 219.38C139.13 212.99 110.19 173.16 107.56 166.77C104.93 160.38 110.56 147.24 108.69 141.22C106.82 135.2 91 117.58 91 117.58L129.33 107.06C129.33 107.06 137.97 119.46 146.61 121.71C155.25 123.96 167.61 128.48 180.8 122.47C193.99 116.46 209.74 105.56 224.8 103.68" fill="white"/>
<path d="M142.5 256.61C148.13 246.46 161.66 222.41 162.04 221.29C162.12 221.03 162.35 221.52 162.64 222.54C162.2 217 154.27 214.6 149.75 212.99C144.2 210.99 137.07 204.27 131.12 195.94C125.17 187.61 119.23 175.72 118 167.4C116.77 159.08 116.81 141.23 125.53 133.3C134.25 125.37 135.04 116.65 135.04 116.65C132.364 113.526 129.477 110.589 126.4 107.86L91 117.58C91 117.58 106.78 135.24 108.66 141.25C110.54 147.26 104.9 160.42 107.53 166.8C110.16 173.18 139.1 213.02 139.1 219.41C139.1 225.8 123.31 267.13 117.3 273.14C111.29 279.15 113.17 279.14 108.66 279.9C106.5 280.26 102.77 280.37 98.98 280.96C99.3812 281.464 99.9419 281.817 100.57 281.96C109.69 284.34 113.65 285.96 115.24 290.29C115.98 292.29 115.09 295.29 114.04 297.87C117.16 296.25 119.78 294.27 121.04 291.92C123.29 287.78 124.04 281.77 128.18 280.27C132.32 278.77 136.45 273.51 136.45 269.75C136.45 265.99 136.86 266.75 142.5 256.61Z" fill="#92E3A9"/>
<path opacity="0.5" d="M142.5 256.61C148.13 246.46 161.66 222.41 162.04 221.29C162.12 221.03 162.35 221.52 162.64 222.54C162.2 217 154.27 214.6 149.75 212.99C144.2 210.99 137.07 204.27 131.12 195.94C125.17 187.61 119.23 175.72 118 167.4C116.77 159.08 116.81 141.23 125.53 133.3C134.25 125.37 135.04 116.65 135.04 116.65C132.364 113.526 129.477 110.589 126.4 107.86L91 117.58C91 117.58 106.78 135.24 108.66 141.25C110.54 147.26 104.9 160.42 107.53 166.8C110.16 173.18 139.1 213.02 139.1 219.41C139.1 225.8 123.31 267.13 117.3 273.14C111.29 279.15 113.17 279.14 108.66 279.9C106.5 280.26 102.77 280.37 98.98 280.96C99.3812 281.464 99.9419 281.817 100.57 281.96C109.69 284.34 113.65 285.96 115.24 290.29C115.98 292.29 115.09 295.29 114.04 297.87C117.16 296.25 119.78 294.27 121.04 291.92C123.29 287.78 124.04 281.77 128.18 280.27C132.32 278.77 136.45 273.51 136.45 269.75C136.45 265.99 136.86 266.75 142.5 256.61Z" fill="white"/>
<path d="M220.84 188.28C226.68 183.97 232.61 180.48 232.61 180.48C232.61 180.48 236.97 180.48 234.99 161.48C233.01 142.48 230.23 102.8 230.23 102.8C217.33 102.51 206.83 107.8 202.23 110.65C208.35 120.07 225.36 150.29 220.84 188.28Z" fill="#92E3A9"/>
<path opacity="0.5" d="M220.84 188.28C226.68 183.97 232.61 180.48 232.61 180.48C232.61 180.48 236.97 180.48 234.99 161.48C233.01 142.48 230.23 102.8 230.23 102.8C217.33 102.51 206.83 107.8 202.23 110.65C208.35 120.07 225.36 150.29 220.84 188.28Z" fill="white"/>
<path d="M228.92 181.46C228.92 181.46 216.14 187.85 207.13 195.36C198.12 202.87 186.84 202.12 186.84 202.12C186.84 202.12 190.97 206.63 190.59 210.01C190.21 213.39 188.71 219.78 188.71 219.78C188.71 219.78 178.95 251.72 177.82 254.78C176.69 257.84 177.07 263.78 177.82 269.78C178.57 275.78 175.94 283.31 173.68 286.69C171.42 290.07 174.81 300.97 174.81 307.35C174.81 313.73 169.93 320.88 164.67 322.01C161.336 322.625 157.892 322.093 154.9 320.5C154.9 320.5 154.52 321.63 149.26 320.88C144 320.13 143.63 317.5 143.63 317.5C143.63 317.5 138.36 315.62 138.36 312.24C138.36 308.86 141.36 303.24 147.76 301.34C154.16 299.44 157.53 293.08 158.28 286.69C159.03 280.3 163.92 252.49 164.67 242.69C165.42 232.89 162.41 220.15 162.04 221.28C161.67 222.41 148.13 246.45 142.5 256.6C136.87 266.75 136.5 265.99 136.5 269.75C136.5 273.51 132.36 278.75 128.23 280.27C124.1 281.79 123.34 287.78 121.09 291.92C118.84 296.06 112.45 299.06 106.44 300.92C100.43 302.78 97.04 300.92 97.04 300.92C95.1333 300.858 93.2939 300.201 91.78 299.04C90.4448 297.937 89.4123 296.512 88.78 294.9C88.107 294.328 87.5598 293.623 87.1729 292.83C86.786 292.036 86.5679 291.171 86.5322 290.288C86.4965 289.406 86.644 288.526 86.9655 287.703C87.287 286.881 87.7754 286.134 88.4 285.51C92.91 280.25 104.18 280.63 108.69 279.87C113.2 279.11 111.32 279.12 117.33 273.11C123.34 267.1 139.13 225.77 139.13 219.38C139.13 212.99 110.19 173.16 107.56 166.77C104.93 160.38 110.56 147.24 108.69 141.22C106.82 135.2 91 117.58 91 117.58L129.33 107.06C129.33 107.06 137.97 119.46 146.61 121.71C155.25 123.96 167.61 128.48 180.8 122.47C193.99 116.46 209.74 105.56 224.8 103.68" stroke="#263238" stroke-linecap="round" stroke-linejoin="round"/>
<path d="M124.46 175.45C124.46 175.45 121.83 181.45 125.97 188.6C130.11 195.75 138.36 207 145.5 211.14C152.64 215.28 161.29 217.14 162.04 221.29" stroke="#263238" stroke-linecap="round" stroke-linejoin="round"/>
<path d="M197 114.12C191.34 117.12 185.86 120.12 180.78 122.47C170.9 126.98 161.45 125.56 153.69 123.62C156.37 126.09 159.34 130.75 159.69 139.37C160.44 155.53 154.81 162.67 159.69 170.19C164.57 177.71 170.59 179.96 174.69 187.47C178.79 194.98 182.21 199.47 188.22 199.47C194.23 199.47 211.14 181.47 214.15 162.28C217.21 143.56 203.62 118.72 197 114.12Z" fill="#263238" stroke="#263238" stroke-linecap="round" stroke-linejoin="round"/>
<path d="M97 301C97 301 98.88 289.35 106.4 289" stroke="#263238" stroke-linecap="round" stroke-linejoin="round"/>
<path d="M88.77 294.93C88.77 294.93 94.4 285.16 100.77 285.93" stroke="#263238" stroke-linecap="round" stroke-linejoin="round"/>
<path d="M143.63 317.48C143.63 317.48 143.25 309.59 151.52 303.58" stroke="#263238" stroke-linecap="round" stroke-linejoin="round"/>
<path d="M154.9 320.48C154.9 320.48 154.52 310.72 160.16 306.21" stroke="#263238" stroke-linecap="round" stroke-linejoin="round"/>
<path d="M206.65 1.33997C206.65 1.33997 251.1 179.76 216.65 298.08" stroke="#263238" stroke-width="2" stroke-linecap="round" stroke-linejoin="round"/>
<path d="M242.42 119.11C242.71 123.28 242.9 127.26 242.96 130.93" stroke="#263238" stroke-width="2" stroke-linecap="round" stroke-linejoin="round"/>
<path d="M230.44 33.27C230.44 33.27 238.69 76.69 241.81 111.46" stroke="#263238" stroke-width="2" stroke-linecap="round" stroke-linejoin="round"/>
<path d="M249.85 80.85C249.85 80.85 258.61 136.56 256.73 186.02" stroke="#263238" stroke-width="2" stroke-linecap="round" stroke-linejoin="round"/>
<path d="M246.09 161.6C246.09 161.6 246.63 211.6 241.71 239.86" stroke="#263238" stroke-width="2" stroke-linecap="round" stroke-linejoin="round"/>
<path d="M271.53 201.59C271.25 204.59 270.91 207.59 270.53 210.43" stroke="#263238" stroke-width="2" stroke-linecap="round" stroke-linejoin="round"/>
<path d="M269.88 108.39C269.88 108.39 274.44 153.49 272.28 191.61" stroke="#263238" stroke-width="2" stroke-linecap="round" stroke-linejoin="round"/>
<path d="M142 67.59C142 67.59 103.24 51.05 99.93 51.05C96.62 51.05 95.69 61.45 90 70C84.31 78.55 74.4 79.92 72.51 87C70.62 94.08 75.82 113.94 81.02 119.62C86.22 125.3 94.72 117.25 99.45 121.51C104.18 125.77 106.07 132.38 113.63 130.51C121.19 128.64 139.16 120.58 141.52 114.91C143.88 109.24 140.1 97.91 140.1 88.44C140.1 78.97 143.9 72.32 142 67.59Z" fill="#263238" stroke="#263238" stroke-linecap="round" stroke-linejoin="round"/>
<path d="M104.48 82.8699C97.48 82.8699 91.97 77.7199 91.74 77.5099C91.5299 77.2967 91.4122 77.0093 91.4122 76.71C91.4122 76.4106 91.5299 76.1232 91.74 75.91C91.8441 75.805 91.968 75.7218 92.1044 75.6649C92.2408 75.6081 92.3872 75.5789 92.535 75.5789C92.6828 75.5789 92.8291 75.6081 92.9656 75.6649C93.102 75.7218 93.2259 75.805 93.33 75.91C93.38 75.91 98.42 80.6499 104.52 80.6499C104.82 80.6499 105.107 80.769 105.319 80.9809C105.531 81.1928 105.65 81.4803 105.65 81.78C105.65 82.0796 105.531 82.3671 105.319 82.579C105.107 82.7909 104.82 82.91 104.52 82.91L104.48 82.8699Z" fill="white"/>
<path d="M129.46 85.7899C129.334 85.7896 129.209 85.7693 129.09 85.7299C128.808 85.6303 128.576 85.4227 128.447 85.1527C128.318 84.8827 128.301 84.5724 128.4 84.2899C128.755 83.1369 128.754 81.9037 128.397 80.7513C128.04 79.5989 127.344 78.5809 126.4 77.8299C123.15 75.2299 118.91 78.2699 118.73 78.3999C118.487 78.574 118.184 78.6454 117.889 78.5986C117.593 78.5518 117.328 78.3907 117.15 78.1499C116.975 77.9093 116.903 77.6095 116.948 77.3157C116.993 77.0218 117.152 76.7574 117.39 76.5799C117.63 76.4099 123.2 72.3899 127.81 76.0699C129.129 77.1127 130.099 78.5327 130.59 80.1406C131.081 81.7486 131.071 83.4681 130.56 85.0699C130.473 85.2888 130.321 85.4756 130.124 85.6045C129.927 85.7334 129.695 85.7982 129.46 85.7899V85.7899Z" fill="white"/>
<path d="M123.88 94.23C123.882 94.6517 123.759 95.0645 123.526 95.4161C123.293 95.7677 122.961 96.0422 122.572 96.205C122.183 96.3677 121.754 96.4113 121.341 96.3303C120.927 96.2492 120.546 96.0471 120.247 95.7497C119.949 95.4522 119.745 95.0727 119.662 94.6592C119.579 94.2458 119.62 93.817 119.781 93.4272C119.942 93.0374 120.215 92.7042 120.566 92.4697C120.916 92.2352 121.328 92.11 121.75 92.11C122.313 92.11 122.853 92.333 123.253 92.7303C123.652 93.1276 123.877 93.6668 123.88 94.23Z" fill="white"/>
<path d="M97.83 84.3999C97.83 84.8212 97.7051 85.233 97.471 85.5833C97.237 85.9336 96.9043 86.2066 96.5151 86.3678C96.1259 86.529 95.6976 86.5712 95.2845 86.489C94.8713 86.4068 94.4918 86.2039 94.1939 85.9061C93.896 85.6082 93.6931 85.2286 93.6109 84.8155C93.5288 84.4023 93.5709 83.974 93.7321 83.5848C93.8934 83.1956 94.1664 82.8629 94.5166 82.6289C94.8669 82.3948 95.2787 82.2699 95.7 82.2699C95.9801 82.2686 96.2577 82.3228 96.5167 82.4294C96.7757 82.5359 97.011 82.6928 97.2091 82.8908C97.4072 83.0889 97.564 83.3242 97.6706 83.5832C97.7771 83.8423 97.8313 84.1198 97.83 84.3999V84.3999Z" fill="white"/>
<path d="M89.61 120.31C89.61 120.31 95.53 125.66 101.45 126.51C107.37 127.36 105.39 122.28 102.86 120.31C100.33 118.34 87.92 113.54 89.61 120.31Z" fill="white" stroke="#263238" stroke-linecap="round" stroke-linejoin="round"/>
<path d="M116.7 101.94C116.7 101.94 117.24 95.5599 115.11 91.3099C112.98 87.0599 108.99 85.7299 105.01 88.9199C101.03 92.1099 101.29 92.1099 90.92 96.0899C82.92 99.1599 77.21 101.91 74.92 106.75C76.58 112.21 78.79 117.18 81 119.59C86.2 125.26 94.7 117.22 99.43 121.48C104.16 125.74 106.05 132.35 113.61 130.48C116.192 129.779 118.728 128.914 121.2 127.89C122.314 126.104 123.031 124.099 123.304 122.012C123.576 119.924 123.398 117.802 122.78 115.79C121 110.72 117.77 107 116.7 101.94Z" fill="white" stroke="#263238" stroke-linecap="round" stroke-linejoin="round"/>
<path d="M107.93 105.66C107.93 105.66 97.83 100.66 94.37 102.74C90.91 104.82 95.44 115.74 100.49 117.63C105.54 119.52 114.05 117.1 115.11 114.17C116.17 111.24 110.86 107.26 107.93 105.66Z" fill="#263238" stroke="#263238" stroke-linecap="round" stroke-linejoin="round"/>
<path d="M107.93 108.32C107.93 108.32 101.29 104.32 101.02 106.46C100.75 108.6 107.93 112.04 109.26 110.72C110.59 109.4 107.93 108.32 107.93 108.32Z" fill="white" stroke="#263238" stroke-linecap="round" stroke-linejoin="round"/>
<path d="M76.3 40.5399C76.3 40.5399 74.97 51.6999 78.16 59.1399C81.35 66.5799 82.68 71.8999 86.93 71.6399C91.18 71.3799 106.07 60.7399 108.99 54.3599C111.91 47.9799 111.12 42.9299 107.13 41.0699C103.14 39.2099 96.23 39.4699 89.85 38.4099C83.47 37.3499 77.89 35.7499 76.3 40.5399Z" fill="#263238" stroke="#263238" stroke-linecap="round" stroke-linejoin="round"/>
<path d="M109 54.36C109 54.36 103.21 68.43 91.29 71.84" stroke="white" stroke-linecap="round" stroke-linejoin="round"/>
<path d="M153.39 68.1799C153.39 68.1799 147.01 61.54 142.22 59.94C137.43 58.34 133.22 64.73 132.92 70.57C132.62 76.41 133.98 91.57 138.77 94.5C143.56 97.43 151.77 91.58 159.77 87.32C167.77 83.06 168.77 79.0799 165.35 75.0899C161.93 71.0999 153.39 68.1799 153.39 68.1799Z" fill="#263238" stroke="#263238" stroke-linecap="round" stroke-linejoin="round"/>
<path d="M133.85 64.46C133.85 64.46 128.93 81.41 138.77 94.46" stroke="white" stroke-linecap="round" stroke-linejoin="round"/>
<path d="M266.64 254.49C266.64 254.49 269.7 247.15 272.15 247.15C274.6 247.15 281.33 254.49 281.33 254.49C281.33 254.49 278.88 245.92 283.16 240.42C287.44 234.92 305.16 248.98 305.8 251.42C306.44 253.86 296.62 250.2 291.73 256.31C288.716 260.147 286.434 264.506 285 269.17C285 269.17 291.73 260.61 299.07 269.17C306.41 277.73 308.86 293.64 308.86 293.64C308.86 293.64 296.01 283.24 291.12 283.24H278.88C278.88 283.24 285 289.36 285 296.09C284.986 299.972 285.19 303.851 285.61 307.71L277.66 296.09L275.82 309.55C275.82 309.55 266.64 301.6 264.2 299.15C261.76 296.7 255.63 289.36 255.63 289.36C255.63 289.36 253.8 292.42 255.02 299.76C256.24 307.1 249.51 321.76 249.51 321.76C249.51 321.76 248.29 315.03 245.84 306.46C244.306 300.854 243.281 295.12 242.78 289.33C241.74 296.027 239.457 302.471 236.05 308.33C230.55 317.5 221.98 329.13 221.98 329.13L226.27 305.88C226.27 305.88 221.98 308.94 217.7 311.38C213.42 313.82 203 316.89 203 316.89L218.92 293C218.92 293 205.46 292.39 202.41 295.45C199.36 298.51 188.33 307.07 188.33 307.07C188.33 307.07 193.84 286.88 199.96 280.15C206.08 273.42 223.21 269.75 223.21 269.75L204.85 267.31C204.85 267.31 217.7 255.68 224.43 255.07C231.16 254.46 242.17 256.29 242.17 256.29L266.64 254.49Z" fill="#263238"/>
<path d="M236.05 255.71C236.05 255.71 224.43 241 212.19 241C199.95 241 195.68 277.09 195.68 277.09C195.68 277.09 222.59 255.71 236.05 255.71Z" fill="#92E3A9"/>
<path d="M236.05 255.71C236.05 255.71 248.9 244.71 260.53 245.31C272.16 245.91 276.43 267.31 272.15 276.51C269.609 281.977 266.747 287.29 263.58 292.42C263.58 292.42 251.35 261.22 236.05 255.71Z" fill="#92E3A9"/>
<path d="M244 267.34C244 267.34 234.82 256.94 227.48 256.94C220.14 256.94 215.85 266.11 215.24 278.35C214.63 290.59 214.63 304.04 214.63 304.04C214.63 304.04 242.16 275.9 245.22 274.68C248.28 273.46 244 267.34 244 267.34Z" fill="#92E3A9"/>
<path d="M283.16 240.42C283.16 240.42 285.61 233.69 290.5 233.69C295.39 233.69 308.86 234.3 309.5 245.92C310.14 257.54 310.11 269.78 310.11 269.78C310.11 269.78 296.62 239.19 283.16 240.42Z" fill="#92E3A9"/>
</svg>
