<svg width="44" height="47" viewBox="0 0 44 47" fill="none" xmlns="http://www.w3.org/2000/svg">
<path opacity="0.15" d="M10.0897 32.2642H9.59285C7.70744 32.2642 5.68676 32.5168 3.92833 33.2359C2.41835 33.855 -0.731369 35.7122 0.3397 37.786C1.25618 39.5628 3.80687 40.3596 5.5377 40.9509C7.32925 41.5727 9.01591 42.1946 10.7826 42.8942C12.1896 43.4413 13.6629 43.797 15.1635 43.9519C16.6238 44.1213 18.327 43.8798 19.7128 44.385C24.3449 46.0729 29.3469 47.5277 34.2109 45.5705C35.2046 45.1679 36.5849 44.1296 37.0956 43.1524C37.8133 41.7643 37.2916 40.4484 36.4441 39.3157C34.6332 36.8949 30.9231 35.6178 28.1626 34.8738C24.4387 33.8577 20.3643 33.3608 16.5327 32.875C15.4534 32.7389 14.5065 32.7195 13.4354 32.5168C12.3305 32.3279 11.2104 32.2434 10.0897 32.2642Z" fill="black"/>
<path d="M40.1636 19.1663C42.2824 15.9616 39.5261 10.3721 34.0074 6.68183C28.4886 2.99153 22.2972 2.59788 20.1784 5.80259C18.0596 9.0073 20.8159 14.5968 26.3346 18.2871C31.8534 21.9774 38.0448 22.3711 40.1636 19.1663Z" fill="#FFC727"/>
<path opacity="0.75" d="M40.1636 19.1663C42.2824 15.9616 39.5261 10.3721 34.0074 6.68183C28.4886 2.99153 22.2972 2.59788 20.1784 5.80259C18.0596 9.0073 20.8159 14.5968 26.3346 18.2871C31.8534 21.9774 38.0448 22.3711 40.1636 19.1663Z" fill="white"/>
<path d="M26.1365 31.8784C25.9543 31.6396 25.2338 31.4064 25.2089 31.1455C25.1896 30.9373 25.485 30.7318 25.5678 30.568C25.6464 30.389 25.6773 30.1924 25.6575 29.9977C25.6376 29.803 25.5677 29.6168 25.4546 29.4576C25.2172 29.105 24.712 28.9717 24.505 28.6247C24.298 28.2777 24.3477 27.8724 23.9281 27.5836C23.2103 27.0922 22.3877 27.6863 21.6313 27.6725C21.2007 27.6725 21.0544 27.2838 20.7149 27.0811C20.386 26.9108 20.0099 26.8561 19.6465 26.9257C19.4623 26.9513 19.286 27.0177 19.1303 27.12C18.9454 27.281 19.0668 27.3699 18.8046 27.3976C18.5877 27.3769 18.3721 27.3444 18.1586 27.3005C17.7133 27.2862 17.2755 27.4177 16.9109 27.6752C16.265 28.1139 15.8288 28.7857 15.9227 29.5797C15.0945 29.4298 14.5838 30.0295 14.3906 30.7929C14.2774 31.2482 14.1477 32.6613 14.7743 32.8861C13.8771 32.628 14.9868 35.9594 15.6273 35.332C15.55 36.0538 16.1959 36.7895 16.7894 37.1087C17.0517 37.2503 17.383 37.2281 17.6176 37.3391C17.8522 37.4502 17.9765 37.6834 18.189 37.7972C18.4172 37.9246 18.6766 37.9842 18.9371 37.9693C19.0335 38.0439 19.135 38.1116 19.2408 38.172C19.4671 38.2941 19.699 38.4052 19.9254 38.5273C20.4305 38.8278 20.964 39.077 21.5182 39.2714C21.6264 39.301 21.736 39.3251 21.8467 39.3435C22.0466 39.3901 22.2534 39.3995 22.4567 39.3713C22.6058 39.3408 22.6941 39.1881 22.8183 39.1825C23.0502 39.1825 23.2297 39.263 23.4533 39.1409C23.5403 39.0886 23.6102 39.0119 23.6543 38.9201C23.6985 38.8283 23.715 38.7256 23.7017 38.6245C24.0633 38.5107 24.1185 37.9888 23.9446 37.7084C23.8674 37.5849 23.7746 37.472 23.6686 37.3725C23.68 37.311 23.68 37.2479 23.6686 37.1865C23.976 37.1765 24.2771 37.0956 24.5485 36.9501C24.82 36.8047 25.0547 36.5985 25.2344 36.3475C25.4142 36.0964 25.5342 35.8072 25.5853 35.5022C25.6364 35.1971 25.6172 34.8844 25.5291 34.5879C25.3884 34.0327 25.5595 33.9605 25.9294 33.5635C26.3766 33.0888 26.5588 32.4253 26.1365 31.8784Z" fill="#FFC727"/>
<path opacity="0.35" d="M26.1365 31.8784C25.9543 31.6396 25.2338 31.4064 25.2089 31.1455C25.1896 30.9373 25.485 30.7318 25.5678 30.568C25.6464 30.389 25.6773 30.1924 25.6575 29.9977C25.6376 29.803 25.5677 29.6168 25.4546 29.4576C25.2172 29.105 24.712 28.9717 24.505 28.6247C24.298 28.2777 24.3477 27.8724 23.9281 27.5836C23.2103 27.0922 22.3877 27.6863 21.6313 27.6725C21.2007 27.6725 21.0544 27.2838 20.7149 27.0811C20.386 26.9108 20.0099 26.8561 19.6465 26.9257C19.4623 26.9513 19.286 27.0177 19.1303 27.12C18.9454 27.281 19.0668 27.3699 18.8046 27.3976C18.5877 27.3769 18.3721 27.3444 18.1586 27.3005C17.7133 27.2862 17.2755 27.4177 16.9109 27.6752C16.265 28.1139 15.8288 28.7857 15.9227 29.5797C15.0945 29.4298 14.5838 30.0295 14.3906 30.7929C14.2774 31.2482 14.1477 32.6613 14.7743 32.8861C13.8771 32.628 14.9868 35.9594 15.6273 35.332C15.55 36.0538 16.1959 36.7895 16.7894 37.1087C17.0517 37.2503 17.383 37.2281 17.6176 37.3391C17.8522 37.4502 17.9765 37.6834 18.189 37.7972C18.4172 37.9246 18.6766 37.9842 18.9371 37.9693C19.0335 38.0439 19.135 38.1116 19.2408 38.172C19.4671 38.2941 19.699 38.4052 19.9254 38.5273C20.4305 38.8278 20.964 39.077 21.5182 39.2714C21.6264 39.301 21.736 39.3251 21.8467 39.3435C22.0466 39.3901 22.2534 39.3995 22.4567 39.3713C22.6058 39.3408 22.6941 39.1881 22.8183 39.1825C23.0502 39.1825 23.2297 39.263 23.4533 39.1409C23.5403 39.0886 23.6102 39.0119 23.6543 38.9201C23.6985 38.8283 23.715 38.7256 23.7017 38.6245C24.0633 38.5107 24.1185 37.9888 23.9446 37.7084C23.8674 37.5849 23.7746 37.472 23.6686 37.3725C23.68 37.311 23.68 37.2479 23.6686 37.1865C23.976 37.1765 24.2771 37.0956 24.5485 36.9501C24.82 36.8047 25.0547 36.5985 25.2344 36.3475C25.4142 36.0964 25.5342 35.8072 25.5853 35.5022C25.6364 35.1971 25.6172 34.8844 25.5291 34.5879C25.3884 34.0327 25.5595 33.9605 25.9294 33.5635C26.3766 33.0888 26.5588 32.4253 26.1365 31.8784Z" fill="black"/>
<path d="M7.60529 27.9307C7.65877 27.878 7.70601 27.8193 7.74607 27.7557C7.92657 27.4 8.03717 27.0126 8.07181 26.6147C8.2264 25.6847 8.38374 24.7519 8.54109 23.8219C8.63226 23.4178 8.65651 23.0013 8.61286 22.5893C8.58859 22.3838 8.51513 22.1873 8.39878 22.0166C8.28243 21.8459 8.12666 21.7061 7.94482 21.6093C7.75875 21.5217 7.54581 21.5117 7.35242 21.5814C7.15903 21.6511 7.00087 21.7948 6.91241 21.9813C6.8848 21.5815 6.84339 21.1817 6.78266 20.7847C6.77379 20.571 6.69521 20.3661 6.55906 20.2017C6.26369 19.9241 5.76128 20.099 5.45487 20.3822C5.59565 19.3967 6.18916 18.4888 6.14499 17.495C6.1479 17.3049 6.09195 17.1186 5.98488 16.9619C5.77508 16.701 5.39413 16.6843 5.06288 16.6843L6.03733 16.1569C6.27905 16.0439 6.50019 15.8909 6.69157 15.7043C6.78553 15.6102 6.85563 15.4947 6.89599 15.3677C6.93634 15.2406 6.94575 15.1057 6.92344 14.9742C6.89257 14.8444 6.81213 14.732 6.69952 14.6613C6.58691 14.5907 6.45118 14.5674 6.32166 14.5966C6.49004 14.4627 6.67578 14.3525 6.87376 14.269C7.05871 14.158 7.22158 13.9359 7.14981 13.7388C7.11096 13.6581 7.04957 13.5906 6.97314 13.5445C6.71849 13.3847 6.43089 13.2857 6.13233 13.2549C5.83378 13.2241 5.53218 13.2624 5.25059 13.3668C4.68904 13.5807 4.17154 13.8969 3.72404 14.2996C3.81238 14.1497 3.64951 13.9526 3.4756 13.947C3.30218 13.9608 3.1404 14.0401 3.02288 14.1691C2.07879 15.0242 1.52669 16.2457 1.25064 17.5005C1.21704 17.4607 1.17559 17.4283 1.1289 17.4055C1.08222 17.3826 1.03133 17.3697 0.979444 17.3676C0.927557 17.3655 0.875802 17.3743 0.827453 17.3933C0.779104 17.4124 0.735209 17.4413 0.698548 17.4783C0.55872 17.6315 0.472456 17.8265 0.452864 18.0335C0.343774 18.6399 0.349393 19.2616 0.469427 19.8658C0.579343 20.3852 0.800745 20.8741 1.11814 21.2983C0.759279 20.943 0.0884813 21.0207 0.0139482 21.576C-0.101992 22.3616 0.527398 22.8502 1.06569 23.2861C0.952513 23.3888 0.775843 23.3944 0.679226 23.5637C0.616539 23.6856 0.583821 23.8207 0.583821 23.9579C0.583821 24.0951 0.616539 24.2303 0.679226 24.3521C0.955275 24.8546 1.52946 25.21 1.99874 25.4932C0.894544 26.2233 3.49768 27.3227 4.00561 27.6392C4.32382 27.8159 4.58671 28.0783 4.76475 28.397C4.87788 28.5959 4.97838 28.8017 5.06564 29.0134C5.11809 29.1466 5.16502 29.4298 5.30304 29.5075C5.74748 29.7574 6.62531 28.6747 6.9262 28.4248C7.16149 28.2729 7.3882 28.1079 7.60529 27.9307Z" fill="#FFC727"/>
<path opacity="0.2" d="M7.60529 27.9307C7.65877 27.878 7.70601 27.8193 7.74607 27.7557C7.92657 27.4 8.03717 27.0126 8.07181 26.6147C8.2264 25.6847 8.38374 24.7519 8.54109 23.8219C8.63226 23.4178 8.65651 23.0013 8.61286 22.5893C8.58859 22.3838 8.51513 22.1873 8.39878 22.0166C8.28243 21.8459 8.12666 21.7061 7.94482 21.6093C7.75875 21.5217 7.54581 21.5117 7.35242 21.5814C7.15903 21.6511 7.00087 21.7948 6.91241 21.9813C6.8848 21.5815 6.84339 21.1817 6.78266 20.7847C6.77379 20.571 6.69521 20.3661 6.55906 20.2017C6.26369 19.9241 5.76128 20.099 5.45487 20.3822C5.59565 19.3967 6.18916 18.4888 6.14499 17.495C6.1479 17.3049 6.09195 17.1186 5.98488 16.9619C5.77508 16.701 5.39413 16.6843 5.06288 16.6843L6.03733 16.1569C6.27905 16.0439 6.50019 15.8909 6.69157 15.7043C6.78553 15.6102 6.85563 15.4947 6.89599 15.3677C6.93634 15.2406 6.94575 15.1057 6.92344 14.9742C6.89257 14.8444 6.81213 14.732 6.69952 14.6613C6.58691 14.5907 6.45118 14.5674 6.32166 14.5966C6.49004 14.4627 6.67578 14.3525 6.87376 14.269C7.05871 14.158 7.22158 13.9359 7.14981 13.7388C7.11096 13.6581 7.04957 13.5906 6.97314 13.5445C6.71849 13.3847 6.43089 13.2857 6.13233 13.2549C5.83378 13.2241 5.53218 13.2624 5.25059 13.3668C4.68904 13.5807 4.17154 13.8969 3.72404 14.2996C3.81238 14.1497 3.64951 13.9526 3.4756 13.947C3.30218 13.9608 3.1404 14.0401 3.02288 14.1691C2.07879 15.0242 1.52669 16.2457 1.25064 17.5005C1.21704 17.4607 1.17559 17.4283 1.1289 17.4055C1.08222 17.3826 1.03133 17.3697 0.979444 17.3676C0.927557 17.3655 0.875802 17.3743 0.827453 17.3933C0.779104 17.4124 0.735209 17.4413 0.698548 17.4783C0.55872 17.6315 0.472456 17.8265 0.452864 18.0335C0.343774 18.6399 0.349393 19.2616 0.469427 19.8658C0.579343 20.3852 0.800745 20.8741 1.11814 21.2983C0.759279 20.943 0.0884813 21.0207 0.0139482 21.576C-0.101992 22.3616 0.527398 22.8502 1.06569 23.2861C0.952513 23.3888 0.775843 23.3944 0.679226 23.5637C0.616539 23.6856 0.583821 23.8207 0.583821 23.9579C0.583821 24.0951 0.616539 24.2303 0.679226 24.3521C0.955275 24.8546 1.52946 25.21 1.99874 25.4932C0.894544 26.2233 3.49768 27.3227 4.00561 27.6392C4.32382 27.8159 4.58671 28.0783 4.76475 28.397C4.87788 28.5959 4.97838 28.8017 5.06564 29.0134C5.11809 29.1466 5.16502 29.4298 5.30304 29.5075C5.74748 29.7574 6.62531 28.6747 6.9262 28.4248C7.16149 28.2729 7.3882 28.1079 7.60529 27.9307Z" fill="black"/>
<path d="M24.6017 31.4509L24.8915 31.387C24.8888 31.2343 24.8253 31.1871 24.6017 31.4509Z" fill="#37474F"/>
<path d="M29.0846 33.9271C29.2249 33.6289 29.2758 33.2961 29.2309 32.9693C29.1978 32.7389 28.977 32.4141 29.1012 32.1892C29.1729 32.0587 29.3413 32.031 29.4462 31.931C29.5991 31.7915 29.6971 31.6013 29.7223 31.3952C29.7177 31.1553 29.6965 30.9159 29.6588 30.679C29.6588 30.368 29.852 30.2264 29.9845 29.9794C30.1248 29.7115 30.2182 29.4213 30.2606 29.1215C30.3241 28.6523 29.9707 28.3525 30.2136 27.9167C30.2892 27.7788 30.3353 27.6265 30.3489 27.4697C30.371 27.292 30.5339 27.1726 30.5587 26.995C30.5958 26.8704 30.6024 26.7387 30.5779 26.6111C30.5534 26.4835 30.4985 26.3637 30.4179 26.2621C29.841 25.7512 29.126 26.3176 28.6567 26.659C27.9224 27.1893 26.9618 27.2337 26.2165 27.7307C25.8958 27.9442 25.5281 28.0757 25.1454 28.1138C25.0598 28.1138 24.3173 28.1748 24.3173 28.1138C24.2296 28.6326 24.2064 29.1605 24.2482 29.6851C24.291 30.2172 24.5326 30.7132 24.9246 31.0732C25.0194 31.1352 25.0912 31.2269 25.1288 31.3341L24.8832 31.3897C24.8769 31.5329 24.8565 31.6752 24.8224 31.8144C24.7737 31.9975 24.764 32.1888 24.7939 32.3759C24.8239 32.563 24.8929 32.7415 24.9963 32.8999C25.1051 33.0176 25.183 33.1607 25.2227 33.3163C25.2106 33.497 25.1474 33.6704 25.0405 33.8161C24.9246 34.0451 24.8703 34.3005 24.8829 34.5572C24.8955 34.8138 24.9746 35.0627 25.1123 35.2791C25.2344 35.418 25.3232 35.5833 25.3718 35.7622C25.3636 35.9371 25.3349 36.1104 25.2862 36.2785C25.2558 36.5561 25.4076 36.7283 25.4711 36.9726C25.4807 37.0549 25.4955 37.1365 25.5153 37.2169C25.565 37.339 25.6589 37.4445 25.7141 37.5667C25.79 37.7356 25.8259 37.92 25.819 38.1053C25.7943 38.5037 25.8184 38.9037 25.8907 39.2962C25.9751 39.6564 26.1846 39.9744 26.4815 40.1929C26.6209 40.3108 26.7706 40.4158 26.9287 40.5067C27.1523 40.6288 27.3842 40.7399 27.6105 40.862C28.1159 41.1619 28.6494 41.4111 29.2033 41.606C29.311 41.6366 29.4242 41.6588 29.5318 41.6782C29.7318 41.7247 29.9385 41.7341 30.1419 41.706C30.2937 41.6727 30.382 41.5227 30.5063 41.5172C30.7381 41.5172 30.9148 41.5977 31.1412 41.4755C31.2275 41.4225 31.2968 41.3456 31.3408 41.2541C31.3849 41.1625 31.4018 41.0601 31.3896 40.9592C31.7485 40.8454 31.8037 40.3234 31.6298 40.043C31.4435 39.7579 31.1928 39.521 30.8983 39.3518C30.5863 39.1602 30.095 38.9909 29.979 38.6133C29.9513 38.4274 29.8718 38.2532 29.7499 38.1108C29.5787 37.9387 29.3055 37.7249 29.2585 37.4751C29.1895 37.128 29.4462 36.8032 29.4076 36.4506C29.4015 36.3645 29.381 36.28 29.3469 36.2008C29.2944 36.0953 29.1895 36.0287 29.1481 35.9232C29.068 35.6983 29.3358 35.4401 29.3413 35.1986C29.3244 35.0189 29.2698 34.8448 29.1812 34.6878C29.0999 34.5475 29.0368 34.3973 28.9935 34.2408C28.9958 34.13 29.0272 34.0217 29.0846 33.9271Z" fill="#FFC727"/>
<path opacity="0.2" d="M29.0846 33.9271C29.2249 33.6289 29.2758 33.2961 29.2309 32.9693C29.1978 32.7389 28.977 32.4141 29.1012 32.1892C29.1729 32.0587 29.3413 32.031 29.4462 31.931C29.5991 31.7915 29.6971 31.6013 29.7223 31.3952C29.7177 31.1553 29.6965 30.9159 29.6588 30.679C29.6588 30.368 29.852 30.2264 29.9845 29.9794C30.1248 29.7115 30.2182 29.4213 30.2606 29.1215C30.3241 28.6523 29.9707 28.3525 30.2136 27.9167C30.2892 27.7788 30.3353 27.6265 30.3489 27.4697C30.371 27.292 30.5339 27.1726 30.5587 26.995C30.5958 26.8704 30.6024 26.7387 30.5779 26.6111C30.5534 26.4835 30.4985 26.3637 30.4179 26.2621C29.841 25.7512 29.126 26.3176 28.6567 26.659C27.9224 27.1893 26.9618 27.2337 26.2165 27.7307C25.8958 27.9442 25.5281 28.0757 25.1454 28.1138C25.0598 28.1138 24.3173 28.1748 24.3173 28.1138C24.2296 28.6326 24.2064 29.1605 24.2482 29.6851C24.291 30.2172 24.5326 30.7132 24.9246 31.0732C25.0194 31.1352 25.0912 31.2269 25.1288 31.3341L24.8832 31.3897C24.8769 31.5329 24.8565 31.6752 24.8224 31.8144C24.7737 31.9975 24.764 32.1888 24.7939 32.3759C24.8239 32.563 24.8929 32.7415 24.9963 32.8999C25.1051 33.0176 25.183 33.1607 25.2227 33.3163C25.2106 33.497 25.1474 33.6704 25.0405 33.8161C24.9246 34.0451 24.8703 34.3005 24.8829 34.5572C24.8955 34.8138 24.9746 35.0627 25.1123 35.2791C25.2344 35.418 25.3232 35.5833 25.3718 35.7622C25.3636 35.9371 25.3349 36.1104 25.2862 36.2785C25.2558 36.5561 25.4076 36.7283 25.4711 36.9726C25.4807 37.0549 25.4955 37.1365 25.5153 37.2169C25.565 37.339 25.6589 37.4445 25.7141 37.5667C25.79 37.7356 25.8259 37.92 25.819 38.1053C25.7943 38.5037 25.8184 38.9037 25.8907 39.2962C25.9751 39.6564 26.1846 39.9744 26.4815 40.1929C26.6209 40.3108 26.7706 40.4158 26.9287 40.5067C27.1523 40.6288 27.3842 40.7399 27.6105 40.862C28.1159 41.1619 28.6494 41.4111 29.2033 41.606C29.311 41.6366 29.4242 41.6588 29.5318 41.6782C29.7318 41.7247 29.9385 41.7341 30.1419 41.706C30.2937 41.6727 30.382 41.5227 30.5063 41.5172C30.7381 41.5172 30.9148 41.5977 31.1412 41.4755C31.2275 41.4225 31.2968 41.3456 31.3408 41.2541C31.3849 41.1625 31.4018 41.0601 31.3896 40.9592C31.7485 40.8454 31.8037 40.3234 31.6298 40.043C31.4435 39.7579 31.1928 39.521 30.8983 39.3518C30.5863 39.1602 30.095 38.9909 29.979 38.6133C29.9513 38.4274 29.8718 38.2532 29.7499 38.1108C29.5787 37.9387 29.3055 37.7249 29.2585 37.4751C29.1895 37.128 29.4462 36.8032 29.4076 36.4506C29.4015 36.3645 29.381 36.28 29.3469 36.2008C29.2944 36.0953 29.1895 36.0287 29.1481 35.9232C29.068 35.6983 29.3358 35.4401 29.3413 35.1986C29.3244 35.0189 29.2698 34.8448 29.1812 34.6878C29.0999 34.5475 29.0368 34.3973 28.9935 34.2408C28.9958 34.13 29.0272 34.0217 29.0846 33.9271Z" fill="black"/>
<path d="M16.4526 34.8434C16.2377 34.7229 16.0123 34.6225 15.7791 34.5435C15.1994 34.3187 14.385 34.2187 13.8467 34.5935C13.3084 34.9683 13.1676 35.7928 13.0986 36.4119C13.0683 36.6895 13.2173 36.8617 13.2808 37.106C13.3029 37.1865 13.2974 37.2698 13.3278 37.3503C13.3747 37.4752 13.4713 37.5779 13.5265 37.7001C13.6016 37.8692 13.6365 38.0536 13.6287 38.2387C13.6063 38.6372 13.6313 39.037 13.7032 39.4296C13.7854 39.7907 13.9954 40.1094 14.2939 40.3263C14.4354 40.4449 14.5869 40.5508 14.7466 40.6428C14.973 40.7678 15.2049 40.876 15.4313 40.9982C15.9364 41.2986 16.4699 41.5478 17.024 41.7422C17.1322 41.7721 17.2418 41.7962 17.3525 41.8144C17.5523 41.8624 17.7593 41.8718 17.9626 41.8421C18.1117 41.8116 18.2 41.6589 18.3242 41.6534C18.5561 41.6534 18.7356 41.7339 18.9592 41.6117C19.0462 41.5595 19.1161 41.4827 19.1602 41.3909C19.2044 41.2992 19.2209 41.1964 19.2076 41.0953C19.5692 40.9815 19.6244 40.4596 19.4505 40.1792C19.262 39.8959 19.0118 39.6595 18.719 39.4879C18.4071 39.2964 17.9157 39.127 17.797 38.7495C17.7693 38.5636 17.6898 38.3894 17.5679 38.247C17.3995 38.0749 17.1262 37.8611 17.0765 37.6112C17.0102 37.2642 17.2642 36.9394 17.2283 36.5868C17.2007 36.3231 17.0047 36.1843 16.9357 35.94C16.8833 35.754 16.9357 35.5569 16.8805 35.3709C16.8081 35.1476 16.6555 34.9596 16.4526 34.8434Z" fill="#FFC727"/>
<path opacity="0.2" d="M16.4526 34.8434C16.2377 34.7229 16.0123 34.6225 15.7791 34.5435C15.1994 34.3187 14.385 34.2187 13.8467 34.5935C13.3084 34.9683 13.1676 35.7928 13.0986 36.4119C13.0683 36.6895 13.2173 36.8617 13.2808 37.106C13.3029 37.1865 13.2974 37.2698 13.3278 37.3503C13.3747 37.4752 13.4713 37.5779 13.5265 37.7001C13.6016 37.8692 13.6365 38.0536 13.6287 38.2387C13.6063 38.6372 13.6313 39.037 13.7032 39.4296C13.7854 39.7907 13.9954 40.1094 14.2939 40.3263C14.4354 40.4449 14.5869 40.5508 14.7466 40.6428C14.973 40.7678 15.2049 40.876 15.4313 40.9982C15.9364 41.2986 16.4699 41.5478 17.024 41.7422C17.1322 41.7721 17.2418 41.7962 17.3525 41.8144C17.5523 41.8624 17.7593 41.8718 17.9626 41.8421C18.1117 41.8116 18.2 41.6589 18.3242 41.6534C18.5561 41.6534 18.7356 41.7339 18.9592 41.6117C19.0462 41.5595 19.1161 41.4827 19.1602 41.3909C19.2044 41.2992 19.2209 41.1964 19.2076 41.0953C19.5692 40.9815 19.6244 40.4596 19.4505 40.1792C19.262 39.8959 19.0118 39.6595 18.719 39.4879C18.4071 39.2964 17.9157 39.127 17.797 38.7495C17.7693 38.5636 17.6898 38.3894 17.5679 38.247C17.3995 38.0749 17.1262 37.8611 17.0765 37.6112C17.0102 37.2642 17.2642 36.9394 17.2283 36.5868C17.2007 36.3231 17.0047 36.1843 16.9357 35.94C16.8833 35.754 16.9357 35.5569 16.8805 35.3709C16.8081 35.1476 16.6555 34.9596 16.4526 34.8434Z" fill="black"/>
<path d="M15.964 19.5743C15.7211 19.9991 15.4865 20.4072 14.9454 20.4738C14.2636 20.5487 13.1815 20.4155 12.8889 21.215C12.8005 21.4621 12.8309 21.7342 12.6735 21.9646C12.3975 22.3449 12.0414 22.3671 11.6273 22.4143C10.8516 22.5032 9.77227 22.6919 9.56247 23.5692C9.372 24.3688 8.86131 24.3216 8.18223 24.6547C7.74928 24.8418 7.36971 25.1348 7.07804 25.507C6.68605 26.0622 6.9483 26.3038 6.85996 26.8812C6.79371 27.331 6.18088 27.6863 5.88827 28.0083C5.44659 28.4858 4.96627 29.0744 4.82824 29.7324C4.76197 29.9748 4.77258 30.232 4.85861 30.468C4.95798 30.6846 5.19539 30.8012 5.29476 31.0233C5.52665 31.5369 5.14294 31.9755 5.03528 32.4613C4.94418 32.875 4.95246 33.4136 5.31133 33.694C5.67019 33.9744 6.09806 33.9077 6.3189 34.3741C6.5149 34.7767 6.38792 35.2736 6.52042 35.7011C6.58698 35.9265 6.70428 36.1334 6.86322 36.3057C7.02216 36.4781 7.21847 36.6113 7.4369 36.695C7.75409 36.7772 8.0587 36.9023 8.34234 37.067C8.73433 37.3447 8.79506 37.7028 9.02418 38.1081C9.129 38.3117 9.275 38.4909 9.4528 38.6343C9.6306 38.7778 9.83628 38.8822 10.0566 38.941C10.5894 39.0548 11.1774 38.8688 11.6963 39.0909C12.4555 39.4101 12.8005 40.54 13.775 40.4512C14.1808 40.4151 14.501 40.0709 14.9289 40.0431C15.3567 40.0153 15.757 40.2041 16.1794 40.1819C16.8336 40.1458 16.8446 39.7488 17.14 39.3157C17.4354 38.8827 17.8715 39.1353 18.1945 38.8743C18.5175 38.6134 18.5147 37.6139 18.4954 37.2253C18.4602 37.0022 18.4724 36.7742 18.5313 36.5562C18.6489 36.3624 18.7417 36.1544 18.8073 35.9371C18.8681 35.4124 18.4926 35.1043 18.3684 34.6268C18.6445 34.5601 18.9536 34.6795 19.2435 34.5601C19.6051 34.413 19.5803 34.1437 19.7956 33.9022C20.1986 33.4247 20.0716 33.966 20.022 34.2631C19.9711 34.4444 19.9586 34.6344 19.9853 34.8209C20.0119 35.0074 20.077 35.1862 20.1765 35.3458C20.2441 35.4002 20.2994 35.4683 20.3387 35.5458C20.3781 35.6233 20.4006 35.7083 20.4048 35.7952C20.4089 35.8821 20.3947 35.9689 20.363 36.0499C20.3312 36.1308 20.2827 36.2041 20.2207 36.2647C20.1049 36.4937 20.0505 36.7492 20.0631 37.0058C20.0757 37.2625 20.1548 37.5113 20.2925 37.7278C20.4151 37.8663 20.504 38.0317 20.552 38.2108C20.5435 38.3857 20.5147 38.559 20.4664 38.7272C20.436 39.0048 20.5851 39.1742 20.6486 39.4185C20.66 39.5007 20.6756 39.5822 20.6955 39.6628C20.7424 39.7877 20.8391 39.8904 20.8943 40.0126C20.9701 40.1815 21.0051 40.366 20.9964 40.5511C20.9742 40.9506 20.9992 41.3514 21.0709 41.7449C21.1554 42.1043 21.365 42.4213 21.6617 42.6388C21.8031 42.7583 21.9546 42.8651 22.1144 42.9581C22.3408 43.0803 22.5726 43.1913 22.799 43.3107C23.3032 43.6128 23.837 43.8621 24.3918 44.0547C24.4995 44.0852 24.6126 44.1074 24.7203 44.1269C24.9199 44.1757 25.1269 44.186 25.3304 44.1574C25.4822 44.1241 25.5705 43.9714 25.6948 43.9686C25.9239 43.9686 26.1033 44.0464 26.3297 43.927C26.4159 43.8734 26.485 43.7959 26.5285 43.7038C26.5721 43.6117 26.5884 43.509 26.5754 43.4078C26.937 43.294 26.9922 42.7721 26.8183 42.4917C26.6311 42.208 26.3806 41.9722 26.0867 41.8032C25.7748 41.6089 25.2834 41.4423 25.1675 41.062C25.1397 40.8769 25.0603 40.7036 24.9384 40.5623C24.7672 40.3874 24.4939 40.1736 24.447 39.9237C24.4308 39.7601 24.4555 39.595 24.5188 39.4434C24.5616 39.2881 24.5616 39.124 24.5188 38.9687C24.4691 38.7799 24.3476 38.6161 24.2869 38.4301C24.2304 38.2568 24.2412 38.0683 24.3173 37.9027C24.3768 37.7319 24.398 37.55 24.3794 37.37C24.3607 37.19 24.3028 37.0164 24.2096 36.8616C24.1465 36.7805 24.1038 36.6853 24.0854 36.584C24.088 36.4745 24.1205 36.3679 24.1792 36.2758C24.3697 35.8783 24.3955 35.421 24.251 35.0043C24.1931 34.8433 24.113 34.6629 24.1958 34.5129C24.2483 34.4403 24.3138 34.3781 24.389 34.3297C24.4891 34.2449 24.5712 34.1408 24.6305 34.0235C24.6897 33.9061 24.725 33.778 24.7341 33.6468C24.7341 33.4691 24.5602 33.3525 24.5409 33.1804C24.5133 32.9499 24.643 32.9166 24.7672 32.7695C24.8995 32.6125 25.0126 32.44 25.104 32.2559C25.1999 32.2179 25.2923 32.1715 25.3801 32.1171C25.6297 31.9648 25.8153 31.7258 25.9018 31.4453C25.9379 31.1943 25.9536 30.9409 25.9487 30.6874C26.1731 30.7883 26.4209 30.8246 26.6646 30.7923C26.9083 30.7599 27.1383 30.6602 27.329 30.5041C27.7042 30.1858 27.9555 29.7443 28.0384 29.2576C28.2969 29.2854 28.5577 29.2357 28.7881 29.1146C29.0185 28.9936 29.2081 28.8067 29.3331 28.5775C29.5729 28.1117 29.6754 27.5868 29.6284 27.0644C29.9726 27.1195 30.325 27.0464 30.6195 26.859C30.7457 26.7283 30.8406 26.5703 30.8971 26.3971C30.9535 26.2239 30.97 26.0401 30.9452 25.8596C30.923 25.4369 30.8209 25.0223 30.6443 24.6381C30.8467 24.7525 31.067 24.8313 31.2958 24.8713C31.4104 24.8894 31.5278 24.878 31.6368 24.8382C31.7459 24.7984 31.8432 24.7314 31.9197 24.6436C31.9892 24.5135 32.0257 24.368 32.0257 24.2202C32.0257 24.0725 31.9892 23.927 31.9197 23.7969C31.8271 23.5487 31.7047 23.3128 31.5553 23.0945C31.5111 23.0306 31.1688 22.567 31.1053 22.5781C31.2679 22.5563 31.422 22.4921 31.5525 22.3921C31.6846 22.2919 31.7719 22.1432 31.7954 21.9785C31.7927 21.7238 31.7031 21.4778 31.5415 21.2816C31.2492 20.873 30.8784 20.5275 30.4511 20.2656C30.233 20.124 29.8824 20.0268 29.7251 19.8269C29.5945 19.596 29.4854 19.3535 29.3993 19.1023C28.8748 17.9603 28.0875 16.9601 27.1026 16.1846C26.6057 15.8174 26.0541 15.5317 25.4684 15.3378C25.1525 15.2354 24.8296 15.1565 24.5022 15.1019C24.2502 15.0647 24.003 14.9995 23.7652 14.9075C23.5052 14.8335 23.231 14.8258 22.9674 14.8853C22.7601 14.9116 22.5618 14.9857 22.3877 15.1019C21.9515 15.3989 21.9239 15.8986 21.3884 16.1707C21.1123 16.3151 21.0792 16.5788 20.7148 16.6843C20.3505 16.7898 19.9861 16.7509 19.6548 16.8981C19.0116 17.1757 19.1717 17.8142 18.7135 18.2306C18.1835 18.7137 17.2587 18.3916 16.6404 18.7553C16.3469 18.9634 16.1136 19.246 15.964 19.5743Z" fill="#FFC727"/>
<path opacity="0.2" d="M30.5559 19.9103L27.6519 20.1879L24.4829 19.3939L21.9984 17.0758C22.0757 18.4445 23.271 21.1096 25.9901 21.7953C27.2644 22.1303 28.6175 21.9707 29.7802 21.3484C30.0277 21.219 30.2415 21.033 30.4045 20.8054C30.5675 20.5779 30.6751 20.315 30.7188 20.038V20.0214C30.7243 19.9908 30.5504 19.952 30.5559 19.9103Z" fill="black"/>
<path d="M33.7112 17.4061C34.4123 17.6838 35.2957 18.4278 35.9196 19.0718C36.5434 19.7159 37.7387 19.6604 37.6587 18.6748C37.5786 17.6893 36.4082 16.9203 36.4082 16.9203C35.5358 17.2069 34.6282 17.3704 33.7112 17.4061Z" fill="#FFA8A7"/>
<path d="M36.8251 18.697C36.8579 18.7036 36.892 18.6987 36.9217 18.6831C36.9596 18.6645 36.9887 18.6316 37.0026 18.5916C37.0166 18.5516 37.0143 18.5077 36.9962 18.4693C36.6785 17.9481 36.2037 17.5426 35.6408 17.3117C35.5028 17.3616 35.3454 17.4144 35.166 17.4699C35.8341 17.6975 36.4855 18.1612 36.7064 18.6109C36.7181 18.6336 36.735 18.6532 36.7556 18.6681C36.7762 18.683 36.8 18.6929 36.8251 18.697Z" fill="#F28F8F"/>
<path d="M30.8431 10.5905C31.0364 10.7849 31.2324 10.9792 31.4311 11.168C31.8901 11.6201 32.4029 12.0136 32.9577 12.3395C33.3295 12.5607 33.7541 12.6758 34.1861 12.6727C34.3701 12.679 34.5523 12.6348 34.7133 12.545C34.8237 12.4423 34.7685 12.3368 34.7851 12.2146C35.4145 12.0869 35.0611 11.5122 34.8265 11.168C35.5801 11.1458 34.901 10.449 34.6857 10.1963C34.0784 9.47452 33.8576 8.42513 33.1233 7.81436C32.7782 7.53675 32.3642 7.44791 31.6796 7.35074C30.99 7.25573 30.2926 7.23155 29.5981 7.27856C29.2144 7.30077 28.3449 7.4146 28.2676 7.87267C28.2234 8.13085 28.6872 8.36127 28.9329 8.63612C29.1785 8.91096 29.485 9.24687 29.7748 9.52172C30.1364 9.87152 30.487 10.2352 30.8431 10.5905Z" fill="#37474F"/>
<path d="M22.9398 14.8104C23.0585 15.299 24.0826 16.8065 23.8618 17.2645C23.7182 17.5422 23.3704 17.7198 23.4726 18.0474C23.6078 18.4944 24.193 18.9774 24.5768 19.2273C25.1195 19.5817 25.7177 19.8417 26.3462 19.9963C27.2047 20.2156 28.0991 20.099 28.9742 20.0379C29.3139 20.0238 29.6455 19.9292 29.9419 19.7618C30.2384 19.5944 30.4914 19.3589 30.6802 19.0746C30.8343 19.0632 30.9829 19.012 31.1115 18.9259C31.2402 18.8398 31.3445 18.7218 31.4145 18.5832C31.7145 18.9226 32.1302 19.1366 32.5794 19.1829C32.7875 19.1982 32.9963 19.165 33.1895 19.0857C33.2695 19.0496 33.6864 18.7415 33.6091 18.6221C33.7305 18.8164 33.8851 19.0274 34.1032 19.0635C34.2317 19.0742 34.3605 19.0462 34.4731 18.983C34.6755 18.8804 34.8539 18.7357 34.9967 18.5587C35.1394 18.3816 35.2432 18.1762 35.3012 17.9558C35.3516 18.0528 35.4358 18.1277 35.5377 18.1661C35.6396 18.2046 35.752 18.2038 35.8533 18.164C36.0579 18.0738 36.2221 17.9106 36.3143 17.706C36.4314 17.5099 36.4827 17.2812 36.4606 17.0536C36.5221 17.121 36.6046 17.1652 36.6945 17.1789C36.7845 17.1925 36.8763 17.1747 36.9548 17.1285C37.0295 17.0784 37.0928 17.0129 37.1404 16.9363C37.188 16.8597 37.2188 16.7738 37.2308 16.6843C37.2542 16.4992 37.2458 16.3114 37.206 16.1291C37.2359 16.1576 37.2747 16.1751 37.3158 16.1786C37.3569 16.1822 37.398 16.1715 37.4323 16.1485C37.5009 16.1014 37.5538 16.0347 37.5842 15.957C37.7251 15.6016 37.7319 15.2066 37.6035 14.8465C37.4848 14.4884 37.4379 14.0136 37.1563 13.7665C36.8573 13.4737 36.4984 13.2501 36.1045 13.1114C35.6266 12.9316 35.1844 12.6674 34.7988 12.3313C34.4621 12.0342 34.0121 11.7399 33.9845 11.2374C33.9905 11.0235 33.9841 10.8094 33.9652 10.5961C33.9129 10.2968 33.7465 10.0299 33.5014 9.85213C33.2447 9.63281 33.0156 9.46068 32.7699 9.22749C32.4933 8.97742 32.204 8.74205 31.9031 8.52234C30.2275 7.21198 27.4863 7.55622 25.4546 8.52234C22.5119 9.91598 22.2662 12.0342 22.9398 14.8104Z" fill="#FFC727"/>
<path d="M30.8597 14.3023C31.2012 14.3023 31.478 14.0239 31.478 13.6805C31.478 13.337 31.2012 13.0586 30.8597 13.0586C30.5182 13.0586 30.2413 13.337 30.2413 13.6805C30.2413 14.0239 30.5182 14.3023 30.8597 14.3023Z" fill="#263238"/>
<path opacity="0.2" d="M27.6658 18.4472C27.8523 19.0996 28.2594 19.6662 28.8169 20.049H28.9687C29.3084 20.0349 29.64 19.9403 29.9365 19.7729C30.2329 19.6055 30.4859 19.37 30.6747 19.0857C30.8288 19.0743 30.9774 19.0231 31.106 18.937C31.2347 18.8509 31.339 18.7329 31.409 18.5943C29.5374 19.4605 27.6658 18.4472 27.6658 18.4472Z" fill="black"/>
<path d="M30.6746 19.0746C29.2944 20.1212 26.9894 19.888 25.5153 18.983C24.3117 18.2445 23.6023 16.8731 23.6547 15.0963C23.6547 15.0963 22.4401 15.5017 22.2966 16.4233C22.2276 17.395 22.7162 19.0857 24.3145 20.1684C25.7334 21.129 29.0073 22.0229 30.6249 20.4211C30.7755 20.2316 30.8616 19.9985 30.8705 19.7561C30.8795 19.5137 30.8108 19.2748 30.6746 19.0746Z" fill="#455A64"/>
<path d="M26.7383 9.58003C26.8653 9.47731 26.5533 9.07476 26.1089 8.96372C25.3194 8.76383 24.1986 9.17471 23.5444 9.61612C22.8902 10.0575 22.1641 10.5989 21.8246 11.354C21.3736 12.3174 21.056 13.3383 20.8805 14.3884C20.7977 14.902 20.6293 15.6543 20.9385 16.1318C21.025 16.2668 21.1575 16.3655 21.3112 16.4094C21.3594 16.4201 21.4094 16.4193 21.4573 16.4073C21.5052 16.3952 21.5496 16.3722 21.5872 16.34C21.5872 16.34 21.5182 16.7065 21.5044 16.7898C21.4855 16.9445 21.4763 17.1003 21.4768 17.2562C21.462 17.4268 21.4852 17.5986 21.545 17.7591C21.6047 17.9195 21.6993 18.0645 21.8218 18.1834C22.2056 18.5249 22.65 18.375 23.0447 18.1446C23.5113 18.7831 24.5879 18.2029 24.6624 17.5199C25.1731 17.7698 25.6755 17.2423 25.6865 16.6871C26.28 16.9258 26.3408 16.2484 26.1613 15.2351C26.1172 14.9797 26.0813 14.7132 26.0316 14.4689C25.8071 13.4675 25.7465 12.4361 25.8522 11.4151C25.9239 10.8071 26.2303 9.98813 26.7383 9.58003Z" fill="#37474F"/>
<path d="M36.8665 15.4961C36.5048 15.7321 35.5608 15.5599 35.1798 15.249C35.0921 15.1745 35.0202 15.083 34.9682 14.9801C34.9163 14.8771 34.8854 14.7647 34.8774 14.6495C34.8695 14.5343 34.8845 14.4187 34.9218 14.3095C34.959 14.2002 35.0177 14.0996 35.0942 14.0136C35.4062 13.7027 36.077 13.264 36.4745 13.2307C36.669 13.2395 36.8566 13.3058 37.0137 13.4214C37.1709 13.5369 37.2906 13.6966 37.3578 13.8804C37.4351 14.3801 37.3523 15.1713 36.8665 15.4961Z" fill="#263238"/>
<path opacity="0.2" d="M19.423 34.4463C19.423 34.3714 19.4064 34.302 19.3981 34.2575C19.3317 33.9849 19.2965 33.7054 19.2932 33.4247C19.3158 33.2829 19.3091 33.138 19.2735 32.999C19.2378 32.86 19.1741 32.7299 19.0862 32.6168C18.9115 32.3933 18.7554 32.1556 18.6197 31.9061C18.4099 31.5535 18.0676 31.498 17.7004 31.3897C17.3755 31.2621 17.0676 31.0942 16.784 30.89C16.3689 30.6817 15.8953 30.6229 15.4424 30.7235C15.0752 30.7929 14.8903 31.0566 14.5562 31.176C14.2222 31.2953 13.1208 31.5008 13.2395 32.031C13.4162 31.9478 13.5155 31.7534 13.7171 31.6479C14.0034 31.5407 14.312 31.5083 14.6142 31.5535C15.1221 31.5535 15.5169 31.2482 16.0386 31.362C16.3748 31.4305 16.6848 31.5931 16.933 31.8312C17.1732 32.081 17.1373 32.2892 17.2091 32.5946C17.2808 32.9 17.4851 32.8722 17.7142 33.0027C17.9458 33.1415 18.1364 33.3398 18.2663 33.5774C18.3881 33.8023 18.4428 34.0577 18.4237 34.3131C18.397 34.4172 18.3767 34.5229 18.363 34.6295C18.639 34.5657 18.9482 34.6851 19.238 34.5657C19.3059 34.5366 19.3684 34.4962 19.423 34.4463Z" fill="black"/>
<path d="M29.6616 22.7004C29.2207 22.8116 28.7649 22.851 28.3117 22.817C25.6754 22.6476 22.5892 20.596 21.4105 18.2029C21.2022 17.7983 21.0605 17.3623 20.9909 16.912L19.6769 9.97156C19.8468 10.6272 20.0856 11.2628 20.3891 11.8677C22.7935 16.7454 29.1205 20.9736 34.52 21.3067C35.3072 21.3663 36.0988 21.3225 36.8747 21.1762L29.6616 22.7004Z" fill="#FFC727"/>
<path opacity="0.5" d="M29.6616 22.7004C29.2207 22.8116 28.7649 22.851 28.3117 22.817C25.6754 22.6476 22.5892 20.596 21.4105 18.2029C21.2022 17.7983 21.0605 17.3623 20.9909 16.912L19.6769 9.97156C19.8468 10.6272 20.0856 11.2628 20.3891 11.8677C22.7935 16.7454 29.1205 20.9736 34.52 21.3067C35.3072 21.3663 36.0988 21.3225 36.8747 21.1762L29.6616 22.7004Z" fill="white"/>
</svg>
