<svg width="24" height="24" viewBox="0 0 24 24" fill="none" xmlns="http://www.w3.org/2000/svg">
<path d="M12 18V20.25" stroke="black" stroke-width="2" stroke-linecap="round" stroke-linejoin="round"/>
<path d="M8.625 14.25C9.24632 14.25 9.75 13.7463 9.75 13.125C9.75 12.5037 9.24632 12 8.625 12C8.00368 12 7.5 12.5037 7.5 13.125C7.5 13.7463 8.00368 14.25 8.625 14.25Z" fill="black"/>
<path d="M15.375 14.25C15.9963 14.25 16.5 13.7463 16.5 13.125C16.5 12.5037 15.9963 12 15.375 12C14.7537 12 14.25 12.5037 14.25 13.125C14.25 13.7463 14.7537 14.25 15.375 14.25Z" fill="black"/>
<path d="M13.5 16.5L12 18L10.5 16.5" stroke="black" stroke-width="2" stroke-linecap="round" stroke-linejoin="round"/>
<path d="M14.25 4.49995L19.4813 3.19683C19.5799 3.172 19.6825 3.16749 19.7829 3.18356C19.8833 3.19963 19.9794 3.23596 20.0653 3.29032C20.1513 3.34469 20.2253 3.41597 20.2828 3.49982C20.3403 3.58366 20.3802 3.67834 20.4 3.77808L21.9375 11.9906C22.0781 12.7593 21.0938 13.2093 20.6063 12.5906L14.25 4.49995Z" stroke="black" stroke-width="2" stroke-linecap="round" stroke-linejoin="round"/>
<path d="M9.75006 4.49995L4.51881 3.19683C4.4202 3.172 4.31757 3.16749 4.21716 3.18356C4.11675 3.19963 4.02065 3.23596 3.93472 3.29032C3.84878 3.34469 3.7748 3.41597 3.71727 3.49982C3.65974 3.58366 3.61986 3.67834 3.60006 3.77808L2.06256 11.9906C1.92193 12.7593 2.90631 13.2093 3.39381 12.5906L9.75006 4.49995Z" stroke="black" stroke-width="2" stroke-linecap="round" stroke-linejoin="round"/>
<path d="M9.75 4.5H14.25" stroke="black" stroke-width="2" stroke-linecap="round" stroke-linejoin="round"/>
<path d="M19.5 11.1844V17.25C19.5 18.0456 19.1839 18.8087 18.6213 19.3713C18.0587 19.9339 17.2956 20.25 16.5 20.25H7.5C6.70435 20.25 5.94129 19.9339 5.37868 19.3713C4.81607 18.8087 4.5 18.0456 4.5 17.25V11.1844" stroke="black" stroke-width="2" stroke-linecap="round" stroke-linejoin="round"/>
</svg>
