<svg width="24" height="21" viewBox="0 0 24 21" fill="none" xmlns="http://www.w3.org/2000/svg">
<path d="M10.3858 11.1882C11.1378 8.56972 12.9009 9.01051 13.5987 11.2318C13.8959 11.9941 14.2192 12.7386 14.5525 13.3681C15.0852 14.3739 15.8523 15.4798 16.6355 16.5042C17.5112 17.6496 16.4758 19.4715 15.0829 19.1863C13.8071 18.9252 12.6214 18.7072 12.0538 18.6691C11.4834 18.6308 10.2889 18.8304 9.00583 19.0982C7.6139 19.3888 6.5285 17.5877 7.38346 16.4258C8.12541 15.4175 8.85439 14.3393 9.37663 13.3681C9.72261 12.7247 10.0661 11.9643 10.3858 11.1882Z" stroke="#084236" stroke-width="2"/>
<path d="M18.4112 5.17828C18.1788 6.46196 16.9498 7.31419 15.6661 7.08178C14.3824 6.84937 13.5302 5.62033 13.7626 4.33664C13.995 3.05296 15.3623 1.2849 16.646 1.51731C17.9297 1.74972 18.6436 3.89459 18.4112 5.17828Z" stroke="#084236" stroke-width="2"/>
<path d="M10.4479 4.36487C10.5837 5.66234 9.64204 6.82424 8.34457 6.96006C7.04711 7.09587 5.8852 6.15416 5.74939 4.8567C5.61358 3.55923 6.25836 1.50411 7.55582 1.36829C8.85329 1.23248 10.3121 3.06741 10.4479 4.36487Z" stroke="#084236" stroke-width="2"/>
<path d="M6.13091 11.2393C6.3224 12.5297 5.43153 13.731 4.1411 13.9225C2.85068 14.114 1.64935 13.2231 1.45786 11.9327C1.26638 10.6423 2.0461 8.69194 3.33652 8.50045C4.62695 8.30897 5.93942 9.94885 6.13091 11.2393Z" stroke="#084236" stroke-width="2"/>
<path d="M22.6869 11.7315C22.556 13.0294 21.3976 13.9755 20.0996 13.8446C18.8017 13.7136 17.8556 12.5553 17.9865 11.2573C18.1175 9.95935 19.3518 8.25988 20.6498 8.39082C21.9478 8.52175 22.8178 10.4335 22.6869 11.7315Z" stroke="#084236" stroke-width="2"/>
</svg>
