<svg width="83" height="76" viewBox="0 0 83 76" fill="none" xmlns="http://www.w3.org/2000/svg">
<path d="M42.4008 75.638C64.8231 75.638 83 73.0479 83 69.8529C83 66.6578 64.8231 64.0677 42.4008 64.0677C19.9785 64.0677 1.80164 66.6578 1.80164 69.8529C1.80164 73.0479 19.9785 75.638 42.4008 75.638Z" fill="#EBEBEB"/>
<path d="M53.8307 32.1416H0V33.407H53.8307V32.1416Z" fill="#455A64"/>
<path d="M51.5845 33.4069H2.24426V68.3419H51.5845V33.4069Z" fill="#455A64"/>
<path d="M51.5825 33.409H2.24426V36.6281H51.5825V33.409Z" fill="#263238"/>
<path d="M28.4128 44.1797H25.4159V55.2137H28.4128V44.1797Z" fill="white"/>
<path d="M32.4294 51.195V48.1981H21.3954V51.195H32.4294Z" fill="white"/>
<path d="M31.5715 55.9898C30.9203 56.4694 30.8774 55.4048 30.0467 55.1475C29.2161 54.8901 28.5844 55.7578 28.3094 54.9954C28.0345 54.233 29.4657 51.9069 30.9008 52.3436C32.3358 52.7804 32.2188 55.5121 31.5715 55.9898Z" fill="#FFC727"/>
<path d="M29.0582 51.745C29.2746 52.2364 29.1713 52.757 28.8281 52.9149C28.4849 53.0729 28.0306 52.7921 27.8142 52.3027C27.5977 51.8133 27.6991 51.2907 28.0423 51.1328C28.3855 50.9749 28.8398 51.2556 29.0582 51.745Z" fill="#FFC727"/>
<path d="M30.9397 50.9691C30.9397 51.5053 30.6394 51.944 30.2631 51.944C29.8868 51.944 29.5807 51.5111 29.5787 50.9691C29.5768 50.427 29.879 49.9942 30.2534 49.9942C30.6277 49.9942 30.9358 50.4329 30.9397 50.9691Z" fill="#FFC727"/>
<path d="M32.7628 52.8759C32.3105 53.1625 32.1038 53.6558 32.3046 53.9698C32.5055 54.2837 33.0339 54.3129 33.4882 54.0263C33.9425 53.7397 34.1492 53.2464 33.9483 52.9325C33.7475 52.6185 33.2172 52.5893 32.7628 52.8759Z" fill="#FFC727"/>
<path d="M31.6358 51.1814C31.3336 51.624 31.3414 52.1563 31.6514 52.3669C31.9614 52.5775 32.4586 52.3903 32.7609 51.9458C33.0631 51.5012 33.0553 50.9709 32.7453 50.7603C32.4352 50.5497 31.938 50.7369 31.6358 51.1814Z" fill="#FFC727"/>
<path d="M27.3638 59.8036C27.202 60.5971 26.4513 59.8348 25.6675 60.2033C24.8837 60.5718 24.9909 61.6364 24.2753 61.2542C23.5597 60.8721 23.0625 58.1872 24.4196 57.5496C25.7767 56.912 27.5237 59.0158 27.3638 59.8036Z" fill="#FFC727"/>
<path d="M22.6511 58.3432C23.1405 58.5616 23.4154 59.0179 23.2614 59.3611C23.1073 59.7042 22.5867 59.8037 22.0915 59.5853C21.5962 59.3669 21.3272 58.9126 21.4812 58.5694C21.6352 58.2263 22.1617 58.1249 22.6511 58.3432Z" fill="#FFC727"/>
<path d="M23.5246 56.5046C23.8873 56.8946 23.9555 57.4288 23.6786 57.6745C23.4018 57.9202 22.8831 57.813 22.5204 57.4171C22.1578 57.0213 22.0895 56.4929 22.3684 56.2473C22.6472 56.0016 23.1639 56.1088 23.5246 56.5046Z" fill="#FFC727"/>
<path d="M26.1588 56.6956C26.0125 57.2123 26.188 57.7134 26.5487 57.8148C26.9094 57.9161 27.3287 57.5788 27.4651 57.0621C27.6016 56.5454 27.4339 56.0443 27.0752 55.9429C26.7164 55.8415 26.303 56.1789 26.1588 56.6956Z" fill="#FFC727"/>
<path d="M24.1855 56.1944C24.2596 56.7267 24.6204 57.1147 24.9928 57.0641C25.3652 57.0134 25.607 56.5396 25.5329 56.0073C25.4588 55.475 25.0961 55.0869 24.7237 55.1396C24.3513 55.1922 24.1115 55.6641 24.1855 56.1944Z" fill="#FFC727"/>
<path d="M53.0957 10.8962C52.8714 14.3182 51.5046 19.1362 50.5414 20.0604C48.886 21.6671 43.097 23.4044 40.028 23.6188C38.9458 23.6949 39.2929 19.3292 40.0065 18.3758C40.4355 17.8084 46.7431 17.4009 47.4724 16.6736C48.5779 15.5739 49.352 13.5129 51.2141 10.2626C52.1071 8.71635 53.3023 7.77848 53.0957 10.8962Z" fill="#C95F50"/>
<path d="M42.011 17.8708C42.011 17.8708 40.4297 17.2547 39.6887 17.1786C38.9478 17.1026 36.0855 17.8396 36.2103 18.4655C36.3682 19.2766 38.1055 19.1772 38.94 19.0173C38.94 19.0173 39.3066 20.8911 40.5681 21.09C41.8296 21.2889 42.011 17.8708 42.011 17.8708Z" fill="#C95F50"/>
<path d="M41.0555 23.459C40.4374 23.5975 37.5458 23.9894 36.7152 23.9172C35.8845 23.8451 33.5155 23.4688 33.5038 22.8273C33.4921 22.1858 34.1979 22.2423 34.1979 22.2423C34.1979 22.2423 33.223 21.9245 33.2698 21.2791C33.3166 20.6337 34.4105 20.7546 34.4105 20.7546C34.4105 20.7546 33.4356 20.3549 33.5272 19.7134C33.6188 19.0719 34.6971 19.38 34.6971 19.38C34.6971 19.38 33.7865 19.0563 34.0868 18.5611C34.4475 17.9664 36.06 18.7561 36.9823 18.7561C37.1909 18.7561 41.2251 18.5006 41.2251 18.5006L41.0555 23.459Z" fill="#C95F50"/>
<path d="M34.6016 19.3546C35.789 19.9395 36.4091 19.9785 37.6998 19.8323C37.7252 19.8323 37.7349 19.8674 37.7096 19.8732C36.4578 20.1287 35.672 20.1833 34.5704 19.4111C34.5197 19.3741 34.5489 19.3273 34.6016 19.3546Z" fill="#263238"/>
<path d="M34.3169 20.7079C35.6038 21.1973 36.2667 21.2538 37.6316 21.2012C37.6511 21.2012 37.655 21.2343 37.6316 21.2363C36.2979 21.4 35.5141 21.4312 34.2935 20.7761C34.2467 20.7469 34.2584 20.6845 34.3169 20.7079Z" fill="#263238"/>
<path d="M34.2682 22.2385C35.5473 22.6285 36.2804 22.7162 37.5985 22.4959C37.6047 22.4959 37.6107 22.4984 37.615 22.5028C37.6194 22.5071 37.6219 22.5131 37.6219 22.5193C37.6219 22.5255 37.6194 22.5315 37.615 22.5358C37.6107 22.5402 37.6047 22.5427 37.5985 22.5427C36.2765 22.8995 35.362 22.7884 34.2507 22.2775C34.1844 22.2424 34.1863 22.219 34.2682 22.2385Z" fill="#263238"/>
<path d="M36.3252 18.6743C37.0018 19.308 38.0976 19.0272 38.9263 18.9336C38.9906 18.9336 39.0179 18.9745 39.014 19.0252C39.2207 19.8052 39.7374 20.8327 40.5329 21.1213C40.5368 21.1226 40.5402 21.1251 40.5426 21.1284C40.545 21.1317 40.5463 21.1357 40.5463 21.1398C40.5463 21.1439 40.545 21.1479 40.5426 21.1513C40.5402 21.1546 40.5368 21.1571 40.5329 21.1583C39.638 20.9634 39.0472 19.9885 38.8756 19.1286C38.0254 19.2378 36.916 19.4698 36.3272 18.6801C36.3155 18.6762 36.3194 18.6704 36.3252 18.6743Z" fill="#263238"/>
<path d="M49.0946 13.7275L52.5711 15.9795C52.5711 15.9795 53.1717 12.8598 53.3179 10.8086C53.4642 8.7574 52.577 7.62846 51.0113 10.249C49.4456 12.8696 49.0946 13.7275 49.0946 13.7275Z" fill="#FFC727"/>
<path d="M52.5537 14.9245C51.6241 14.2835 50.6622 13.6906 49.6718 13.1482C49.6562 13.1482 49.6387 13.1619 49.6543 13.1736C50.0988 13.5031 52.2768 14.827 52.5439 14.9284C52.5517 14.944 52.5615 14.9323 52.5537 14.9245Z" fill="#263238"/>
<path d="M40.1663 70.7696C40.6148 70.9139 53.4115 70.7482 53.895 70.4323C54.0802 70.3153 54.1641 68.4493 54.2011 66.1914V66.1212C54.2011 65.6552 54.2148 65.1756 54.2148 64.6901C54.2148 64.6238 54.2148 64.5575 54.2148 64.4951L53.5928 57.8559L45.0331 57.9417L45.8832 64.5302L45.8929 64.7895L45.9456 66.1544V66.2948C45.9456 66.2948 41.071 68.5488 40.5816 68.9524C40.0922 69.356 39.7179 70.6312 40.1663 70.7696Z" fill="#C95F50"/>
<path d="M40.1664 70.7695C40.6148 70.9138 53.4115 70.7481 53.8951 70.4322C54.0803 70.3152 54.1641 68.4493 54.2012 66.1914V66.1212C54.2012 65.6552 54.2148 65.1755 54.2148 64.69C54.2148 64.6237 54.2148 64.5574 54.2148 64.495L45.8774 64.5184L45.8871 64.7777L45.9398 66.1426V66.283C45.9398 66.283 41.0652 68.537 40.5758 68.9406C40.0864 69.3442 39.7179 70.6311 40.1664 70.7695Z" fill="#EBEBEB"/>
<path d="M40.1644 70.7694C40.3964 70.8435 43.869 70.8357 47.2715 70.7694C47.9539 70.7558 48.6363 70.7402 49.2817 70.7226C51.7054 70.6564 53.7078 70.5569 53.8931 70.436C54.0783 70.3151 54.1621 68.5057 54.1992 66.2887C54.1992 66.2575 54.1992 66.2264 54.1992 66.1952C54.1992 66.164 54.1992 66.1464 54.1992 66.123L45.9514 66.1386V66.279C45.9514 66.279 41.0769 68.533 40.5875 68.9366C40.0981 69.3402 39.7159 70.631 40.1644 70.7694Z" fill="#A6A6A6"/>
<path d="M40.3049 70.2763C42.4614 70.1963 51.1654 70.0813 53.3043 70.1573C53.3219 70.1573 53.3219 70.169 53.3043 70.171C51.1693 70.2977 42.4633 70.3503 40.3049 70.3113C40.2561 70.3113 40.2561 70.2782 40.3049 70.2763Z" fill="#263238"/>
<path d="M45.0273 66.1775C45.8735 66.0079 46.9128 66.1249 47.5621 66.7196C47.5874 66.743 47.5621 66.78 47.527 66.7703C46.7146 66.5205 45.878 66.3577 45.0312 66.2848C45.0186 66.2829 45.0071 66.2766 44.9986 66.2671C44.9901 66.2576 44.9852 66.2455 44.9848 66.2328C44.9843 66.22 44.9883 66.2076 44.9961 66.1975C45.0038 66.1874 45.0149 66.1803 45.0273 66.1775Z" fill="#263238"/>
<path d="M44.4189 66.5541C45.2651 66.3844 46.3063 66.5014 46.9537 67.0981C46.979 67.1215 46.9537 67.1566 46.9186 67.1488C46.104 66.8967 45.2646 66.7332 44.415 66.6613C44.4026 66.6585 44.3915 66.6515 44.3838 66.6414C44.376 66.6313 44.372 66.6188 44.3725 66.6061C44.3729 66.5934 44.3778 66.5812 44.3863 66.5717C44.3948 66.5622 44.4063 66.556 44.4189 66.5541Z" fill="#263238"/>
<path d="M43.8106 66.9304C44.6568 66.7627 45.698 66.8797 46.3454 67.4744C46.3727 67.4978 46.3454 67.5348 46.3103 67.5251C45.4959 67.275 44.6574 67.1116 43.8087 67.0376C43.7962 67.035 43.7851 67.0281 43.7772 67.0182C43.7692 67.0083 43.765 66.9959 43.7653 66.9832C43.7655 66.9705 43.7702 66.9582 43.7784 66.9486C43.7867 66.939 43.7981 66.9325 43.8106 66.9304Z" fill="#263238"/>
<path d="M47.2754 70.7694C47.9578 70.7558 48.6403 70.7402 49.2857 70.7226C51.7093 70.6564 53.7117 70.5569 53.897 70.436C54.0822 70.3151 54.1661 68.5057 54.2031 66.2887C54.2031 66.2575 54.2031 66.2264 54.2031 66.1952C54.2031 66.164 54.2031 66.1464 54.2031 66.123C53.0625 66.9185 49.0809 69.5683 47.2754 70.7694Z" fill="#263238"/>
<path d="M45.3841 66.1698H54.599C54.599 66.1698 52.7447 44.6419 52.8168 44.2694C52.9085 43.7878 53.4525 41.6099 54.1817 38.7631C54.4079 37.8721 54.6536 36.9167 54.907 35.9261C55.5934 33.249 56.3519 30.3224 57.0109 27.7759C58.0014 23.9601 58.7657 20.9964 58.7657 20.9964H50.9606C50.9606 20.9964 50.05 23.8821 48.9035 27.6355C47.0337 33.7385 44.5359 42.1363 44.2903 44.1778C43.8906 47.473 45.3841 66.1698 45.3841 66.1698Z" fill="#FFC727"/>
<path d="M45.7916 64.5984C47.1994 64.5691 46.7958 64.5574 48.2035 64.5438C48.8918 64.5438 53.4193 64.497 54.0627 64.6042C54.0664 64.6042 54.0698 64.6056 54.0724 64.6082C54.0749 64.6108 54.0764 64.6142 54.0764 64.6179C54.0764 64.6215 54.0749 64.6249 54.0724 64.6275C54.0698 64.6301 54.0664 64.6315 54.0627 64.6315C53.4193 64.7387 48.8918 64.6997 48.2035 64.6919C46.7958 64.6802 47.1994 64.6685 45.7916 64.6393C45.7662 64.6374 45.7662 64.5984 45.7916 64.5984Z" fill="#263238"/>
<path d="M51.0814 42.9533C51.3837 41.6215 51.836 40.3152 52.2299 39.0088C53.0267 36.3518 53.83 33.6962 54.6399 31.0418C55.0441 29.7094 55.449 28.3823 55.8546 27.0603C56.0613 26.3908 56.2686 25.7221 56.4766 25.0539C56.6813 24.3988 56.9153 23.7514 57.1005 23.0904C57.1766 22.8233 57.2175 22.9696 57.12 23.3108C56.925 23.9991 56.7301 24.6874 56.5351 25.3717C56.1451 26.7314 55.7461 28.0885 55.3379 29.443C54.5385 32.1428 53.7325 34.8407 52.9201 37.5367C52.5146 38.8898 52.1077 40.2417 51.6995 41.5923C51.4941 42.2361 51.328 42.8918 51.2023 43.5558C51.0932 44.2495 51.0657 44.9536 51.1204 45.6538C51.2082 47.0635 51.372 48.4713 51.5104 49.879L51.9004 54.1082C52.1603 56.912 52.4203 59.7172 52.6803 62.5236C52.7115 62.8805 52.7427 63.2353 52.77 63.5921C52.77 63.7111 52.5984 63.7013 52.5867 63.5921C52.2825 60.8195 52.0505 58.0351 51.7892 55.2567C51.5279 52.4782 51.2706 49.7289 51.0093 46.9641C50.9449 46.2699 50.8709 45.5738 50.8689 44.8758C50.868 44.2291 50.9393 43.5842 51.0814 42.9533Z" fill="#263238"/>
<path d="M51.8478 20.9964C52.3898 25.1904 53.4232 33.056 54.1778 38.7631C55.9327 31.8491 58.7716 20.9964 58.7716 20.9964H51.8478Z" fill="#263238"/>
<path d="M49.9291 70.8981C50.3776 71.0444 63.1743 70.9254 63.6578 70.6115C63.8528 70.4945 63.9347 68.6285 63.9815 66.3726V66.3004C63.9932 65.8364 64.001 65.3567 64.003 64.8712C64.003 64.8049 64.003 64.7367 64.003 64.6762C64.0341 61.4181 63.7982 58.0468 63.7982 58.0468L55.4335 58.1014L55.6675 64.6782L55.6772 64.9375L55.724 66.3024V66.4428C55.724 66.4428 50.8495 68.6792 50.3503 69.0809C49.8511 69.4825 49.4807 70.7538 49.9291 70.8981Z" fill="#C95F50"/>
<path d="M49.9291 70.8981C50.3776 71.0443 63.1743 70.9254 63.6578 70.6115C63.8528 70.4945 63.9347 68.6285 63.9815 66.3725V66.3004C63.9932 65.8363 64.001 65.3567 64.0029 64.8712C64.0029 64.8049 64.0029 64.7366 64.0029 64.6762H55.6675L55.6772 64.9355L55.724 66.3004V66.4408C55.724 66.4408 50.8495 68.6772 50.3503 69.0789C49.8511 69.4806 49.4807 70.7538 49.9291 70.8981Z" fill="#EBEBEB"/>
<path d="M49.9292 70.8981C50.3776 71.0443 63.1743 70.9254 63.6579 70.6115C63.8528 70.4945 63.9347 68.6285 63.9815 66.3726V66.3004L55.726 66.2848V66.4252C55.726 66.4252 50.8514 68.6617 50.3523 69.0633C49.8531 69.465 49.4807 70.7538 49.9292 70.8981Z" fill="#A6A6A6"/>
<path d="M50.0695 70.401C52.226 70.3269 60.932 70.2372 63.069 70.3288C63.0865 70.3288 63.0865 70.3405 63.069 70.3425C60.9242 70.4614 52.228 70.4809 50.0695 70.4361C50.0247 70.4341 50.0247 70.4029 50.0695 70.401Z" fill="#263238"/>
<path d="M54.8056 66.3179C55.6538 66.1521 56.693 66.2711 57.3404 66.8716C57.3657 66.8931 57.3404 66.9301 57.3033 66.9204C56.4901 66.6667 55.6521 66.5006 54.8036 66.4251C54.7912 66.4225 54.7801 66.4156 54.7722 66.4057C54.7642 66.3958 54.76 66.3834 54.7603 66.3707C54.7605 66.358 54.7651 66.3458 54.7734 66.3361C54.7817 66.3265 54.7931 66.32 54.8056 66.3179Z" fill="#263238"/>
<path d="M54.1973 66.6924C55.0455 66.5267 56.0847 66.6476 56.7321 67.2462C56.7574 67.2696 56.7321 67.3047 56.697 67.2969C55.8834 67.0418 55.0447 66.8751 54.1954 66.7997C54.1829 66.797 54.1718 66.7902 54.1639 66.7802C54.156 66.7703 54.1518 66.7579 54.152 66.7452C54.1522 66.7325 54.1569 66.7203 54.1651 66.7107C54.1734 66.701 54.1848 66.6946 54.1973 66.6924Z" fill="#263238"/>
<path d="M53.587 67.0648C54.4351 66.8971 55.4744 67.018 56.1217 67.6166C56.1471 67.64 56.1217 67.6751 56.0847 67.6673C55.2715 67.4136 54.4335 67.2475 53.585 67.172C53.5726 67.1694 53.5614 67.1626 53.5535 67.1526C53.5456 67.1427 53.5414 67.1303 53.5416 67.1176C53.5419 67.1049 53.5465 67.0927 53.5548 67.083C53.5631 67.0734 53.5744 67.0669 53.587 67.0648Z" fill="#263238"/>
<path d="M51.2141 20.9964C51.2141 20.9964 51.3935 24.7342 52.2495 27.6921C52.3177 27.9377 52.3918 28.1776 52.4737 28.4096C53.257 28.7265 54.0101 29.1135 54.7238 29.5658C54.7238 29.5658 54.8135 32.5725 54.9051 35.9261C55.0046 39.6757 55.1001 43.8561 55.0865 44.7432C55.0085 48.0579 55.5018 66.3044 55.5018 66.3044L64.7147 66.3414C64.7147 66.3414 63.0495 45.9677 63.069 44.753C63.0866 42.8032 62.6225 34.1655 62.2637 27.8675C62.0454 23.9874 61.8738 20.9964 61.8738 20.9964H51.2141Z" fill="#FFC727"/>
<path d="M55.8156 64.6666C57.2234 64.6432 56.8198 64.6295 58.2276 64.6217C58.9159 64.6217 63.4433 64.5983 64.0868 64.7075C64.1004 64.7075 64.1004 64.7328 64.0868 64.7367C63.4414 64.8401 58.9159 64.7816 58.2256 64.7718C56.8179 64.7523 57.2234 64.7426 55.8156 64.7075C55.7903 64.7055 55.7903 64.6666 55.8156 64.6666Z" fill="#263238"/>
<path d="M61.0821 22.332C61.2518 27.4717 61.4312 32.6134 61.6671 37.7512C61.903 42.889 62.2091 48.0618 62.642 53.2055C62.8838 56.0795 63.11 60.1215 63.4219 62.9877C63.4219 63.0072 63.3946 63.0131 63.3927 62.9877C62.7219 57.8889 62.3476 51.5832 62.0181 46.4513C61.6885 41.3194 61.4643 36.1816 61.2888 31.0477C61.1894 28.1405 61.1153 25.2333 61.0275 22.3261C61.0158 22.2871 61.0802 22.291 61.0821 22.332Z" fill="#263238"/>
<path d="M52.0895 28.1873C53.0056 28.5703 53.8869 29.0315 54.7237 29.5659C54.73 29.5702 54.7344 29.5768 54.7361 29.5842C54.7379 29.5916 54.7369 29.5994 54.7333 29.6061C54.7297 29.6128 54.7238 29.618 54.7166 29.6206C54.7095 29.6233 54.7016 29.6232 54.6945 29.6205C53.8073 29.1895 52.8987 28.7723 52.0349 28.2926C52.021 28.2854 52.0105 28.2729 52.0057 28.2579C52.001 28.2429 52.0023 28.2266 52.0096 28.2127C52.0168 28.1987 52.0293 28.1882 52.0443 28.1835C52.0593 28.1787 52.0756 28.1801 52.0895 28.1873Z" fill="#263238"/>
<path d="M51.5378 24.0538C51.6119 24.4438 51.7074 24.8337 51.7912 25.2237C51.8751 25.6136 51.9316 25.9685 52.0291 26.3331C52.1053 26.688 52.2827 27.0131 52.54 27.269C52.6862 27.4036 52.8441 27.5225 52.9982 27.6454C53.082 27.7117 53.1717 27.776 53.2575 27.8403C53.2458 27.7896 53.238 27.7351 53.2283 27.6824C53.201 27.5316 53.1756 27.3815 53.1522 27.232C53.0957 26.9005 53.043 26.5671 52.9904 26.2337C52.8909 25.5766 52.7954 24.9156 52.6628 24.2663C52.6618 24.2631 52.6616 24.2597 52.6621 24.2564C52.6627 24.2531 52.664 24.2499 52.666 24.2472C52.668 24.2445 52.6706 24.2423 52.6736 24.2408C52.6766 24.2393 52.6799 24.2385 52.6833 24.2385C52.6866 24.2385 52.69 24.2393 52.693 24.2408C52.696 24.2423 52.6986 24.2445 52.7006 24.2472C52.7026 24.2499 52.7039 24.2531 52.7044 24.2564C52.705 24.2597 52.7048 24.2631 52.7038 24.2663C52.8656 24.9078 53.0469 25.5454 53.1893 26.1927C53.2614 26.5086 53.5149 28.0685 53.5149 28.1855C53.5149 28.3025 53.5363 28.4155 53.5402 28.5306C53.5548 28.6478 53.5548 28.7663 53.5402 28.8835C53.5381 28.889 53.5344 28.8938 53.5295 28.8971C53.5246 28.9005 53.5188 28.9022 53.5129 28.9022C53.507 28.9022 53.5012 28.9005 53.4964 28.8971C53.4915 28.8938 53.4878 28.889 53.4856 28.8835C53.4375 28.7745 53.4034 28.6599 53.3842 28.5423C53.3569 28.4292 53.3316 28.3161 53.3102 28.2011C53.3102 28.1601 53.2984 28.1192 53.2926 28.0763C53.1366 27.9827 52.9923 27.8579 52.848 27.7526C52.7038 27.6473 52.5341 27.5303 52.3859 27.4075C52.1144 27.1765 51.9181 26.8696 51.8224 26.5262C51.7278 26.156 51.6658 25.7782 51.6372 25.3972C51.5885 24.9507 51.5514 24.5022 51.489 24.0577C51.4929 24.0362 51.5319 24.0265 51.5378 24.0538Z" fill="#263238"/>
<path d="M62.1877 26.6744L61.2284 26.6568H61.1446L57.319 26.5847L56.1862 26.5632H56.0126L53.2517 26.5087H53.0372L52.5634 26.4989H52.0701H51.8166L49.2721 26.4521C50.247 23.3031 50.9606 21.016 50.9606 21.016H61.8562C61.8562 21.016 62.0005 23.3889 62.1877 26.6744Z" fill="#263238"/>
<path d="M36.8361 13.5597C36.8361 13.5597 39.2636 17.1298 41.5936 18.1477C43.6721 19.0524 47.1058 18.6585 48.5642 18.3875C48.5642 18.3875 44.9454 15.8254 42.4496 14.7842C39.9538 13.743 36.8361 13.5597 36.8361 13.5597Z" fill="#DBDBDB"/>
<path d="M49.042 13.5597C48.2991 15.4315 45.7858 16.8743 45.2164 17.4495C44.6471 18.0247 44.1245 20.5478 43.6995 21.591C43.2744 22.6341 42.0109 26.4519 40.1586 27.417C38.3063 28.3822 33.4044 29.4058 32.6596 29.673C31.9148 29.9401 28.7248 31.383 28.6293 31.4707C28.5338 31.5585 23.7821 32.6854 23.2205 29.4858C22.8032 27.107 25.0475 23.6032 26.5742 23.1625C26.7945 23.1001 27.1591 22.989 27.6154 22.8408C29.0934 22.3689 31.6106 21.5208 33.9133 20.6258C35.8982 19.8595 37.7213 19.0659 38.5773 18.4518C40.7338 16.9172 40.6383 13.3822 41.8549 12.6023C43.0716 11.8224 44.532 11.9043 45.0682 11.5981C45.8482 11.1516 47.4977 8.96002 47.952 9.05167C48.6403 9.19985 49.5333 12.3293 49.042 13.5597Z" fill="#FFC727"/>
<path d="M43.6332 13.7528C43.9471 13.1678 45.0136 13.8074 44.7212 14.3377C44.4287 14.8681 43.3758 14.2402 43.6332 13.7528Z" fill="#263238"/>
<path d="M48.6715 10.4906C48.9406 10.282 48.6715 9.04774 48.2718 8.74942C47.8721 8.4511 46.4526 10.2001 46.5949 10.5862C46.7373 10.9722 48.3771 10.7148 48.6715 10.4906Z" fill="#263238"/>
<path d="M41.3636 13.1543C41.3636 12.9593 40.4881 13.7977 39.8973 14.8545C39.6146 15.4104 39.4287 16.0105 39.3475 16.6288C39.3377 17.1436 40.9424 19.8967 42.0636 20.0157C42.8298 20.0956 43.0248 17.633 42.9098 17.091C42.7947 16.5489 41.385 14.8097 41.3636 13.1543Z" fill="#FFC727"/>
<path opacity="0.1" d="M41.3636 13.1543C41.3636 12.9593 40.4881 13.7977 39.8973 14.8545C39.6146 15.4104 39.4287 16.0105 39.3475 16.6288C39.3377 17.1436 40.9424 19.8967 42.0636 20.0157C42.8298 20.0956 43.0248 17.633 42.9098 17.091C42.7947 16.5489 41.385 14.8097 41.3636 13.1543Z" fill="black"/>
<path d="M42.206 15.6793C42.1631 15.6091 42.1221 15.5369 42.0831 15.4648C42.0441 15.3926 42.048 15.3731 42.0324 15.3264C41.9934 15.2055 41.9544 15.0826 41.9271 14.9598C41.9271 14.95 41.9076 14.9598 41.9096 14.9598C41.9249 15.0518 41.945 15.1429 41.97 15.2328C41.8593 14.9952 41.7963 14.7381 41.7848 14.4762C41.7848 14.4567 41.7575 14.4587 41.7555 14.4762C41.6717 15.4024 42.4029 16.0653 42.7188 16.8667C42.8692 17.3099 42.91 17.7829 42.8377 18.2452C42.8144 18.7283 42.702 19.203 42.5062 19.6452C42.5044 19.6486 42.504 19.6525 42.5051 19.6562C42.5062 19.6598 42.5087 19.6629 42.5121 19.6647C42.5154 19.6665 42.5194 19.6669 42.523 19.6658C42.5267 19.6647 42.5298 19.6622 42.5316 19.6589C42.6996 19.3493 42.8217 19.0169 42.8942 18.6722C42.9801 18.3168 43.0207 17.9519 43.0151 17.5862C42.9976 16.8531 42.5745 16.2837 42.206 15.6793Z" fill="#263238"/>
<path d="M24.6985 25.249C23.632 26.3818 22.7175 28.8172 23.3492 30.1586C23.6904 30.882 24.9988 31.4202 26.5274 31.4182C26.7575 31.4182 26.933 32.0636 27.1377 32.0851C27.75 32.1494 31.7393 32.1377 32.5972 32.0851C33.4551 32.0324 32.297 30.9678 31.7822 30.7202C31.2674 30.4726 29.846 30.1996 29.7661 30.1508C29.6861 30.1021 30.9106 27.3353 29.8246 26.5495C28.7385 25.7637 25.4628 24.4379 24.6985 25.249Z" fill="#FFC727"/>
<path d="M29.7914 30.1294C29.9103 29.7219 30.0195 29.3104 30.1307 28.901C30.2605 28.505 30.3397 28.0943 30.3666 27.6784C30.3802 27.3285 30.2736 26.9844 30.0644 26.7035C29.8323 26.4111 29.4619 26.2453 29.1343 26.0815L29.0349 26.0367C28.8242 25.8816 28.6034 25.7409 28.3739 25.6155C28.3641 25.6155 28.3563 25.6253 28.3739 25.6331C28.5143 25.7364 28.6605 25.8281 28.8087 25.9295C28.4987 25.7988 28.1828 25.6857 27.8689 25.5648C27.8513 25.5648 27.8435 25.5882 27.8689 25.5941C28.2393 25.7267 29.5984 26.452 29.8538 26.7074C30.4056 27.2612 30.195 28.1327 30.0234 28.7976C29.9103 29.2383 29.7973 29.7355 29.692 30.1781C29.692 30.1957 30.8619 30.4452 30.9028 30.4335V30.4199C30.5391 30.2987 30.1679 30.2016 29.7914 30.1294Z" fill="#263238"/>
<g opacity="0.1">
<path d="M33.496 23.7924C33.1256 24.1941 32.6342 24.393 32.1526 24.6289C31.4909 24.9578 30.8732 25.3685 30.3139 25.8515C29.5749 26.4754 28.6644 26.9453 27.8825 26.0893C27.1006 25.2334 27.1708 23.9543 27.6154 22.8409C29.0933 22.3691 31.6105 21.5209 33.9133 20.6259C34.3656 21.6203 34.1941 23.0457 33.496 23.7924Z" fill="black"/>
<path d="M37.4698 22.2189C37.0545 22.7571 36.0172 22.9813 35.52 22.4022C35.2392 22.0727 35.4479 21.6886 35.6136 21.3532C35.6638 21.2524 35.7212 21.1553 35.7852 21.0627C35.8801 20.8564 36.0086 20.6673 36.1654 20.5031C36.271 20.3647 36.4245 20.2706 36.5957 20.2393C36.7669 20.2079 36.9437 20.2415 37.0916 20.3334C37.7604 20.6864 37.9163 21.6554 37.4698 22.2189Z" fill="black"/>
</g>
<path d="M25.6051 23.7574C24.1194 25.1223 23.0216 27.3354 21.7737 27.4016C20.5258 27.4679 19.7167 25.9237 19.9604 24.3638C20.0286 23.9271 18.6462 25.8457 18.8958 27.271C19.1454 28.6963 20.3191 29.5348 21.6138 29.6108C22.9085 29.6868 24.2246 28.6983 24.8856 27.6064C25.5466 26.5145 25.6051 23.7574 25.6051 23.7574Z" fill="#FFC727"/>
<path d="M36.8361 13.5597C36.8361 13.5597 39.6925 17.7518 42.3853 18.3933C45.078 19.0348 48.5642 18.3933 48.5642 18.3933L43.4518 22.1799C43.4518 22.1799 39.5522 22.4919 37.0973 19.2844L36.8361 13.5597Z" fill="#EBEBEB"/>
<path d="M37.3314 25.3678C37.074 26.3251 37.9475 29.9557 38.24 30.3437C38.5325 30.7317 40.4121 32.1571 40.7358 32.1571H43.8107C44.2006 32.1571 43.448 31.3771 42.9761 31.112C42.5043 30.8468 41.6736 30.8624 41.5138 30.6693C41.3539 30.4763 40.7689 28.6688 41.0283 28.2106C41.2876 27.7524 42.4282 25.824 42.7324 24.0653C43.0366 22.3066 37.9514 23.0806 37.3314 25.3678Z" fill="#FFC727"/>
<path d="M37.2865 25.1708C37.2856 25.1687 37.2841 25.167 37.2822 25.1657C37.2803 25.1645 37.2781 25.1638 37.2758 25.1638C37.2735 25.1638 37.2713 25.1645 37.2694 25.1657C37.2675 25.167 37.266 25.1687 37.2651 25.1708C37.2244 25.7018 37.2277 26.2353 37.2748 26.7658C37.2534 26.7112 37.2339 26.6546 37.2144 26.5961C37.1716 26.4635 37.1384 26.328 37.1149 26.1906C37.1149 26.1672 37.072 26.173 37.0759 26.1906C37.093 26.334 37.1231 26.4756 37.1656 26.6137C37.1869 26.6847 37.2123 26.7543 37.2417 26.8223C37.2534 26.8516 37.267 26.8789 37.2807 26.9081C37.2845 26.9163 37.289 26.9242 37.2943 26.9315C37.3158 27.1401 37.3431 27.3468 37.384 27.5516C37.438 27.8205 37.5116 28.0851 37.6043 28.3432C37.6043 28.3705 37.6628 28.3666 37.6589 28.3334C37.467 27.2883 37.3426 26.2319 37.2865 25.1708Z" fill="#263238"/>
<path d="M62.8312 24.6211C62.8039 24.6582 49.3774 25.8709 49.2351 25.7442C49.0401 25.5648 50.6467 12.9826 51.803 9.31111C52.2807 7.79415 54.7765 8.12952 55.2522 8.51753C57.6778 10.4966 58.3719 12.0799 59.0719 13.5227C59.8225 15.0099 60.4688 16.5475 61.0062 18.1243C62.0337 21.244 62.9306 24.4846 62.8312 24.6211Z" fill="#FFC727"/>
<path d="M51.2297 11.495C51.1283 11.8732 51.0464 12.2573 50.9704 12.6434C50.9801 12.4094 50.9899 12.1774 50.9918 11.9434C50.9909 11.9413 50.9894 11.9396 50.9875 11.9383C50.9856 11.9371 50.9834 11.9364 50.9811 11.9364C50.9788 11.9364 50.9766 11.9371 50.9747 11.9383C50.9728 11.9396 50.9713 11.9413 50.9704 11.9434C50.947 12.2476 50.9372 12.5537 50.9275 12.8579C50.908 12.9515 50.8904 13.0529 50.8729 13.1367C50.8202 13.4058 50.6233 14.5698 50.6233 14.8097C50.6233 14.8292 50.6486 14.835 50.6525 14.8097C50.7091 14.5347 50.7637 14.2559 50.8222 13.9829C50.8807 13.71 50.9372 13.435 50.9899 13.1582C51.0951 12.6083 51.2043 12.0546 51.2706 11.4969C51.2695 11.4925 51.267 11.4885 51.2634 11.4856C51.2598 11.4827 51.2555 11.481 51.2509 11.4808C51.2463 11.4806 51.2418 11.4819 51.238 11.4844C51.2341 11.487 51.2312 11.4907 51.2297 11.495Z" fill="#263238"/>
<path opacity="0.1" d="M54.4854 14.5255L56.8901 14.3155L56.8562 13.927L54.4515 14.137L54.4854 14.5255Z" fill="#263238"/>
<path d="M51.8029 9.31108C51.8458 9.54936 51.9111 9.78306 51.9978 10.0091C52.079 10.2347 52.1802 10.4527 52.3001 10.6604C52.4116 10.8649 52.5588 11.0479 52.7349 11.2005C52.8175 11.2676 52.9152 11.3138 53.0195 11.335C53.1233 11.3379 53.2263 11.3159 53.3198 11.2707C53.7454 11.0644 54.1182 10.7636 54.4098 10.3913C54.4897 10.3016 54.5619 10.1963 54.6379 10.1105C54.7139 10.0247 54.7802 9.91553 54.8465 9.81609C54.9128 9.71665 54.983 9.6211 55.0415 9.51386C55.1 9.40662 55.1682 9.30718 55.2365 9.20384C55.0556 9.66079 54.8157 10.0921 54.5229 10.4868C54.2355 10.9026 53.8434 11.2349 53.3861 11.45C53.263 11.5168 53.1217 11.5423 52.983 11.5226C52.8443 11.5029 52.7156 11.4392 52.6159 11.3408C52.4262 11.1699 52.273 10.9623 52.1655 10.7306C51.9461 10.2882 51.8225 9.80448 51.8029 9.31108Z" fill="#263238"/>
<path d="M46.0704 25.0695C43.9159 25.0695 41.8607 23.7163 41.7671 23.654C41.7511 23.6433 41.7374 23.6297 41.7267 23.6137C41.716 23.5978 41.7085 23.5799 41.7047 23.561C41.7009 23.5422 41.7008 23.5228 41.7045 23.504C41.7082 23.4851 41.7156 23.4672 41.7262 23.4512C41.7368 23.4352 41.7505 23.4214 41.7664 23.4107C41.7824 23.4 41.8003 23.3925 41.8191 23.3887C41.8379 23.3849 41.8573 23.3848 41.8762 23.3885C41.895 23.3922 41.913 23.3996 41.929 23.4102C41.9543 23.4278 44.3604 25.011 46.5969 24.7478C47.794 24.6055 48.9893 22.9481 50.0558 19.9532C50.8515 17.6312 51.4419 15.2439 51.8204 12.8188C51.8276 12.781 51.8489 12.7474 51.8801 12.7249C51.9113 12.7024 51.95 12.6927 51.9881 12.6979C52.0071 12.7005 52.0253 12.7069 52.0418 12.7167C52.0582 12.7265 52.0725 12.7396 52.0838 12.7551C52.0951 12.7705 52.1032 12.7881 52.1075 12.8068C52.1118 12.8254 52.1123 12.8448 52.109 12.8636C52.0915 12.9806 50.2703 24.6094 46.632 25.0383C46.4455 25.0594 46.258 25.0698 46.0704 25.0695Z" fill="#263238"/>
<path d="M42.9312 24.1356C43.0507 23.8739 43.0899 23.5826 43.0438 23.2985C42.9977 23.0145 42.8684 22.7506 42.6723 22.54C42.4762 22.3295 42.222 22.1819 41.942 22.1158C41.662 22.0497 41.3686 22.0682 41.0991 22.1689C40.8295 22.2695 40.5959 22.4479 40.4277 22.6814C40.2596 22.9148 40.1644 23.1929 40.1543 23.4805C40.1442 23.768 40.2197 24.0521 40.371 24.2968C40.5224 24.5415 40.743 24.7358 41.0048 24.8551C41.3557 25.015 41.7557 25.0291 42.1169 24.8941C42.4782 24.7592 42.771 24.4864 42.9312 24.1356Z" fill="#A6A6A6"/>
<path d="M42.4009 23.8958C42.4718 23.7385 42.4947 23.5637 42.4665 23.3934C42.4384 23.2231 42.3606 23.0649 42.2428 22.9387C42.1251 22.8126 41.9727 22.724 41.8047 22.6842C41.6368 22.6444 41.4608 22.6551 41.299 22.715C41.1371 22.7749 40.9966 22.8813 40.895 23.0208C40.7934 23.1603 40.7353 23.3268 40.7281 23.4992C40.7208 23.6716 40.7647 23.8424 40.8542 23.99C40.9436 24.1375 41.0748 24.2554 41.231 24.3287C41.3361 24.378 41.4499 24.4058 41.5659 24.4107C41.6819 24.4156 41.7977 24.3974 41.9066 24.3571C42.0154 24.3168 42.1152 24.2553 42.2001 24.1761C42.2849 24.0969 42.3532 24.0016 42.4009 23.8958Z" fill="#EBEBEB"/>
<path d="M56.9758 11.5125C57.7557 16.5587 57.8318 20.8717 57.044 21.5463C55.1391 23.1569 50.9996 26.3156 49.3344 27.2164C48.7163 27.5479 46.7119 22.5505 47.3612 22.1742C49.3929 21.0043 53.2107 18.3896 53.2809 18.3252C53.5773 18.0367 54.3416 14.0103 54.9987 10.7853C55.3847 8.89199 56.6346 9.3268 56.9758 11.5125Z" fill="#C95F50"/>
<path d="M40.9795 24.5217C40.9798 24.6914 41.0319 24.8569 41.1287 24.9963C41.2256 25.1356 41.3626 25.2421 41.5215 25.3016C41.3586 25.5412 41.2842 25.8301 41.311 26.1186C41.3851 26.6236 42.2079 26.7308 42.2079 26.7308C42.0909 27.0147 42.0617 27.3271 42.124 27.6277C42.243 28.1035 43.06 28.3316 43.06 28.3316C43.0983 28.651 43.2481 28.9465 43.4831 29.1662C43.9023 29.5269 45.39 29.326 46.1894 29.0823C46.9888 28.8386 49.0264 27.3957 49.4417 27.1598L47.917 22.024C47.917 22.024 44.0173 22.1 43.1243 22.5212C42.3678 22.8741 41.0048 23.8685 40.9795 24.5217Z" fill="#C95F50"/>
<path d="M41.5312 25.212C42.2468 24.6426 43.0911 24.315 43.9139 23.9407C43.9157 23.9392 43.9178 23.9382 43.9201 23.9377C43.9223 23.9372 43.9247 23.9372 43.927 23.9377C43.9292 23.9382 43.9314 23.9392 43.9332 23.9406C43.935 23.942 43.9365 23.9438 43.9376 23.9459C43.9386 23.948 43.9392 23.9503 43.9392 23.9526C43.9392 23.9549 43.9388 23.9572 43.9378 23.9593C43.9368 23.9614 43.9354 23.9633 43.9337 23.9648C43.9319 23.9663 43.9298 23.9674 43.9275 23.968C43.1028 24.3326 42.3677 24.8551 41.5546 25.249C41.5497 25.2521 41.5437 25.2531 41.5381 25.2519C41.5324 25.2506 41.5275 25.2471 41.5244 25.2422C41.5213 25.2373 41.5203 25.2313 41.5215 25.2257C41.5228 25.22 41.5263 25.2151 41.5312 25.212Z" fill="#263238"/>
<path d="M42.2059 26.6625C42.3811 26.5484 42.5705 26.4579 42.7694 26.3934C42.9748 26.3141 43.1815 26.2361 43.3894 26.1594C43.8048 26.0112 44.224 25.8708 44.6471 25.7441C44.6666 25.7441 44.6802 25.7655 44.6607 25.7733C44.2454 25.9215 43.834 26.0775 43.4265 26.2452C43.2218 26.3271 43.019 26.4129 42.8162 26.5006C42.6296 26.5936 42.4335 26.6662 42.2312 26.7171C42.2245 26.7182 42.2176 26.7171 42.2115 26.7139C42.2054 26.7107 42.2006 26.7056 42.1977 26.6994C42.1948 26.6932 42.1941 26.6862 42.1956 26.6796C42.197 26.6729 42.2007 26.6669 42.2059 26.6625Z" fill="#263238"/>
<path d="M43.0775 28.3277C43.2368 28.2271 43.4122 28.1545 43.5961 28.1132L44.1674 27.9182C44.5476 27.7856 44.9279 27.6531 45.3042 27.5068C45.3237 27.5068 45.3354 27.5283 45.3178 27.5361C44.9278 27.6862 44.5574 27.8402 44.1752 27.9865C43.9802 28.0586 43.7989 28.1308 43.6098 28.199C43.4446 28.2796 43.2663 28.3298 43.0833 28.3472C43.0813 28.3467 43.0794 28.3457 43.0779 28.3443C43.0764 28.3429 43.0753 28.3411 43.0747 28.3392C43.0741 28.3372 43.0741 28.3351 43.0745 28.3331C43.075 28.331 43.076 28.3292 43.0775 28.3277Z" fill="#263238"/>
<path d="M53.8854 15.2737L57.863 16.4183C57.863 16.4183 57.5374 13.2634 57.0831 11.2532C56.6288 9.24291 55.453 8.42203 54.7121 11.3838C53.9712 14.3456 53.8854 15.2737 53.8854 15.2737Z" fill="#FFC727"/>
<path d="M54.6575 11.6412C54.6575 11.6295 54.6419 11.6236 54.64 11.6412C54.5386 11.983 54.4417 12.3256 54.3494 12.6687C54.3494 12.6336 54.3494 12.5966 54.3494 12.5615C54.3592 12.3958 54.365 12.2281 54.3631 12.0604C54.3631 12.0428 54.3358 12.0428 54.3338 12.0604C54.3221 12.2125 54.3163 12.3646 54.3143 12.5166C54.3143 12.5927 54.3143 12.6687 54.3143 12.7448V12.7818C54.2539 13.008 54.1973 13.2361 54.1466 13.4643C53.9951 14.0646 53.8831 14.6743 53.8113 15.2893C53.8113 15.3127 54.0063 15.3497 54.0784 15.3653C54.0979 15.3653 54.0999 15.3439 54.0784 15.3361C54.0102 15.301 53.9712 15.2971 53.901 15.2639C54.0589 14.679 54.1505 14.0687 54.2753 13.474C54.4001 12.8793 54.5269 12.2495 54.6575 11.6412Z" fill="#263238"/>
<path d="M57.705 14.48C57.6699 14.2071 57.6329 13.9341 57.5919 13.6631C57.6095 13.4505 57.6309 13.236 57.6309 13.0235C57.6309 13.0118 57.6114 13.0079 57.6095 13.0235C57.5861 13.1815 57.5744 13.3433 57.5666 13.5032C57.5178 13.2088 57.4652 12.9182 57.4008 12.6219C57.4008 12.6082 57.3774 12.6121 57.3794 12.6219C57.4359 13.2516 57.5198 13.8775 57.5958 14.5054C57.6719 15.1332 57.7401 15.7591 57.8278 16.3753C57.7245 16.3753 57.6329 16.3304 57.5334 16.3187C57.5304 16.3198 57.5279 16.3218 57.526 16.3244C57.5242 16.327 57.5233 16.3302 57.5233 16.3333C57.5233 16.3365 57.5242 16.3396 57.526 16.3422C57.5279 16.3449 57.5304 16.3469 57.5334 16.348C57.6533 16.4003 57.78 16.4351 57.9097 16.4513C57.8746 15.8137 57.7869 15.1157 57.705 14.48Z" fill="#263238"/>
<path d="M57.4983 15.5194C56.4382 15.1306 55.3585 14.7974 54.2636 14.5211C54.248 14.5211 54.2343 14.5426 54.2519 14.5484C54.7666 14.757 57.2059 15.496 57.4925 15.537L57.4983 15.5194Z" fill="#263238"/>
<path d="M52.9709 10.6193C53.5558 10.7051 54.6497 9.64442 55.067 8.7241C55.0942 8.65976 54.9539 8.02997 54.8193 7.25784C54.7394 6.78793 54.6614 6.26148 54.6243 5.77792L51.6431 6.75283C51.8626 7.34497 52.0087 7.96183 52.0779 8.58957C52.0835 8.65444 52.0835 8.71968 52.0779 8.78455C52.0779 8.78455 52.0779 8.80405 52.0779 8.8177C52.0369 9.19791 52.423 10.5374 52.9709 10.6193Z" fill="#C95F50"/>
<path d="M54.406 5.84036C54.4157 6.56375 54.2812 8.63641 52.382 8.80214C52.2782 8.81076 52.1739 8.81076 52.0701 8.80214C52.0701 8.79044 52.0701 8.77874 52.0701 8.76899C52.0747 8.70408 52.0747 8.63892 52.0701 8.57401C52.0023 7.94641 51.8576 7.32953 51.6392 6.73728L54.406 5.84036Z" fill="#263238"/>
<path d="M54.012 1.77495C54.6437 2.71086 55.0162 5.85982 54.4858 6.75089C53.7176 8.04167 52.0037 8.66952 50.7929 7.64196C49.623 6.6456 49.2057 2.53343 49.8394 1.67746C50.7734 0.415923 53.078 0.394475 54.012 1.77495Z" fill="#C95F50"/>
<path d="M54.4898 6.75089C53.8756 7.7843 52.655 8.39264 51.5651 8.06702C51.4822 8.04176 51.4008 8.01181 51.3214 7.97733C51.1293 7.89168 50.9507 7.77872 50.791 7.64196C49.6211 6.6456 49.2039 2.53343 49.8395 1.67746C50.7735 0.415923 53.0762 0.394475 54.0102 1.77495C54.6458 2.72061 55.0163 5.85982 54.4898 6.75089Z" fill="#C95F50"/>
<path d="M51.76 4.49699C51.76 4.49699 51.7776 4.49699 51.7795 4.51454C51.799 4.72707 51.8556 4.9669 52.0564 5.0137V5.0254C51.8185 5.0215 51.7444 4.70173 51.76 4.49699Z" fill="#263238"/>
<path d="M51.9219 4.25326C52.2592 4.18502 52.3703 4.86551 52.0584 4.9279C51.7464 4.99029 51.6392 4.30981 51.9219 4.25326Z" fill="#263238"/>
<path d="M50.5901 4.7173C50.5901 4.7173 50.5764 4.73095 50.5784 4.73875C50.6193 4.94933 50.631 5.19696 50.4517 5.2964C50.4517 5.2964 50.4517 5.31005 50.4517 5.3081C50.6895 5.2379 50.672 4.91033 50.5901 4.7173Z" fill="#263238"/>
<path d="M50.3737 4.52828C50.0306 4.55753 50.1163 5.24192 50.4342 5.21462C50.752 5.18732 50.6623 4.50488 50.3737 4.52828Z" fill="#263238"/>
<path d="M52.15 3.89072C52.0563 3.87872 51.9632 3.8618 51.8712 3.84002C51.7704 3.83656 51.6736 3.7995 51.5963 3.73473C51.5765 3.70938 51.5658 3.67816 51.5658 3.64601C51.5658 3.61387 51.5765 3.58265 51.5963 3.5573C51.6412 3.5112 51.6976 3.478 51.7597 3.4612C51.8218 3.44439 51.8872 3.44458 51.9492 3.46176C52.0804 3.47677 52.2013 3.54001 52.2885 3.63919C52.3074 3.66326 52.3188 3.69236 52.3213 3.72286C52.3238 3.75337 52.3172 3.78393 52.3025 3.81074C52.2877 3.83755 52.2654 3.85943 52.2383 3.87365C52.2112 3.88787 52.1805 3.89381 52.15 3.89072Z" fill="#263238"/>
<path d="M50.0559 4.22785C50.1444 4.19501 50.231 4.15725 50.3152 4.11476C50.412 4.08683 50.4969 4.02792 50.557 3.94708C50.5707 3.91809 50.5745 3.8854 50.5678 3.85405C50.5611 3.82269 50.5443 3.79441 50.52 3.77354C50.4652 3.73949 50.4024 3.72064 50.338 3.71892C50.2736 3.71721 50.2098 3.7327 50.1534 3.76379C50.03 3.81032 49.928 3.90052 49.8668 4.01727C49.8541 4.04461 49.8498 4.07505 49.8543 4.10484C49.8587 4.13462 49.8718 4.16244 49.892 4.18485C49.9121 4.20726 49.9384 4.22328 49.9675 4.23092C49.9966 4.23856 50.0274 4.23749 50.0559 4.22785Z" fill="#263238"/>
<path d="M52.0017 5.81523C51.9609 5.90592 51.902 5.98729 51.8285 6.05435C51.7551 6.12141 51.6687 6.17275 51.5747 6.2052C51.4925 6.23466 51.4065 6.25238 51.3193 6.25784C51.3025 6.25976 51.2855 6.25976 51.2686 6.25784H51.2218C51.2123 6.25776 51.203 6.25519 51.1948 6.25041C51.1866 6.24562 51.1798 6.23877 51.175 6.23055C51.1741 6.22343 51.1741 6.21621 51.175 6.2091V6.19155C51.1438 6.02971 51.1185 5.78014 51.1185 5.78014C51.0658 5.81913 50.7851 6.00437 50.7753 5.91857C50.6755 5.18402 50.6507 4.44121 50.7012 3.70163C50.7012 3.69646 50.7033 3.6915 50.7069 3.68784C50.7106 3.68418 50.7155 3.68213 50.7207 3.68213C50.7259 3.68213 50.7308 3.68418 50.7345 3.68784C50.7382 3.6915 50.7402 3.69646 50.7402 3.70163C50.8357 4.38016 50.8124 5.0665 50.8981 5.75479C50.998 5.687 51.107 5.63382 51.2218 5.59685C51.2452 5.59685 51.2589 6.08041 51.2784 6.1506C51.4135 6.14241 51.5457 6.10711 51.6669 6.04682C51.7882 5.98653 51.8961 5.90247 51.9842 5.79963C51.9939 5.78404 52.0115 5.79574 52.0017 5.81523Z" fill="#263238"/>
<path d="M51.4012 6.1681C51.5107 6.27068 51.6452 6.34264 51.7912 6.37673C51.8704 6.39361 51.9528 6.38543 52.0271 6.35333C52.187 6.28119 52.1656 6.12716 52.1149 6.00042C52.0865 5.93124 52.0499 5.86576 52.0057 5.80544C51.8488 5.9886 51.6367 6.11587 51.4012 6.1681Z" fill="#263238"/>
<path d="M51.7854 6.37659C51.8646 6.39347 51.947 6.38529 52.0213 6.35319C52.1812 6.28105 52.1598 6.12701 52.1091 6.00027C52.0198 6.01565 51.9387 6.06162 51.8796 6.13029C51.8206 6.19895 51.7873 6.28604 51.7854 6.37659Z" fill="#FF9ABB"/>
<path d="M54.5697 4.4171C54.5697 4.4171 54.9597 2.46728 54.5424 1.56451C54.3475 1.15895 53.6767 1.08095 53.6767 1.08095C53.6593 0.893615 53.5898 0.71489 53.4761 0.564997C53.3624 0.415104 53.209 0.300025 53.0333 0.23278C52.3684 -0.0557937 51.2043 0.480408 51.2043 0.480408C51.2043 0.480408 50.0189 -0.365815 49.0751 0.480408C48.1314 1.32663 49.3013 2.31519 49.3013 2.31519C49.3013 2.31519 49.1063 3.03662 50.2528 3.13021C51.372 3.22186 53.1873 2.08511 53.1873 2.08511C53.3386 2.79536 53.5956 3.4789 53.9497 4.11292C54.015 4.21586 54.1074 4.29875 54.2168 4.35243C54.3263 4.40611 54.4484 4.42849 54.5697 4.4171Z" fill="#263238"/>
<path d="M51.0191 0.564245C51.2296 0.37576 51.4764 0.232421 51.7444 0.143083C51.9801 0.053813 52.2295 0.00630592 52.4815 0.00269581C52.7053 -0.011783 52.9289 0.0350261 53.1282 0.138089C53.3274 0.241153 53.4948 0.396572 53.6124 0.587642C53.667 0.688908 53.7008 0.800058 53.7118 0.91457C53.7229 1.02908 53.7109 1.14465 53.6767 1.25448C53.6767 1.25448 53.6592 1.25448 53.6631 1.25448C53.8054 0.84697 53.4934 0.40436 53.1347 0.234725C52.7116 0.0691617 52.2425 0.0649981 51.8166 0.223027C51.5421 0.316588 51.2801 0.443633 51.0367 0.601291C51.0191 0.593492 51.0055 0.575944 51.0191 0.564245Z" fill="#263238"/>
<path d="M50.0325 3.26467C50.5365 3.28487 51.0391 3.19712 51.5065 3.0073C51.9943 2.81688 52.4599 2.57365 52.8948 2.28196C53.1502 2.11623 53.3978 1.93879 53.6435 1.75746C53.6435 1.75746 53.6591 1.75746 53.6435 1.76916C53.2369 2.1473 52.7919 2.48189 52.3157 2.76747C51.8709 3.02789 51.3794 3.19879 50.8689 3.27052C50.588 3.30668 50.3036 3.30668 50.0227 3.27052C50.0227 3.27052 50.0247 3.26467 50.0325 3.26467Z" fill="#263238"/>
<path d="M54.1212 4.40152C54.1212 4.40152 54.5229 3.23163 55.0318 3.35447C55.5407 3.47731 55.4334 5.02156 54.9713 5.36278C54.9151 5.40946 54.8501 5.44442 54.7802 5.46561C54.7103 5.4868 54.6368 5.49378 54.5641 5.48615C54.4914 5.47852 54.421 5.45643 54.357 5.42118C54.293 5.38593 54.2367 5.33823 54.1914 5.28089L54.1212 4.40152Z" fill="#C95F50"/>
<path d="M54.9908 3.79898C54.9908 3.79898 55.0025 3.79898 54.9908 3.81068C54.6711 4.06221 54.5755 4.45217 54.5424 4.83824C54.5538 4.79655 54.5741 4.75783 54.6019 4.72471C54.6297 4.69159 54.6643 4.66486 54.7033 4.64635C54.7424 4.62784 54.785 4.61798 54.8282 4.61745C54.8715 4.61691 54.9143 4.62571 54.9538 4.64325V4.6647C54.8844 4.66303 54.8161 4.68271 54.7582 4.72106C54.7004 4.75942 54.6556 4.81461 54.6301 4.87918C54.589 4.98821 54.5596 5.10128 54.5424 5.2165C54.5424 5.25355 54.4722 5.2516 54.4741 5.2165C54.3337 4.7349 54.5073 3.98616 54.9908 3.79898Z" fill="#263238"/>
<path d="M53.9224 9.66988C55.5973 6.83484 55.5661 6.04127 55.4101 5.61815C55.2878 5.31914 55.0983 5.05228 54.8564 4.83823L54.7062 5.01566L54.7823 4.92792L54.7062 5.01566C54.918 5.20505 55.0846 5.4396 55.1937 5.702C55.3068 6.01007 55.3887 6.751 53.7235 9.55679L53.9224 9.66988Z" fill="#EBEBEB"/>
<path d="M55.0088 5.19429L55.0513 5.15137C55.1355 5.0665 55.1349 4.92947 55.0501 4.8453L54.7884 4.58581C54.7035 4.50165 54.5665 4.50222 54.4823 4.58709L54.4398 4.63001C54.3556 4.71489 54.3562 4.85192 54.441 4.93609L54.7027 5.19558C54.7876 5.27974 54.9246 5.27917 55.0088 5.19429Z" fill="#455A64"/>
<path d="M51.6879 9.17662L51.4578 9.20392C51.4032 8.75546 51.3583 8.34794 51.3232 7.97748C51.4027 8.01196 51.4841 8.0419 51.567 8.06717C51.5982 8.40254 51.6385 8.77236 51.6879 9.17662Z" fill="#EBEBEB"/>
<path d="M51.3701 9.29358C51.4022 9.8339 51.4674 10.3717 51.5651 10.9041C51.6362 11.1441 51.7709 11.3604 51.955 11.53C51.9999 11.53 51.9258 11.9375 51.8575 12.2632C51.7971 12.5478 51.7211 12.8793 51.7776 12.9826C51.8121 13.0306 51.8638 13.0634 51.9219 13.0743C51.98 13.0852 52.04 13.0733 52.0896 13.0411C52.1793 12.967 52.23 12.6297 52.2846 12.3411C52.3411 12.0155 52.4171 11.6178 52.4639 11.6256C52.6707 11.501 52.8591 11.348 53.0235 11.1713C53.3864 10.7394 53.6991 10.2678 53.9556 9.76544C54.0745 9.43592 54.055 9.32088 53.9556 9.27408C53.8249 9.20779 53.6962 9.36182 53.5071 9.70499C53.1854 10.2899 52.7038 11.1752 52.2904 11.1167C51.8868 11.0192 51.8653 9.94677 51.8127 9.33257C51.7815 8.95236 51.7074 8.90556 51.5631 8.91921C51.452 8.92896 51.3447 8.96016 51.3701 9.29358Z" fill="#455A64"/>
</svg>
