<svg width="40" height="77" viewBox="0 0 40 77" fill="none" xmlns="http://www.w3.org/2000/svg">
<path d="M20.0089 76.5862C30.9586 76.5862 39.835 74.363 39.835 71.6207C39.835 68.8783 30.9586 66.6552 20.0089 66.6552C9.0593 66.6552 0.182861 68.8783 0.182861 71.6207C0.182861 74.363 9.0593 76.5862 20.0089 76.5862Z" fill="#EBEBEB"/>
<path d="M9.719 22.595C9.719 22.595 8.93389 25.5758 9.11232 26.483C9.29075 27.3902 10.6825 28.0706 11.5033 27.779C12.3241 27.4874 13.5375 26.1266 13.5375 26.1266L12.8238 23.5022L9.719 22.595Z" fill="white" stroke="#263238" stroke-width="0.814909" stroke-linejoin="round"/>
<path d="M16.6327 64.7817C16.6327 64.7817 16.0047 66.203 15.4836 66.6782C14.9626 67.1534 13.4447 68.0541 13.3424 68.6222C13.2401 69.1903 14.1275 69.5251 15.1196 69.7627C16.1117 70.0003 17.4702 69.5251 17.9413 69.3307C18.4123 69.1363 20.3965 68.9894 20.9199 68.7993C21.4433 68.6092 21.0246 65.3433 21.0246 65.3433L16.6327 64.7817Z" fill="white" stroke="#263238" stroke-width="0.814909" stroke-linejoin="round"/>
<path d="M21.4387 63.6544C21.4387 63.6544 21.127 66.2161 20.9629 67.2594C20.7987 68.3027 20.6488 69.3827 21.4387 69.6678C22.2286 69.9529 24.8884 70.1884 25.6188 69.8104C26.3492 69.4324 26.2469 68.2076 25.7758 66.7864C25.3048 65.3651 24.8884 64.3196 24.8884 64.3196C24.8884 64.3196 23.8963 62.8962 21.4387 63.6544Z" fill="white" stroke="#263238" stroke-width="0.814909" stroke-linejoin="round"/>
<path d="M13.4971 34.6216C13.4971 34.6216 13.7064 47.6205 14.1775 51.3206C14.6486 55.0207 16.5804 63.5008 16.5804 63.5008C16.5804 63.5008 16.057 63.8313 16.1046 64.3065C16.1522 64.7817 16.3663 65.5874 16.3663 65.5874C16.3663 65.5874 17.8295 66.1079 18.6645 66.1555C19.4996 66.203 21.1745 65.7235 21.1745 65.7235L20.6511 35.6584L13.4971 34.6216Z" fill="#FFC727" stroke="#263238" stroke-width="0.814909" stroke-linejoin="round"/>
<path d="M20.6559 35.6649L20.9699 63.5483L20.7606 64.4015L21.1793 65.7299C21.1793 65.7299 22.5306 64.6759 23.3205 64.8659C24.1104 65.056 25.5783 65.8358 25.5783 65.8358C25.862 65.0411 26.1002 64.2336 26.292 63.4166C26.3967 62.7535 26.0303 61.1875 26.1874 60.1442C26.3444 59.1009 27.6791 50.9383 27.6791 50.9383L28.2929 34.9996L20.6559 35.6649Z" fill="#FFC727" stroke="#263238" stroke-width="0.814909" stroke-linejoin="round"/>
<path d="M19.2118 10.9957C19.2118 10.9957 12.574 12.6157 12.4312 12.8101C12.2885 13.0045 8.38672 22.7245 8.38672 22.7245L13.7041 24.3445L12.574 35.1704C15.2714 36.2391 18.1974 36.7483 21.1389 36.6608C25.8472 36.4664 28.8449 35.8508 28.8449 35.8508L29.3088 23.1846L33.9671 23.6317C33.9671 23.6317 30.8433 13.3998 30.4865 12.9786C30.1296 12.5574 24.4197 11.229 24.4197 11.229L19.2118 10.9957Z" fill="#FFC727" stroke="#263238" stroke-width="0.814909" stroke-linejoin="round"/>
<path d="M28.6307 22.5624L29.3088 16.4064" stroke="#263238" stroke-width="0.814909" stroke-linejoin="round"/>
<path d="M13.7159 19.679V15.0458" stroke="#263238" stroke-width="0.814909" stroke-linejoin="round"/>
<path d="M17.8557 11.4171L20.9248 23.6967L25.5284 11.5791" stroke="#263238" stroke-width="0.814909" stroke-linejoin="round"/>
<path d="M22.3522 23.8261H19.533V28.3621H22.3522V23.8261Z" fill="white" stroke="#263238" stroke-width="0.814909" stroke-linejoin="round"/>
<path d="M18.9619 8.5331L18.9976 11.5463C18.9976 11.5463 20.4251 13.9439 20.7463 14.3975C21.1388 14.9483 21.9239 15.9095 21.9239 15.9095L24.6694 11.5679L24.7408 9.4943L18.9619 8.5331Z" fill="white" stroke="#263238" stroke-width="0.814909" stroke-linejoin="round"/>
<path d="M19.7733 1.55864C19.7733 1.55864 18.7621 2.23904 18.6479 3.26288C18.5776 4.01277 18.5586 4.7659 18.5908 5.51792C18.5908 5.51792 18.1864 5.04704 17.8771 5.73392C17.7669 6.00139 17.7494 6.29301 17.8268 6.56978C17.9041 6.84655 18.0728 7.09526 18.3101 7.28264C18.4889 7.37788 18.6542 7.49248 18.8026 7.62392C18.8026 7.62392 18.8311 9.61544 19.7542 10.5874C20.6773 11.5594 22.1333 11.7409 23.5965 11.3478C24.7551 11.0389 25.1001 9.66944 25.2619 8.48792C25.4237 7.3064 25.6354 4.50272 25.5212 3.30392C25.407 2.10512 24.0152 1.064 22.8043 0.917124C20.8724 0.666564 19.7733 1.55864 19.7733 1.55864Z" fill="white" stroke="#263238" stroke-width="0.814909" stroke-linejoin="round"/>
<path d="M22.6044 8.08817C21.3075 7.99169 20.0193 8.35213 19.0072 9.09473C19.1242 9.6349 19.3766 10.1434 19.7447 10.5808C20.6702 11.5506 22.1239 11.7342 23.587 11.3411C24.5054 11.097 24.9098 10.1855 25.1263 9.23081C24.4777 8.57101 23.5751 8.16207 22.6044 8.08817Z" fill="#263238" stroke="#263238" stroke-width="0.814909" stroke-linejoin="round"/>
<path d="M25.4356 5.44033C25.4356 5.44033 25.9281 5.28265 25.9567 5.85937C25.9852 6.43609 25.3785 7.06681 25.3785 7.06681L25.4356 5.44033Z" stroke="#263238" stroke-width="0.814909" stroke-linejoin="round"/>
<path d="M22.8067 0.901959C20.8725 0.666519 19.7733 1.54996 19.7733 1.54996C19.7733 1.54996 18.7622 2.23036 18.648 3.2542C18.5777 4.00409 18.5586 4.75721 18.5909 5.50924L18.579 5.49844L18.6765 5.69284L19.3403 5.01028C19.5782 4.77484 19.2547 4.1722 19.3403 3.64732C19.426 3.12244 20.1778 2.41396 20.6988 2.36212C21.2198 2.31028 21.1889 2.78116 22.0287 2.96476C22.8686 3.14836 24.0201 2.80924 24.3103 2.49388C24.6006 2.17852 25.1478 2.72932 25.1192 3.805C25.0907 4.88068 24.9741 4.95844 25.0907 5.22196C25.2033 5.44263 25.3387 5.65309 25.4951 5.85052C25.4951 5.85052 25.4951 5.81812 25.5094 5.76196C25.5673 4.93564 25.5721 4.10695 25.5237 3.28012C25.4071 2.08132 24.0177 1.04236 22.8067 0.901959Z" fill="#263238" stroke="#263238" stroke-width="0.814909" stroke-linejoin="round"/>
<path d="M21.5076 6.27823C21.5076 6.45319 21.391 6.59359 21.2483 6.59359C21.1055 6.59359 20.9866 6.45319 20.9866 6.27823C20.977 6.20541 20.9989 6.13206 21.0477 6.07363C21.0966 6.0152 21.1685 5.97626 21.2483 5.96503C21.391 5.96503 21.5076 6.10543 21.5076 6.27823Z" fill="#263238"/>
<path d="M24.2817 6.27823C24.2817 6.45319 24.1651 6.59359 24.0199 6.59359C23.8748 6.59359 23.7606 6.45319 23.7606 6.27823C23.7606 6.10327 23.8772 5.96503 24.0199 5.96503C24.0998 5.97626 24.1717 6.0152 24.2205 6.07363C24.2693 6.13206 24.2912 6.20541 24.2817 6.27823Z" fill="#263238"/>
<path d="M20.9508 7.43357C21.617 7.43357 22.1571 6.94327 22.1571 6.33845C22.1571 5.73364 21.617 5.24333 20.9508 5.24333C20.2847 5.24333 19.7446 5.73364 19.7446 6.33845C19.7446 6.94327 20.2847 7.43357 20.9508 7.43357Z" stroke="#263238" stroke-width="0.814909" stroke-linejoin="round"/>
<path d="M25.4213 6.33845C25.4213 6.55505 25.3506 6.76678 25.2181 6.94687C25.0855 7.12696 24.8971 7.26732 24.6767 7.35021C24.4563 7.4331 24.2138 7.45479 23.9798 7.41253C23.7458 7.37028 23.5309 7.26597 23.3622 7.11282C23.1935 6.95966 23.0786 6.76453 23.0321 6.5521C22.9855 6.33967 23.0094 6.11947 23.1007 5.91937C23.192 5.71926 23.3466 5.54823 23.545 5.42789C23.7434 5.30756 23.9766 5.24333 24.2151 5.24333C24.535 5.24333 24.8418 5.35871 25.0681 5.56409C25.2943 5.76946 25.4213 6.04801 25.4213 6.33845V6.33845Z" stroke="#263238" stroke-width="0.814909" stroke-linejoin="round"/>
<path d="M22.7781 5.80739L22.809 8.48147L21.422 7.85291" fill="white"/>
<path d="M22.7781 5.80739L22.809 8.48147L21.422 7.85291" stroke="#263238" stroke-width="0.814909" stroke-linejoin="round"/>
<path d="M22.1571 6.33882C22.1571 6.33882 22.6639 5.95218 23.0088 6.33882" stroke="#263238" stroke-width="0.814909" stroke-linejoin="round"/>
<path d="M19.7447 6.33877L18.6765 5.70157" stroke="#263238" stroke-width="0.814909" stroke-linejoin="round"/>
<path d="M21.1033 8.61322C21.1033 8.61322 21.5363 9.26122 22.7211 9.08626" stroke="white" stroke-width="0.814909" stroke-linejoin="round"/>
<path d="M19.1404 20.6509L22.4712 19.2124C22.5246 19.1867 22.5868 19.1804 22.6451 19.1949C22.7035 19.2093 22.7535 19.2434 22.7852 19.2901C22.8067 19.3166 22.8213 19.3473 22.8277 19.3797C22.8342 19.4121 22.8324 19.4454 22.8226 19.477C22.8127 19.5087 22.795 19.5379 22.7708 19.5624C22.7466 19.5869 22.7165 19.6061 22.6829 19.6185L19.2118 20.9706L19.1404 20.6509Z" fill="white" stroke="#263238" stroke-width="0.814909" stroke-linejoin="round"/>
<path d="M23.6655 23.2017C23.6655 23.2017 21.3031 20.3418 21.1508 20.2317C20.9985 20.1215 18.7098 20.3418 18.7098 20.3418L18.1769 21.735L19.1666 23.6034L20.4252 23.2017C20.9678 23.8258 21.696 24.2958 22.5236 24.556C23.8178 24.9232 28.5856 26.6101 30.4532 26.6468C32.3208 26.6836 33.1987 26.2429 33.5794 25.4373C33.96 24.6316 33.7697 23.8237 32.2827 23.1649C30.7958 22.5061 27.7077 23.1649 26.1827 23.1649C24.6576 23.1649 23.6655 23.2017 23.6655 23.2017Z" fill="white" stroke="#263238" stroke-width="0.814909" stroke-linejoin="round"/>
<path d="M20.4252 23.2017L22.0644 22.9814" stroke="#263238" stroke-width="0.814909" stroke-linejoin="round"/>
<path d="M18.9762 23.0916C18.9762 23.0916 20.6154 22.0656 20.7677 22.0656C20.9199 22.0656 21.7978 22.1023 21.7978 22.1023" stroke="#263238" stroke-width="0.814909" stroke-linejoin="round"/>
<path d="M18.5956 22.5039L19.8161 21.2576L20.8843 21.0394" stroke="#263238" stroke-width="0.814909" stroke-linejoin="round"/>
<path d="M18.2529 21.9923L19.2046 20.7092L20.5012 20.4522" stroke="#263238" stroke-width="0.814909" stroke-linejoin="round"/>
<path d="M10.0759 19.6789L14.1823 26.9257L21.7813 27.2605L17.5654 19.8452L10.0759 19.6789Z" fill="#263238" stroke="#263238" stroke-width="0.814909" stroke-linejoin="round"/>
<path d="M11.5391 24.0852C11.5391 24.0852 11.6461 24.7008 12.0744 24.7332C12.5026 24.7656 14.1442 24.5064 14.2513 24.2148C14.2757 24.165 14.2829 24.1095 14.2719 24.0559C14.2609 24.0022 14.2323 23.9528 14.1898 23.9142C14.1473 23.8756 14.0929 23.8497 14.0338 23.8397C13.9747 23.8297 13.9136 23.8363 13.8587 23.8584C13.6422 23.9232 11.7532 23.7936 11.5391 24.0852Z" fill="white" stroke="#263238" stroke-width="0.814909" stroke-linejoin="round"/>
<path d="M12.0745 24.7332C12.1263 24.9557 12.2507 25.1589 12.4313 25.3164C12.7168 25.5432 14.1443 25.2516 14.6082 25.0572C15.0722 24.8628 15.0365 24.6036 14.8937 24.5388C14.751 24.474 13.9302 24.5388 13.9302 24.5388L12.0745 24.7332Z" fill="white" stroke="#263238" stroke-width="0.814909" stroke-linejoin="round"/>
<path d="M12.7524 25.4135C12.7524 25.4135 12.8952 25.8671 13.2164 25.9967C13.5376 26.1263 14.4297 25.7699 14.858 25.5755C15.2862 25.3811 14.6201 25.0571 14.6201 25.0571C14.6201 25.0571 13.0736 25.5107 12.7524 25.4135Z" fill="white" stroke="#263238" stroke-width="0.814909" stroke-linejoin="round"/>
<path d="M13.5375 26.1263C13.5375 26.1263 13.3234 26.3531 13.8587 26.3855C14.394 26.4179 14.858 25.5755 14.858 25.5755L13.5375 26.1263Z" fill="white" stroke="#263238" stroke-width="0.814909" stroke-linejoin="round"/>
</svg>
