<svg width="24" height="25" viewBox="0 0 24 25" fill="none" xmlns="http://www.w3.org/2000/svg">
<path d="M15.8385 12.7659L15.8342 12.764C15.7708 12.7373 15.7098 12.7063 15.6458 12.6809C16.3601 12.1211 16.9378 11.4063 17.3353 10.5904C17.7327 9.77451 17.9395 8.87897 17.94 7.97145C17.9377 7.76058 17.9227 7.55004 17.8953 7.34096C17.9106 7.30121 17.9233 7.26046 17.9331 7.21901L18.2144 4.82155C18.3019 4.06405 18.0983 3.3016 17.6447 2.68864C17.1911 2.07567 16.5215 1.65802 15.7715 1.52028L14.9815 1.37672C12.9706 1.00954 10.9099 1.00954 8.899 1.37672L8.108 1.52028C7.35809 1.65812 6.68859 2.07582 6.2351 2.68877C5.78161 3.30173 5.57802 4.06412 5.66557 4.82155L5.94682 7.21901C5.95667 7.26048 5.96931 7.30124 5.98466 7.34101C5.95721 7.55008 5.94229 7.7606 5.93998 7.97145C5.94047 8.87897 6.14725 9.7745 6.54469 10.5904C6.94212 11.4062 7.51982 12.1211 8.23411 12.6809C8.17011 12.7063 8.10911 12.7373 8.04575 12.764L8.04148 12.7659C6.40427 13.4539 4.98111 14.5677 3.91976 15.9916C2.85842 17.4155 2.19759 19.0975 2.0059 20.863C1.97715 21.1267 2.05431 21.391 2.22042 21.5978C2.38653 21.8045 2.62797 21.9368 2.89164 21.9656C3.1553 21.9943 3.41958 21.9172 3.62635 21.7511C3.83311 21.585 3.96543 21.3435 3.99418 21.0798C4.13488 19.782 4.59309 18.5388 5.3283 17.4601C6.06351 16.3814 7.0531 15.5004 8.20963 14.8949L11.233 17.9182C11.3258 18.0111 11.436 18.0848 11.5573 18.1351C11.6787 18.1853 11.8087 18.2112 11.94 18.2112C12.0713 18.2112 12.2014 18.1853 12.3227 18.1351C12.444 18.0848 12.5542 18.0111 12.647 17.9182L15.6703 14.8949C16.8269 15.5004 17.8164 16.3814 18.5517 17.4601C19.2869 18.5388 19.7451 19.782 19.8858 21.0799C19.9124 21.3246 20.0285 21.551 20.2117 21.7155C20.3948 21.88 20.6322 21.9711 20.8785 21.9715C20.9152 21.9715 20.9518 21.9695 20.9883 21.9656C21.252 21.9369 21.4934 21.8045 21.6595 21.5978C21.8256 21.391 21.9028 21.1267 21.8741 20.8631C21.6824 19.0975 21.0215 17.4155 19.9602 15.9916C18.8989 14.5677 17.4757 13.4539 15.8385 12.7659ZM7.65189 4.58815C7.62276 4.33574 7.69063 4.08169 7.84177 3.87744C7.9929 3.6732 8.21599 3.534 8.46589 3.48805L9.25642 3.3445C11.0308 3.02028 12.8492 3.02028 14.6236 3.3445L15.4136 3.48805C15.6636 3.53389 15.8868 3.67304 16.038 3.8773C16.1892 4.08157 16.2572 4.33567 16.2281 4.58815L16.0503 6.10231H7.82963L7.65189 4.58815ZM11.94 15.7971L10.2897 14.1469C11.3775 13.913 12.5025 13.913 13.5902 14.1469L11.94 15.7971ZM11.94 11.9714C10.9021 11.9702 9.90526 11.5662 9.15947 10.8444C8.41367 10.1227 7.97718 9.13957 7.94198 8.10231H15.9381C15.9029 9.13959 15.4664 10.1227 14.7205 10.8444C13.9747 11.5662 12.9778 11.9703 11.94 11.9714Z" fill="#084236"/>
</svg>
