<svg width="470" height="438" viewBox="0 0 470 438" fill="none" xmlns="http://www.w3.org/2000/svg">
<g clip-path="url(#clip0_135_686)">
<path d="M237.4 14.41H15.29V160.69H237.4V14.41Z" fill="#F5F5F5"/>
<path d="M50.08 49.36C50.08 49.36 47 47.64 45 49.75C44.3 50.5 44.12 52.96 46.86 53.45C46.86 53.45 52.79 53.13 55.49 52.64C58.19 52.15 64.33 49.44 64.33 49.44L67.52 42.33C67.52 42.33 67.93 38.97 68.34 38.89C68.75 38.81 70 42.33 70 42.33L76.88 44.33L77.61 45.72L72 48C72 48 72.82 56.84 72.08 58.39C71.3111 59.6782 70.3462 60.8387 69.22 61.83L69.54 74.68C69.54 74.68 70.77 74.19 70.85 75.09H67.59C67.59 75.09 66.28 67.09 64.4 66.49L64.89 63.14L52 62.05C52 62.05 52.9 65.05 49.22 67.53C47.2723 68.783 45.4972 70.2858 43.94 72V74.45C43.94 74.45 45.01 74.86 45.09 75.76H41.16C41.16 75.76 41.65 68.97 41.16 67.82C41.16 67.82 45.98 62.9 45.33 56.82C45.33 56.82 39.85 55.43 41.16 50.11C42.47 44.79 48.61 44.7 50.08 49.36Z" fill="#E0E0E0"/>
<path d="M50.9 90.32C50.9 90.32 48.97 89.26 47.74 90.57C47.5846 90.7847 47.491 91.038 47.4694 91.3022C47.4478 91.5664 47.4991 91.8315 47.6177 92.0686C47.7362 92.3058 47.9175 92.5058 48.1419 92.6471C48.3662 92.7884 48.6249 92.8655 48.89 92.87C48.89 92.87 52.58 92.66 54.25 92.36C56.131 91.8325 57.9695 91.1639 59.75 90.36L61.75 85.94C61.75 85.94 62 83.86 62.26 83.8C62.52 83.74 63.26 85.94 63.26 85.94L67.54 87.16L68 88L64.55 89.43C64.55 89.43 65.05 94.92 64.55 95.89C64.0694 96.687 63.469 97.4054 62.77 98.02L62.97 106.02C62.97 106.02 63.73 105.71 63.78 106.27H61.78C61.78 106.27 60.97 101.27 59.78 100.93L60.08 98.85L52.08 98.18C52.08 98.18 52.64 100.07 50.35 101.59C49.1328 102.36 48.0203 103.285 47.04 104.34V105.86C47.04 105.86 47.7 106.12 47.76 106.68H45.36C45.36 106.68 45.66 102.46 45.36 101.74C45.36 101.74 48.36 98.68 47.95 94.93C47.95 94.93 44.54 94.07 45.36 90.76C46.18 87.45 50 87.42 50.9 90.32Z" fill="#E0E0E0"/>
<path d="M49.5 124.32C49.5 124.32 48.04 123.52 47.12 124.51C47.0026 124.672 46.932 124.863 46.9159 125.062C46.8997 125.261 46.9387 125.461 47.0285 125.64C47.1183 125.818 47.2555 125.969 47.4251 126.075C47.5947 126.181 47.7901 126.238 47.99 126.24C47.99 126.24 50.76 126.08 51.99 125.85C53.4024 125.458 54.783 124.96 56.12 124.36L57.62 121.03C57.62 121.03 57.81 119.46 58 119.42C58.19 119.38 58.77 121.03 58.77 121.03L62 122L62.34 122.65L59.74 123.72C59.74 123.72 60.12 127.86 59.74 128.59C59.3798 129.19 58.9276 129.73 58.4 130.19L58.56 136.19C58.56 136.19 59.13 135.96 59.17 136.38H57.7C57.7 136.38 57.08 132.63 56.2 132.38L56.43 130.81L50.43 130.31C50.5189 130.821 50.4404 131.347 50.2062 131.811C49.9719 132.274 49.5945 132.649 49.13 132.88C48.214 133.455 47.3769 134.148 46.64 134.94V136C46.64 136 47.13 136.2 47.17 136.62H45.32C45.4364 135.383 45.4364 134.137 45.32 132.9C45.9741 132.218 46.4874 131.414 46.8305 130.534C47.1737 129.654 47.34 128.715 47.32 127.77C46.9797 127.7 46.6569 127.563 46.3708 127.366C46.0847 127.169 45.841 126.917 45.6545 126.624C45.4679 126.331 45.3421 126.003 45.2846 125.661C45.2272 125.318 45.2392 124.968 45.32 124.63C45.94 122.18 48.81 122.14 49.5 124.32Z" fill="#E0E0E0"/>
<path d="M203.83 55.11C203.83 55.25 180.74 55.37 152.25 55.37C123.76 55.37 100.67 55.25 100.67 55.11C100.67 54.97 123.76 54.85 152.25 54.85C180.74 54.85 203.83 55 203.83 55.11Z" fill="#E0E0E0"/>
<path d="M203.83 59.09C203.83 59.23 180.74 59.35 152.25 59.35C123.76 59.35 100.67 59.23 100.67 59.09C100.67 58.95 123.76 58.83 152.25 58.83C180.74 58.83 203.83 58.94 203.83 59.09Z" fill="#E0E0E0"/>
<path d="M203.83 63.06C203.83 63.21 180.74 63.32 152.25 63.32C123.76 63.32 100.67 63.21 100.67 63.06C100.67 62.91 123.76 62.8 152.25 62.8C180.74 62.8 203.83 62.92 203.83 63.06Z" fill="#E0E0E0"/>
<path d="M203.83 67C203.83 67.15 180.74 67.26 152.25 67.26C123.76 67.26 100.67 67.15 100.67 67C100.67 66.85 123.76 66.74 152.25 66.74C180.74 66.74 203.83 66.9 203.83 67Z" fill="#E0E0E0"/>
<path d="M203.83 89.58C203.83 89.73 180.74 89.84 152.25 89.84C123.76 89.84 100.67 89.73 100.67 89.58C100.67 89.43 123.76 89.32 152.25 89.32C180.74 89.32 203.83 89.44 203.83 89.58Z" fill="#E0E0E0"/>
<path d="M203.83 93.56C203.83 93.71 180.74 93.82 152.25 93.82C123.76 93.82 100.67 93.71 100.67 93.56C100.67 93.41 123.76 93.3 152.25 93.3C180.74 93.3 203.83 93.42 203.83 93.56Z" fill="#E0E0E0"/>
<path d="M203.83 97.54C203.83 97.68 180.74 97.8 152.25 97.8C123.76 97.8 100.67 97.68 100.67 97.54C100.67 97.4 123.76 97.28 152.25 97.28C180.74 97.28 203.83 97.4 203.83 97.54Z" fill="#E0E0E0"/>
<path d="M203.83 101.52C203.83 101.66 180.74 101.78 152.25 101.78C123.76 101.78 100.67 101.66 100.67 101.52C100.67 101.38 123.76 101.26 152.25 101.26C180.74 101.26 203.83 101.37 203.83 101.52Z" fill="#E0E0E0"/>
<path d="M203.83 124.06C203.83 124.2 180.74 124.32 152.25 124.32C123.76 124.32 100.67 124.2 100.67 124.06C100.67 123.92 123.76 123.8 152.25 123.8C180.74 123.8 203.83 123.92 203.83 124.06Z" fill="#E0E0E0"/>
<path d="M203.83 128C203.83 128.14 180.74 128.26 152.25 128.26C123.76 128.26 100.67 128.14 100.67 128C100.67 127.86 123.76 127.74 152.25 127.74C180.74 127.74 203.83 127.89 203.83 128Z" fill="#E0E0E0"/>
<path d="M203.83 132C203.83 132.14 180.74 132.26 152.25 132.26C123.76 132.26 100.67 132.14 100.67 132C100.67 131.86 123.76 131.74 152.25 131.74C180.74 131.74 203.83 131.87 203.83 132Z" fill="#E0E0E0"/>
<path d="M203.83 136C203.83 136.15 180.74 136.26 152.25 136.26C123.76 136.26 100.67 136.15 100.67 136C100.67 135.85 123.76 135.74 152.25 135.74C180.74 135.74 203.83 135.85 203.83 136Z" fill="#E0E0E0"/>
<path d="M194.69 35.25C194.69 36.69 171.77 37.86 143.51 37.86C115.25 37.86 92.32 36.69 92.32 35.25C92.32 33.81 115.23 32.65 143.51 32.65C171.79 32.65 194.69 33.81 194.69 35.25Z" fill="#E0E0E0"/>
<path d="M363.53 11.11H360.72V5.78998C360.753 5.01054 360.482 4.24881 359.963 3.66634C359.444 3.08387 358.718 2.72648 357.94 2.66998H336.55C335.774 2.72895 335.051 3.0874 334.534 3.66961C334.017 4.25181 333.747 5.01215 333.78 5.78998V11.11H331V5.78998C330.957 4.26358 331.519 2.78212 332.565 1.66917C333.61 0.556216 335.054 -0.097797 336.58 -0.150024H357.97C359.498 -0.100382 360.944 0.552502 361.992 1.66574C363.039 2.77898 363.603 4.26191 363.56 5.78998L363.53 11.11Z" fill="#EBEBEB"/>
<path d="M393.25 11.11H300.82C295.778 11.11 291.69 15.1976 291.69 20.24V75.99C291.69 81.0323 295.778 85.12 300.82 85.12H393.25C398.292 85.12 402.38 81.0323 402.38 75.99V20.24C402.38 15.1976 398.292 11.11 393.25 11.11Z" fill="#EBEBEB"/>
<path d="M350.57 33.17H343.93V62.92H350.57V33.17Z" fill="#F5F5F5"/>
<path d="M332.37 44.73V51.37H362.12V44.73H332.37Z" fill="#F5F5F5"/>
<path d="M372 48.12C372 48.12 372 47.98 372 47.72C372 47.46 371.95 47.04 371.91 46.54C371.91 46.28 371.91 45.99 371.86 45.68C371.81 45.37 371.75 45.02 371.69 44.68C371.579 43.8184 371.405 42.9661 371.17 42.13C370.588 39.8159 369.658 37.6038 368.41 35.57C365.137 30.1723 359.927 26.2283 353.843 24.5443C347.759 22.8603 341.262 23.5634 335.68 26.51C334.637 27.0839 333.635 27.7287 332.68 28.44C331.703 29.1688 330.774 29.9605 329.9 30.81C329.036 31.7009 328.234 32.6498 327.5 33.65C325.976 35.701 324.791 37.9833 323.99 40.41C322.297 45.4344 322.297 50.8755 323.99 55.9C324.785 58.327 325.967 60.6097 327.49 62.66C328.231 63.6611 329.036 64.6131 329.9 65.51C330.775 66.359 331.703 67.1506 332.68 67.88C333.635 68.5912 334.637 69.2361 335.68 69.81C336.713 70.352 337.783 70.823 338.88 71.22C343.01 72.7236 347.467 73.0965 351.79 72.3C355.218 71.6558 358.471 70.2936 361.336 68.303C364.2 66.3124 366.611 63.7384 368.41 60.75C369.658 58.7161 370.588 56.5041 371.17 54.19C371.405 53.3538 371.579 52.5015 371.69 51.64C371.75 51.26 371.82 50.92 371.86 50.64C371.9 50.36 371.86 50.04 371.91 49.78C371.91 49.28 371.98 48.89 372 48.6C372.02 48.31 372 48.2 372 48.2C372.017 48.3327 372.017 48.4672 372 48.6C372 48.89 372 49.28 372 49.78C372 50.0466 372 50.3366 372 50.65C372 50.97 371.91 51.32 371.86 51.7C371.759 52.5699 371.598 53.4319 371.38 54.28C370.819 56.6229 369.909 58.8681 368.68 60.94C366.878 63.9895 364.448 66.6212 361.551 68.6607C358.655 70.7002 355.359 72.1009 351.88 72.77C347.486 73.6128 342.946 73.2675 338.73 71.77C337.609 71.3683 336.516 70.8906 335.46 70.34C334.389 69.7435 333.36 69.0753 332.38 68.34C331.383 67.5979 330.434 66.7929 329.54 65.93C328.656 65.0191 327.835 64.0503 327.08 63.03C325.519 60.9348 324.307 58.6014 323.49 56.12C322.662 53.5673 322.227 50.9035 322.2 48.22C322.232 45.5336 322.667 42.8672 323.49 40.31C324.313 37.8342 325.525 35.5051 327.08 33.41C327.835 32.39 328.657 31.4212 329.54 30.51C330.4 29.6136 331.319 28.7751 332.29 28C333.263 27.2591 334.289 26.5906 335.36 26C336.416 25.4494 337.509 24.9716 338.63 24.57C342.843 23.0727 347.379 22.7275 351.77 23.57C355.25 24.2377 358.549 25.6378 361.447 27.6774C364.345 29.7169 366.777 32.3493 368.58 35.4C369.809 37.4719 370.719 39.717 371.28 42.06C371.499 42.9079 371.66 43.7699 371.76 44.64C371.81 45.02 371.87 45.36 371.9 45.64C371.93 45.92 371.9 46.25 371.9 46.52C371.9 47.01 371.9 47.41 371.9 47.7C371.953 47.8346 371.986 47.976 372 48.12V48.12Z" fill="#F5F5F5"/>
<path d="M435.5 16.56V5.36996H427.63V16.56H419.71V80.56H442.86V16.56H435.5Z" fill="#EBEBEB"/>
<path d="M469.9 80.57H278.94V90.31H469.9V80.57Z" fill="#E0E0E0"/>
<path d="M321.82 90.32H316.26V113.35H321.82V90.32Z" fill="#E0E0E0"/>
<path d="M433 90.32H427.44V113.35H433V90.32Z" fill="#E0E0E0"/>
<path d="M392.44 33.78V25.6H386.68V33.78H380.89V80.57H397.81V33.78H392.44Z" fill="#FAFAFA"/>
<path d="M411.64 33.78V25.6H405.89V33.78H400.1V80.57H417V33.78H411.64Z" fill="#F5F5F5"/>
<path d="M316.26 50.17H285.86V80.57H316.26V50.17Z" fill="#E0E0E0"/>
<path d="M316.11 58C316.11 58.2 309.4 58.36 301.11 58.36C292.82 58.36 286.11 58.2 286.11 58C286.11 57.8 292.82 57.65 301.11 57.65C309.4 57.65 316.11 57.79 316.11 58Z" fill="#EBEBEB"/>
<path d="M302.21 62C302.21 62 302.32 62 302.52 62.05C302.81 62.1298 303.083 62.2583 303.33 62.43C304.228 63.1122 304.826 64.1158 305 65.23C305.38 66.8651 305.096 68.5841 304.21 70.01C303.651 70.8586 302.818 71.4903 301.85 71.8C300.817 72.0946 299.723 72.0946 298.69 71.8C297.679 71.5778 296.75 71.0798 296.005 70.3614C295.26 69.6429 294.729 68.7321 294.47 67.73C294.287 66.9067 294.322 66.0497 294.573 65.2444C294.824 64.4391 295.282 63.7136 295.9 63.14C296.725 62.3908 297.787 61.9554 298.9 61.91C299.304 61.859 299.715 61.9286 300.08 62.11C300.08 62.17 299.65 62.11 298.93 62.19C297.91 62.3255 296.96 62.7846 296.22 63.5C295.698 64.0285 295.32 64.6819 295.123 65.3979C294.925 66.1138 294.913 66.8685 295.09 67.59C295.547 68.8876 296.468 69.9703 297.675 70.6295C298.883 71.2887 300.291 71.4776 301.63 71.16C302.446 70.8992 303.151 70.3707 303.63 69.66C304.438 68.3784 304.731 66.8387 304.45 65.35C304.339 64.3279 303.863 63.3802 303.11 62.68C302.61 62.18 302.19 62.06 302.21 62Z" fill="#EBEBEB"/>
<path d="M33.08 303.31C26.71 300.03 19.22 299.6 12.15 300.77C8.35001 301.4 4.39001 302.53 1.80001 305.38C-0.789988 308.23 -1.26999 313.26 1.70001 315.71C3.46001 317.17 5.93001 317.39 8.22001 317.36C13.75 317.3 19.89 316.36 24.32 319.65C26.84 321.55 28.52 324.71 31.53 325.65C34.54 326.59 37.81 324.82 39.38 322.16C40.8158 319.384 41.1342 316.163 40.27 313.16C39.9113 311.075 39.0758 309.102 37.8286 307.393C36.5814 305.684 34.9563 304.287 33.08 303.31V303.31Z" fill="#EBEBEB"/>
<path d="M47.67 275.15C43.78 280.71 36.21 278.87 32.67 275.47C29.13 272.07 27.67 267.16 26.33 262.47C23.24 251.75 20.13 240.47 22.43 229.58C22.9801 226.27 24.4335 223.176 26.63 220.64C28.92 218.22 32.45 216.78 35.63 217.64C39.45 218.64 41.82 222.39 43.53 225.94C48.58 236.438 51.2275 247.93 51.28 259.58C51.28 265 50.66 270.68 47.6 275.16" fill="#EBEBEB"/>
<path d="M58.37 283.13C54.14 278.13 53.37 270.79 55.22 264.5C57.07 258.21 61.35 252.87 66.22 248.5C71.9935 243.368 78.7122 239.411 86 236.85C88.8165 235.712 91.8457 235.197 94.88 235.34C97.88 235.63 100.93 237.17 102.33 239.85C104.41 243.85 102.42 248.63 100.26 252.55C96.4567 259.467 92.1097 266.071 87.26 272.3C83.37 277.3 78.92 282.3 72.99 284.53C67.06 286.76 60.91 286.53 57.77 282.42" fill="#EBEBEB"/>
<path d="M47.94 359C47.7216 358.174 47.6008 357.324 47.58 356.47C47.4 354.64 47.18 352.33 46.91 349.58C46.5695 346.182 46.0522 342.804 45.36 339.46C44.4581 335.387 43.2274 331.394 41.68 327.52C40.1699 323.651 38.1196 320.014 35.59 316.72C33.5267 314.038 30.8932 311.849 27.88 310.31C25.8352 309.306 23.645 308.631 21.39 308.31C20.5403 308.272 19.6963 308.152 18.87 307.95C19.7203 307.849 20.5797 307.849 21.43 307.95C23.7747 308.121 26.0688 308.718 28.2 309.71C31.3723 311.207 34.155 313.418 36.33 316.17C38.9724 319.502 41.1025 323.209 42.65 327.17C44.2186 331.102 45.44 335.165 46.3 339.31C46.9583 342.693 47.4091 346.112 47.65 349.55C47.87 352.48 47.95 354.85 47.99 356.49C48.0629 357.326 48.0462 358.167 47.94 359Z" fill="#E0E0E0"/>
<path d="M47.46 353.74C47.3882 353.351 47.3647 352.955 47.39 352.56C47.39 351.68 47.39 350.56 47.39 349.21C47.39 346.3 47.39 342.09 47.24 336.89C46.98 326.49 46.09 315.29 44.36 299.51C42.72 284.67 40.52 267.4 38.2 256.18C37.71 253.62 37.2 251.32 36.73 249.31C36.26 247.3 35.9 245.56 35.53 244.15C35.16 242.74 34.95 241.75 34.75 240.89C34.6385 240.512 34.568 240.123 34.54 239.73C34.7143 240.082 34.8517 240.45 34.95 240.83C35.2 241.68 35.53 242.74 35.95 244.05C36.37 245.36 36.83 247.17 37.33 249.18C37.83 251.19 38.41 253.47 38.95 256.02C41.826 269.298 43.9891 282.721 45.43 296.23C47.16 312.05 47.94 326.45 48.01 336.87C48.07 342.09 47.96 346.31 47.83 349.22C47.74 350.58 47.68 351.69 47.62 352.57C47.6137 352.965 47.56 353.358 47.46 353.74V353.74Z" fill="#E0E0E0"/>
<path d="M47.39 326C47.2981 324.835 47.2981 323.665 47.39 322.5C47.5929 319.316 47.9601 316.146 48.49 313C49.2555 308.336 50.2838 303.718 51.57 299.17C53.0823 293.578 55.0179 288.109 57.36 282.81C62.15 271.44 68.67 262.13 74.36 256.37C75.6142 255.051 76.9502 253.812 78.36 252.66C78.97 252.14 79.52 251.66 80.07 251.21L81.62 250.15C82.5662 249.438 83.5696 248.806 84.62 248.26C84.78 248.49 80.44 251.04 74.95 256.88C67.9469 264.643 62.3195 273.544 58.31 283.2C56.0145 288.468 54.0735 293.883 52.5 299.41C51.1761 303.915 50.0814 308.484 49.22 313.1C48.49 317.04 48.07 320.26 47.82 322.49C47.768 323.669 47.6243 324.843 47.39 326V326Z" fill="#E0E0E0"/>
<path d="M74.23 374.95L71.45 413.08H22.47L19.69 374.95H74.23Z" fill="#E0E0E0"/>
<path d="M78.97 359.93H13.85V374.96H78.97V359.93Z" fill="#E0E0E0"/>
<path d="M78.96 411.62V415.78H75.91H14.92V411.62H78.96Z" fill="#EBEBEB"/>
<path d="M72.91 423.11L75.91 415.78H17.26L20.76 423.11H72.91Z" fill="#E0E0E0"/>
<path d="M20.6 387.41C20.6619 387.536 20.7392 387.653 20.83 387.76L21.56 388.76L24.41 392.41L24.54 392.58L24.66 392.41C26.46 389.93 28.85 386.61 31.66 382.71H31.26L38.16 392.48L38.38 392.79L38.62 392.5L46.8 382.76H46.33L46.78 383.32L54.1 392.5L54.34 392.8L54.57 392.49C57.05 388.97 59.38 385.69 61.47 382.72H61.07L69.58 392.4L69.73 392.58L69.84 392.38C70.96 390.5 71.84 389 72.5 387.91L73.19 386.72C73.277 386.586 73.3475 386.441 73.4 386.29C73.2881 386.404 73.1907 386.532 73.11 386.67C72.91 386.97 72.66 387.35 72.36 387.82L69.56 392.21H69.83L61.46 382.4L61.25 382.15L61.06 382.42L54.06 392.15H54.53C52.21 389.24 49.76 386.15 47.23 382.96L46.78 382.4L46.55 382.11L46.31 382.39L38.14 392.15H38.6C36.08 388.63 33.74 385.36 31.6 382.43L31.4 382.14L31.2 382.43L24.34 392.23H24.59L21.59 388.67C21.27 388.3 21.01 387.99 20.79 387.75C20.57 387.51 20.61 387.4 20.6 387.41Z" fill="#F5F5F5"/>
<path d="M19 374.7C19 374.87 31.27 375.01 46.41 375.01C61.55 375.01 73.82 374.87 73.82 374.7C73.82 374.53 61.55 374.4 46.41 374.4C31.27 374.4 19 374.53 19 374.7Z" fill="#F5F5F5"/>
<path d="M16.54 416.19C16.54 416.36 29.87 416.5 46.32 416.5C62.77 416.5 76.11 416.36 76.11 416.19C76.11 416.02 62.78 415.89 46.32 415.89C29.86 415.89 16.54 416 16.54 416.19Z" fill="#F5F5F5"/>
<path d="M447.11 126.08H354.76V222.35H447.11V126.08Z" fill="#E0E0E0"/>
<path d="M440.86 126.08H348.51V222.35H440.86V126.08Z" fill="#EBEBEB"/>
<path d="M428.44 139.02H360.92V209.41H428.44V139.02Z" fill="#FAFAFA"/>
<path d="M360.92 209.87C360.431 210.569 359.868 211.212 359.24 211.79C358.15 212.92 356.63 214.46 354.94 216.13C353.25 217.8 351.68 219.3 350.53 220.36C349.947 220.974 349.3 221.524 348.6 222C349.096 221.313 349.659 220.677 350.28 220.1C351.37 218.96 352.89 217.42 354.59 215.75C356.29 214.08 357.86 212.57 359 211.51C359.587 210.904 360.229 210.355 360.92 209.87Z" fill="#E0E0E0"/>
<path d="M428.45 209.7C429.137 210.204 429.776 210.77 430.36 211.39C431.49 212.47 433.03 213.99 434.7 215.69C436.37 217.39 437.87 218.95 438.94 220.09C439.551 220.679 440.103 221.325 440.59 222.02C439.895 221.53 439.255 220.966 438.68 220.34C437.55 219.26 436.01 217.74 434.33 216.03C432.65 214.32 431.15 212.77 430.09 211.62C429.479 211.038 428.93 210.394 428.45 209.7V209.7Z" fill="#E0E0E0"/>
<path d="M428.26 139.21C428.762 138.518 429.328 137.876 429.95 137.29C431.04 136.16 432.55 134.62 434.25 132.95C435.95 131.28 437.51 129.78 438.66 128.72C439.243 128.103 439.89 127.55 440.59 127.07C440.089 127.756 439.526 128.395 438.91 128.98C437.82 130.11 436.3 131.65 434.6 133.33C432.9 135.01 431.33 136.5 430.19 137.56C429.605 138.174 428.958 138.727 428.26 139.21Z" fill="#E0E0E0"/>
<path d="M360.74 139.38C360.05 138.88 359.41 138.314 358.83 137.69C357.69 136.61 356.16 135.09 354.48 133.39C352.8 131.69 351.32 130.13 350.25 128.99C349.639 128.401 349.087 127.755 348.6 127.06C349.295 127.55 349.935 128.114 350.51 128.74C351.64 129.82 353.18 131.34 354.86 133.05C356.54 134.76 358.03 136.31 359.1 137.46C359.711 138.042 360.26 138.686 360.74 139.38V139.38Z" fill="#E0E0E0"/>
<path d="M428.26 209.41C428.26 209.41 428.26 209.29 428.26 209.07C428.26 208.85 428.26 208.51 428.26 208.07C428.26 207.19 428.26 205.92 428.26 204.27C428.26 200.94 428.26 196.09 428.26 189.93C428.26 177.6 428.19 160.04 428.14 139L428.36 139.22H361.03L361.29 138.97C361.29 164.8 361.29 188.97 361.29 209.36L361.07 209.14L409.84 209.25L423.54 209.31H427.16H428.09H428.41H427.2H423.63H409.98L361.07 209.42H360.86V209.21C360.86 188.82 360.86 164.65 360.86 138.82V138.56H361.12H428.45H428.68V139C428.68 160.09 428.6 177.71 428.57 190.07C428.57 196.21 428.57 201.07 428.51 204.36C428.51 205.99 428.51 207.25 428.51 208.12C428.51 208.53 428.51 208.84 428.51 209.12C428.51 209.4 428.26 209.41 428.26 209.41Z" fill="#E0E0E0"/>
<path d="M378.75 168.42C378.75 168.42 377.3 185.85 396.17 185.85C396.17 176.55 388.5 169.21 378.75 168.42Z" fill="#EBEBEB"/>
<path d="M413.28 168.44C413.28 168.44 395.85 166.99 395.85 185.86C405.15 185.86 412.49 178.19 413.28 168.44Z" fill="#EBEBEB"/>
<path d="M395.34 158.9C395.34 158.9 381.1 171.68 396.12 185.85C403.1 178.45 402.51 166.85 395.34 158.9Z" fill="#E0E0E0"/>
<path d="M448.14 423.23C448.14 423.38 353.31 423.49 236.36 423.49C119.41 423.49 24.55 423.38 24.55 423.23C24.55 423.08 119.36 422.97 236.36 422.97C353.36 422.97 448.14 423.09 448.14 423.23Z" fill="#263238"/>
<path d="M196.77 253.15C196.77 253.15 176.62 249.99 174.94 250.05C173.26 250.11 157.28 253.24 157.28 253.24C157.28 253.24 134.67 257.24 132.39 258.88C130.11 260.52 131.79 265.67 131.79 265.67C134.3 266.67 142.21 265.1 142.21 265.1C142.297 266.848 142.768 268.555 143.59 270.1C145.01 272.96 148.89 272.24 148.89 272.24L145.89 273.8C146.144 275.612 146.6 277.39 147.25 279.1C148.35 282.1 155.56 281.67 155.56 281.67C155.56 281.67 157.46 285.95 160.45 286.67C163.44 287.39 179 283.74 183.62 283.24C188.24 282.74 197.1 277.24 197.1 277.24C200.664 278.506 204.293 279.584 207.97 280.47L210.24 251.11C208.54 251 196.77 253.15 196.77 253.15Z" fill="#455A64"/>
<path d="M116 346.27C107.41 344.11 100.91 336.6 98 328.27C95.09 319.94 95.16 310.8 96 301.99C96.3263 300.362 96.1912 298.675 95.61 297.12C94.46 294.76 91.3 293.94 88.79 294.72C86.28 295.5 84.35 297.48 82.79 299.55C78.3553 305.281 75.6793 312.177 75.0865 319.399C74.4937 326.622 76.0097 333.861 79.4506 340.239C82.8915 346.616 88.1093 351.859 94.471 355.329C100.833 358.8 108.065 360.349 115.29 359.79" fill="#FF725E"/>
<path d="M181.12 263.37C181.12 263.37 201.25 298.24 206.34 312.26C211.43 326.28 217.91 364.83 217.91 364.83C217.91 364.83 248.13 372.61 229.41 405.11C222.49 417.11 223.11 422.69 215.35 423.05C209.35 423.32 160.63 422.95 160.63 422.95L161.51 427.72C161.51 427.72 157.43 441.5 149.19 437.61C140.95 433.72 131.19 422.95 131.19 422.95L117.02 422.76L83.29 423L73.42 422.81V422.54C73.7563 419.858 74.8615 417.332 76.6023 415.264C78.343 413.197 80.6449 411.678 83.23 410.89L90.47 408.69C90.47 408.69 81.06 369.17 89.21 359.69C97.36 350.21 110.62 350.86 110.62 350.86L104.53 310.19C103.32 300.656 104.281 290.971 107.34 281.86L111.91 268.27L181.12 263.37Z" fill="#FF725E"/>
<path d="M111.17 352.22C125.17 360.15 134.55 373.44 139.24 388.62C139.24 388.78 139.53 388.71 139.48 388.56C135.85 376.79 129.4 365.89 119.89 357.93C117.208 355.703 114.333 353.718 111.3 352C111.16 351.92 111.03 352.14 111.17 352.22Z" fill="#263238"/>
<path d="M111.47 269.66C111.47 269.66 104.9 287.21 104.35 295.98C103.44 310.53 110.65 350.84 110.65 350.84C110.65 350.84 108.18 390.35 106.04 396.21C103.9 402.07 104.79 407.47 95.04 409.46C92.41 410 87.82 418.53 87.82 422.76H115.09C115.09 422.76 122.47 414.42 122.82 406.62C123.17 398.82 136.15 356.44 136.15 356.44" fill="#FF725E"/>
<path d="M136.15 356.44C136.15 356.44 136.15 356.55 136.07 356.76C135.99 356.97 135.92 357.3 135.8 357.7C135.56 358.53 135.21 359.75 134.75 361.32C133.82 364.52 132.48 369.17 130.75 375.07C129.02 380.97 127.04 388.17 125 396.45C124.49 398.52 124 400.66 123.56 402.88C123.46 403.433 123.36 403.993 123.26 404.56C123.16 405.12 123.12 405.69 123.05 406.26L122.87 408.02C122.77 408.61 122.67 409.2 122.52 409.79C121.065 414.636 118.581 419.111 115.24 422.91L115.18 422.99H115.07H87.8H87.54V422.74C87.7836 420.092 88.5772 417.524 89.87 415.2C90.4793 413.992 91.185 412.835 91.98 411.74C92.3894 411.186 92.8444 410.668 93.34 410.19C93.8474 409.668 94.4923 409.3 95.2 409.13C97.8 408.56 100.51 407.59 102.2 405.47C103.89 403.35 104.38 400.47 105.2 397.77C105.34 397.26 105.52 396.77 105.69 396.26C105.86 395.75 105.96 395.26 106.1 394.78C106.3 393.78 106.52 392.78 106.66 391.78C106.98 389.78 107.23 387.7 107.46 385.67C107.93 381.61 108.29 377.6 108.64 373.67C109.32 365.77 109.88 358.14 110.36 350.86V350.92C108.29 338.98 106.64 327.92 105.47 317.92C104.89 312.92 104.47 308.25 104.21 303.92C103.872 299.915 104.043 295.882 104.72 291.92C105.41 288.33 106.3 285.17 107.1 282.43C107.9 279.69 108.68 277.38 109.32 275.5C109.96 273.62 110.49 272.2 110.84 271.23L111.26 270.14C111.36 269.89 111.42 269.77 111.42 269.77L111.3 270.15C111.21 270.42 111.08 270.78 110.92 271.26C110.59 272.26 110.1 273.69 109.47 275.55C108.84 277.41 108.12 279.76 107.33 282.5C106.54 285.24 105.68 288.4 105.01 291.98C104.356 295.945 104.208 299.978 104.57 303.98C104.81 308.34 105.28 312.98 105.88 317.98C107.07 327.92 108.75 338.98 110.88 350.98V351.04C110.41 358.33 109.88 365.96 109.19 373.86C108.85 377.81 108.48 381.86 108.02 385.86C107.78 387.86 107.53 389.94 107.21 391.99C107.07 392.99 106.85 394.04 106.65 395.07C106.5 395.58 106.37 396.07 106.22 396.61C106.07 397.15 105.88 397.61 105.74 398.09C105.34 399.44 105.02 400.81 104.59 402.17C104.189 403.543 103.535 404.829 102.66 405.96C101.74 407.052 100.589 407.926 99.29 408.52C98.0112 409.103 96.6688 409.536 95.29 409.81C94.6709 409.955 94.1078 410.279 93.67 410.74C93.1951 411.195 92.7602 411.69 92.37 412.22C91.593 413.289 90.9041 414.419 90.31 415.6C89.0494 417.852 88.2696 420.341 88.02 422.91L87.77 422.66H115.04L114.87 422.73C118.171 418.99 120.63 414.583 122.08 409.81C122.22 409.24 122.33 408.66 122.43 408.09L122.61 406.36C122.68 405.78 122.73 405.19 122.82 404.62C122.91 404.05 123.03 403.49 123.14 402.93C123.58 400.71 124.09 398.56 124.6 396.49C126.67 388.2 128.75 381.04 130.46 375.12C132.17 369.2 133.59 364.58 134.56 361.41C135.05 359.85 135.42 358.64 135.68 357.8L135.98 356.88C136.023 356.729 136.08 356.581 136.15 356.44V356.44Z" fill="#263238"/>
<path d="M183.9 287.9C183.9 287.9 184 288.11 184.17 288.54L184.89 290.46C185.52 292.16 186.43 294.65 187.61 297.85C189.94 304.28 193.31 313.58 197.22 325.17C198.22 328.07 199.22 331.11 200.17 334.31C200.67 335.9 201.17 337.54 201.6 339.22C202.008 340.947 202.312 342.697 202.51 344.46C203.38 351.61 203.79 359.29 204.25 367.36C204.71 375.43 205.09 383.91 205.68 392.68C205.99 397.06 206.31 401.53 206.93 406.01C207.09 407.13 207.27 408.26 207.52 409.36C207.642 409.917 207.803 410.465 208 411C208.09 411.248 208.211 411.483 208.36 411.7C208.43 411.78 208.51 411.88 208.58 411.9C208.7 411.954 208.824 412.001 208.95 412.04C210.088 412.371 211.166 412.885 212.14 413.56C212.629 413.902 213.085 414.291 213.5 414.72C213.907 415.164 214.266 415.65 214.57 416.17C215.733 418.308 216.088 420.792 215.57 423.17V423.37H215.36H184.87H184.61V423.12C184.73 420.573 185.115 418.046 185.76 415.58C186.34 413.15 187 410.78 187.76 408.46V408.56C185.92 396.56 184.18 385.45 182.55 375.56C181.72 370.62 180.95 365.97 180.09 361.69C179.97 361.16 179.88 360.62 179.74 360.11L179.54 359.35C179.455 359.109 179.352 358.875 179.23 358.65C178.735 357.762 178.162 356.919 177.52 356.13C176.3 354.55 175.03 353.13 173.83 351.74C168.96 346.3 164.9 342.19 162.14 339.36L158.96 336.13L158.15 335.3C157.96 335.11 157.88 335.01 157.88 335.01L158.17 335.27L159.02 336.07C159.76 336.81 160.837 337.87 162.25 339.25C165.04 342.05 169.14 346.13 174.05 351.54C175.26 352.91 176.54 354.34 177.78 355.94C178.443 356.74 179.029 357.6 179.53 358.51C179.665 358.746 179.779 358.994 179.87 359.25L180.07 360.03C180.22 360.55 180.31 361.08 180.43 361.62C181.32 365.91 182.1 370.55 182.94 375.5C184.61 385.39 186.38 396.5 188.23 408.5V408.61C187.52 410.92 186.86 413.28 186.29 415.7C185.663 418.132 185.284 420.621 185.16 423.13L184.91 422.88L215.4 422.82L215.14 423.02C215.608 420.775 215.253 418.436 214.14 416.43C213.851 415.946 213.516 415.49 213.14 415.07C212.746 414.673 212.318 414.311 211.86 413.99C210.945 413.348 209.932 412.859 208.86 412.54C208.711 412.491 208.564 412.434 208.42 412.37C208.248 412.289 208.102 412.161 208 412C207.816 411.75 207.671 411.473 207.57 411.18C207.362 410.633 207.195 410.072 207.07 409.5C206.81 408.37 206.63 407.24 206.47 406.11C205.85 401.59 205.53 397.11 205.22 392.73C204.64 383.95 204.22 375.47 203.82 367.4C203.42 359.33 202.98 351.66 202.14 344.53C201.944 342.784 201.647 341.051 201.25 339.34C200.803 337.667 200.333 336.033 199.84 334.44C198.84 331.25 197.84 328.21 196.92 325.31C193.06 313.71 189.74 304.39 187.47 297.94C186.33 294.73 185.47 292.23 184.84 290.51C184.55 289.68 184.32 289.03 184.17 288.58C184.02 288.13 183.9 287.9 183.9 287.9Z" fill="#263238"/>
<path d="M157.27 380C157.071 379.874 156.883 379.73 156.71 379.57L155.18 378.27C153.88 377.11 152.04 375.37 149.91 373.09C144.402 367.104 139.301 360.757 134.64 354.09C129.911 347.48 125.634 340.558 121.84 333.37C120.41 330.59 119.39 328.28 118.74 326.66C118.46 325.88 118.23 325.26 118.05 324.78C117.961 324.563 117.89 324.339 117.84 324.11C117.965 324.309 118.069 324.52 118.15 324.74L118.93 326.58C119.64 328.17 120.7 330.45 122.17 333.2C126.05 340.318 130.358 347.194 135.07 353.79C139.722 360.42 144.768 366.764 150.18 372.79C152.27 375.1 154.06 376.87 155.32 378.07L156.78 379.44C156.96 379.612 157.124 379.799 157.27 380V380Z" fill="#263238"/>
<path d="M140.5 376.17C142.349 382.079 143.572 388.166 144.15 394.33C144.168 394.987 144.437 395.613 144.902 396.078C145.367 396.543 145.993 396.812 146.65 396.83C147.312 396.827 147.947 396.563 148.415 396.095C148.883 395.627 149.147 394.992 149.15 394.33C148.561 387.717 147.277 381.184 145.32 374.84C145.144 374.201 144.721 373.658 144.144 373.331C143.567 373.003 142.884 372.919 142.245 373.095C141.606 373.271 141.063 373.694 140.736 374.271C140.408 374.848 140.324 375.531 140.5 376.17V376.17Z" fill="#FF725E"/>
<path d="M111.63 273.68C110.78 252.29 109.24 227.32 111.57 219.18C113.9 211.04 130.27 194.96 139.68 191.18C149.09 187.4 164.68 192.42 169.38 196.59L199 189.47C199 189.47 204.81 202.94 197.65 213.74C190.49 224.54 169.37 224.42 169.37 224.42C169.37 224.42 167.48 236.17 176.51 237.2C185.54 238.23 197.56 236.82 198.71 246.64L180.16 248.3L181.16 264.66L145.86 283.42L112.81 273.88" fill="#FF725E"/>
<path d="M137 204.21C137.106 204.496 137.17 204.796 137.19 205.1L137.56 207.68C137.86 210.05 138.26 213.26 138.76 217.17C139.26 221.08 139.76 226 140.41 231.27C140.785 234.056 141.006 236.86 141.07 239.67C141.179 242.739 140.673 245.8 139.58 248.67C138.396 251.586 136.132 253.933 133.26 255.22C130.576 256.328 127.617 256.59 124.78 255.97C122.226 255.443 119.85 254.269 117.88 252.56C116.216 251.05 114.858 249.233 113.88 247.21C112.458 244.299 111.697 241.11 111.65 237.87C111.624 236.999 111.654 236.127 111.74 235.26C111.749 234.954 111.803 234.651 111.9 234.36C111.98 234.36 111.85 235.61 111.99 237.85C112.174 241.01 113.008 244.097 114.44 246.92C115.44 248.851 116.798 250.575 118.44 252C120.332 253.598 122.6 254.689 125.03 255.17C127.711 255.74 130.502 255.479 133.03 254.42C135.694 253.218 137.791 251.032 138.88 248.32C139.922 245.562 140.411 242.627 140.32 239.68C140.263 236.902 140.062 234.128 139.72 231.37C139.17 226.08 138.67 221.3 138.25 217.24C137.83 213.18 137.57 210.09 137.34 207.71C137.26 206.71 137.19 205.81 137.13 205.12C137.051 204.823 137.008 204.517 137 204.21V204.21Z" fill="#263238"/>
<path d="M190.17 191.73C190.133 193.328 190.713 194.879 191.79 196.06C192.856 197.106 194.176 197.857 195.62 198.24C197.428 198.976 199.439 199.04 201.29 198.42C201.287 196.044 200.916 193.683 200.19 191.42C200.117 191.062 199.971 190.722 199.761 190.423C199.551 190.124 199.282 189.871 198.97 189.68C198.579 189.54 198.16 189.499 197.75 189.56C195.098 189.756 192.516 190.506 190.17 191.76" fill="#263238"/>
<g opacity="0.3">
<path d="M111.94 239.74C112.74 245.03 114.2 250.82 117.81 254.74C121.42 258.66 127.11 261 132.27 259.62C138.62 257.92 142.54 251.17 143.05 244.62C143.56 238.07 141.37 231.62 139.21 225.44C140.21 231.35 141.28 237.44 139.89 243.28C138.5 249.12 134.06 254.65 128.11 255.36C126.029 255.542 123.934 255.223 122.001 254.429C120.068 253.636 118.354 252.392 117 250.8C114.14 247.77 112.355 243.884 111.92 239.74" fill="black"/>
</g>
<path d="M201.39 200.76C201.471 201.274 201.471 201.796 201.39 202.31C201.277 203.716 201.053 205.11 200.72 206.48C200.229 208.52 199.511 210.499 198.58 212.38C197.454 214.731 195.826 216.807 193.81 218.46C191.754 220.029 189.462 221.261 187.02 222.11C185.053 222.823 183.029 223.368 180.97 223.74C179.589 224.004 178.193 224.181 176.79 224.27C176.28 224.354 175.76 224.354 175.25 224.27C175.25 224.13 177.42 223.95 180.84 223.15C182.843 222.697 184.811 222.103 186.73 221.37C189.072 220.506 191.272 219.299 193.26 217.79C195.173 216.213 196.736 214.255 197.85 212.04C198.789 210.223 199.546 208.317 200.11 206.35C201.08 202.94 201.23 200.75 201.39 200.76Z" fill="#263238"/>
<path d="M158.23 205.24C157.571 205.511 157.045 206.03 156.764 206.685C156.484 207.34 156.472 208.079 156.73 208.743C156.989 209.407 157.498 209.943 158.148 210.236C158.798 210.528 159.536 210.554 160.205 210.308C160.874 210.061 161.419 209.563 161.724 208.918C162.028 208.274 162.068 207.536 161.834 206.863C161.6 206.19 161.111 205.635 160.473 205.319C159.835 205.002 159.097 204.949 158.42 205.17" fill="#263238"/>
<path d="M148 208.41C147.67 208.54 147.12 208.11 146.71 207.17C146.212 205.921 146.107 204.55 146.41 203.24C146.669 201.922 147.329 200.717 148.3 199.79C149.06 199.1 149.74 198.93 149.99 199.18C150.5 199.74 149.47 201.51 148.99 203.8C148.51 206.09 148.74 208.11 148 208.41Z" fill="#263238"/>
<path d="M184.86 383.35C184.86 383.41 183.86 383.35 181.99 383.44C180.872 383.491 179.759 383.622 178.66 383.83C177.21 384.093 175.814 384.596 174.53 385.32C171.66 386.91 168.87 389.76 165.67 392.71C162.47 395.66 159.58 399.61 155.42 402.6C153.397 404.08 151.06 405.072 148.59 405.5C146.2 405.89 143.89 405.84 141.72 406.01C139.677 406.077 137.672 406.582 135.84 407.49C134.275 408.339 132.932 409.545 131.92 411.01C130.417 413.133 129.626 415.679 129.66 418.28C129.715 419.231 129.839 420.177 130.03 421.11C129.68 420.21 129.487 419.256 129.46 418.29C129.339 415.624 130.098 412.992 131.62 410.8C132.642 409.27 134.013 408.005 135.62 407.11C137.499 406.155 139.563 405.619 141.67 405.54C143.87 405.35 146.17 405.38 148.49 405C150.882 404.575 153.146 403.61 155.11 402.18C159.18 399.25 162.11 395.37 165.33 392.37C168.55 389.37 171.33 386.6 174.33 384.99C175.66 384.275 177.1 383.785 178.59 383.54C179.704 383.352 180.831 383.251 181.96 383.24C182.89 383.24 183.61 383.24 184.1 383.29C184.355 383.29 184.609 383.31 184.86 383.35V383.35Z" fill="#263238"/>
<path d="M147.62 413.82C147.921 413.746 148.231 413.719 148.54 413.74C149.378 413.751 150.213 413.852 151.03 414.04C153.776 414.641 156.263 416.092 158.137 418.187C160.011 420.282 161.178 422.914 161.47 425.71C161.56 426.544 161.56 427.386 161.47 428.22C161.461 428.528 161.4 428.832 161.29 429.12C161.19 429.12 161.4 427.81 161.09 425.75C160.71 423.063 159.541 420.55 157.73 418.529C155.92 416.508 153.549 415.071 150.92 414.4C148.93 413.86 147.61 413.92 147.62 413.82Z" fill="#263238"/>
<path d="M157.49 427C157.406 427.804 157.154 428.58 156.75 429.28C155.863 431.031 154.509 432.502 152.837 433.531C151.166 434.56 149.243 435.106 147.28 435.11C146.472 435.166 145.662 435.039 144.91 434.74C144.91 434.66 145.82 434.83 147.26 434.74C149.137 434.642 150.959 434.075 152.56 433.089C154.161 432.104 155.488 430.732 156.42 429.1C157.15 427.85 157.4 427 157.49 427Z" fill="#263238"/>
<path d="M148.86 420.55C148.86 420.63 148.06 420.79 146.86 421.3C145.279 421.952 143.858 422.94 142.696 424.195C141.534 425.45 140.658 426.943 140.13 428.57C139.71 429.82 139.62 430.64 139.53 430.63C139.463 429.897 139.548 429.158 139.78 428.46C140.241 426.73 141.121 425.14 142.341 423.83C143.562 422.52 145.087 421.531 146.78 420.95C147.436 420.668 148.146 420.531 148.86 420.55Z" fill="#263238"/>
<path d="M205.81 423.69C205.829 423.019 205.899 422.35 206.02 421.69C206.229 420.088 206.082 418.459 205.59 416.92C205.041 415.414 203.935 414.175 202.5 413.46C201.88 413.219 201.237 413.045 200.58 412.94C201.269 412.752 202.003 412.815 202.65 413.12C203.441 413.453 204.155 413.947 204.745 414.57C205.335 415.193 205.79 415.932 206.08 416.74C206.612 418.352 206.715 420.076 206.38 421.74C206.305 422.418 206.112 423.078 205.81 423.69V423.69Z" fill="#263238"/>
<path d="M107.07 412.23C107.07 412.32 106.14 412.23 104.7 412.42C102.823 412.694 101.05 413.456 99.56 414.63C98.0896 415.834 96.9561 417.398 96.27 419.17C95.75 420.53 95.66 421.45 95.57 421.44C95.506 420.623 95.6291 419.802 95.93 419.04C96.5314 417.144 97.6801 415.467 99.2316 414.222C100.783 412.976 102.668 412.217 104.65 412.04C105.461 411.917 106.289 411.982 107.07 412.23V412.23Z" fill="#263238"/>
<path d="M231.57 403.11C231.57 403.11 232.05 402.48 232.81 401.28C233.875 399.592 234.709 397.769 235.29 395.86C236.137 393.021 236.509 390.061 236.39 387.1C236.261 383.479 235.411 379.919 233.89 376.63C232.385 373.334 230.031 370.498 227.07 368.41C224.675 366.699 221.951 365.504 219.07 364.9C217.116 364.502 215.098 364.54 213.16 365.01C212.636 365.158 212.122 365.339 211.62 365.55C211.45 365.639 211.268 365.703 211.08 365.74C211.234 365.622 211.402 365.525 211.58 365.45C212.066 365.193 212.575 364.982 213.1 364.82C215.05 364.257 217.106 364.161 219.1 364.54C222.071 365.089 224.888 366.273 227.36 368.01C228.832 369.016 230.161 370.217 231.31 371.58C232.531 373.056 233.562 374.678 234.38 376.41C235.934 379.762 236.788 383.396 236.89 387.09C236.991 390.099 236.575 393.102 235.66 395.97C235.038 397.898 234.142 399.727 233 401.4C232.58 401.98 232.24 402.4 232 402.7C231.872 402.852 231.728 402.99 231.57 403.11V403.11Z" fill="#263238"/>
<path d="M110.58 352C105.924 350.936 101.042 351.556 96.8 353.75C94.1086 355.097 91.7409 357.011 89.86 359.36C88.8885 360.558 88.1245 361.91 87.6 363.36C87.1379 364.73 86.8031 366.139 86.6 367.57C86.2653 370.018 86.1215 372.489 86.17 374.96C86.17 377.07 86.25 378.78 86.28 379.96C86.28 380.5 86.28 380.96 86.28 381.32C86.3054 381.479 86.3054 381.641 86.28 381.8C86.2337 381.648 86.2101 381.489 86.21 381.33C86.21 380.95 86.14 380.51 86.1 379.97C86.01 378.78 85.89 377.07 85.82 374.97C85.7242 372.478 85.8346 369.983 86.15 367.51C86.3441 366.045 86.6789 364.601 87.15 363.2C87.6846 361.688 88.4725 360.278 89.48 359.03C91.4083 356.622 93.8469 354.672 96.62 353.32C98.8715 352.209 101.303 351.508 103.8 351.25C105.469 351.08 107.155 351.161 108.8 351.49C109.251 351.572 109.695 351.686 110.13 351.83C110.287 351.867 110.438 351.925 110.58 352V352Z" fill="#263238"/>
<path d="M69.33 330.31C69.1934 329.96 69.1059 329.594 69.07 329.22C68.8915 328.228 68.7713 327.226 68.71 326.22C68.2542 319.453 69.6838 312.693 72.84 306.69C73.3021 305.761 73.8232 304.863 74.4 304C74.5842 303.673 74.8093 303.37 75.07 303.1C75.15 303.15 74.28 304.49 73.16 306.79C70.2354 312.808 68.8343 319.453 69.08 326.14C69.17 328.73 69.42 330.3 69.33 330.31Z" fill="#263238"/>
<path d="M66.12 331.87C65.9801 331.52 65.8828 331.154 65.83 330.78C65.66 330.08 65.49 329.04 65.32 327.78C64.4977 321.052 65.1599 314.225 67.26 307.78C67.67 306.55 68.04 305.57 68.34 304.91C68.4639 304.559 68.6284 304.223 68.83 303.91C68.92 303.91 68.33 305.44 67.61 307.91C65.7218 314.36 65.0704 321.108 65.69 327.8C65.92 330.28 66.21 331.86 66.12 331.87Z" fill="#263238"/>
<g opacity="0.3">
<path d="M131.35 371.52C135.513 376.095 138.487 381.624 140.01 387.62C140.452 388.914 140.469 390.315 140.06 391.62C138.91 394.32 135.2 394.44 132.67 395.9C130.54 397.12 129.23 399.34 128.01 401.47L115.61 423.03C119.44 422.71 120.86 423.11 124.69 422.8L130.85 422.93C130.62 423.03 129.65 420 129.57 418.58C129.32 414.24 132.25 408.99 136.15 407.06C141.04 404.63 146.67 406.66 151.64 404.38C156.39 402.19 159.22 398.85 162.31 395.79C166.19 391.94 170.04 386.79 175.01 384.56C177.26 383.56 182.63 383.44 182.63 383.44C180.08 380.44 175.4 380.59 171.63 381.61C167.86 382.63 163.92 384.3 160.07 383.43C156.84 382.71 154.27 380.32 151.88 378.03C145.75 372.17 139.41 366.03 136.67 357.96L131.56 371.17" fill="black"/>
</g>
<g opacity="0.3">
<path d="M215.35 423.05C217.35 418.19 212.81 412.45 210.99 407.53C209.17 402.61 209.55 397.05 209.56 391.74C209.588 380.521 207.778 369.373 204.2 358.74C203.8 373.32 205.47 388.8 206.34 403.35C206.52 406.44 206.28 410.01 208.55 412.11C209.71 413.19 210.4 412.72 211.7 413.62C213 414.52 215.55 416.62 215.35 423.02" fill="black"/>
</g>
<path d="M156.46 279.43C154.611 278.774 152.911 277.758 151.459 276.439C150.007 275.121 148.831 273.527 148 271.75C149.181 273.26 150.453 274.696 151.81 276.05C153.285 277.277 154.838 278.406 156.46 279.43V279.43Z" fill="#263238"/>
<path d="M160.21 277.38C157.004 276.414 154.197 274.435 152.21 271.74C152.33 271.64 153.84 273.23 156.05 274.74C158.26 276.25 160.27 277.23 160.21 277.38Z" fill="#263238"/>
<path d="M165.15 277.2C163.576 276.922 162.091 276.27 160.82 275.3C159.452 274.476 158.298 273.343 157.45 271.99C157.57 271.88 158.98 273.44 161.11 274.87C163.24 276.3 165.2 277.05 165.15 277.2Z" fill="#263238"/>
<path d="M131.14 320.15C129.32 319.365 127.72 318.146 126.48 316.6C125.117 315.167 124.13 313.418 123.61 311.51C124.59 313.166 125.683 314.753 126.88 316.26C128.212 317.65 129.635 318.949 131.14 320.15V320.15Z" fill="#263238"/>
<path d="M134.83 320.2C132.002 318.453 129.827 315.825 128.64 312.72C128.78 312.65 129.81 314.58 131.52 316.64C133.23 318.7 134.92 320.08 134.83 320.2Z" fill="#263238"/>
<path d="M141.26 321.45C139.963 320.438 138.776 319.291 137.72 318.03C136.535 316.886 135.476 315.619 134.56 314.25C135.856 315.268 137.042 316.417 138.1 317.68C139.283 318.822 140.343 320.085 141.26 321.45Z" fill="#263238"/>
<path d="M121.42 238.23C121.42 238.23 120.97 238.05 120.42 237.51C119.772 236.785 119.288 235.929 119 235C118.682 234.079 118.562 233.101 118.65 232.13C118.73 231.39 118.91 230.96 118.97 230.97C118.975 232.274 119.15 233.571 119.49 234.83C119.975 236.046 120.625 237.19 121.42 238.23V238.23Z" fill="#263238"/>
<path d="M123.18 237.46C122.425 236.742 121.9 235.816 121.67 234.8C121.286 233.831 121.193 232.771 121.4 231.75C121.56 231.75 121.68 233.09 122.17 234.64C122.66 236.19 123.3 237.38 123.18 237.46Z" fill="#263238"/>
<path d="M127.15 240C125.259 237.831 124.049 235.153 123.67 232.3C123.82 232.3 124.35 234.08 125.31 236.19C126.27 238.3 127.27 239.86 127.15 240Z" fill="#263238"/>
<path d="M244.92 55.35C237.17 60.1 234.54 71.57 234.21 80.65C233.88 89.73 236.35 98.65 238.36 107.52C240.37 116.39 241.92 125.68 239.74 134.52C237.74 142.7 232.62 151.32 236.29 158.9C239.06 164.62 246.15 167.59 248.11 173.64C250.39 180.7 244.62 187.64 239.32 192.79C240.593 194.719 242.536 196.107 244.773 196.685C247.01 197.263 249.382 196.991 251.43 195.92C251.363 196.995 251.074 198.045 250.582 199.004C250.09 199.962 249.405 200.809 248.57 201.49C251.599 202.218 254.774 202.059 257.716 201.033C260.657 200.006 263.241 198.155 265.16 195.7C264.43 198.22 263.69 200.7 262.96 203.26C269.046 201.822 274.334 198.071 277.7 192.8L280.25 197.58C290 190.88 296.78 180.34 300.11 168.98C303.44 157.62 303.47 145.49 301.56 133.81C298.722 117.283 292.144 101.623 282.327 88.0284C272.51 74.4333 259.715 63.2626 244.92 55.37" fill="#263238"/>
<path d="M358.34 138.63C354.87 134.46 350.59 130.32 350.11 124.91C349.9 122.53 350.47 120.08 349.93 117.74C348.53 111.74 340.69 109.33 338.33 103.61C335.33 96.43 342.11 86.93 337.11 80.98C334.71 78.13 330.58 77.57 327.43 75.58C319.43 70.51 321.37 56.58 302.18 46.44L303.61 77.06C310.077 102.957 315.214 129.168 319 155.59L362.31 153.45C364.78 148.63 361.82 142.8 358.34 138.63Z" fill="#263238"/>
<path d="M235.75 66.51C235.979 62.6898 236.967 58.9535 238.657 55.5195C240.346 52.0855 242.703 49.0227 245.59 46.51C251.94 41.03 260.51 38.59 268.89 38.51C277.27 38.43 285.56 40.42 293.54 43C298.02 44.45 302.54 46.13 306.17 49.12C312.81 54.57 315.45 63.38 317.76 71.65C319.62 78.34 321.5 85.37 319.96 92.14C319.226 95.2524 317.803 98.1602 315.795 100.649C313.787 103.138 311.247 105.144 308.36 106.52" fill="#263238"/>
<path d="M238.07 60.75C233.52 68.4696 231.727 77.5062 232.986 86.3783C234.245 95.2504 238.481 103.431 245 109.58C245.223 90.2745 247.126 71.0251 250.69 52.05" fill="#263238"/>
<path d="M236.31 87.31C234.31 73.78 239.68 55.51 253.31 54.09L285.76 55.32C296.17 55.72 304.54 62.64 307.45 72.64C307.59 73.14 307.51 72.51 307.58 72.9L322.66 154C323.835 160.387 322.438 166.98 318.775 172.342C315.111 177.705 309.477 181.402 303.1 182.63V182.63C296.782 183.845 290.239 182.537 284.874 178.985C279.509 175.433 275.749 169.921 274.4 163.63C272.99 157.14 271.34 149.48 271.34 149.52C271.34 149.56 253.68 150.31 245.41 128.81C241.3 118.11 238.53 102.34 236.31 87.31Z" fill="#9D6054"/>
<path d="M265.39 73.77C261.467 76.0027 257.127 77.4083 252.64 77.9C252.64 77.74 255.54 77.1 259.05 75.96C262.56 74.82 265.32 73.63 265.39 73.77Z" fill="#724A44"/>
<path d="M260.25 74.05C257.815 75.4515 255.059 76.199 252.25 76.22C253.554 75.7528 254.891 75.3818 256.25 75.11C257.556 74.6591 258.892 74.3048 260.25 74.05V74.05Z" fill="#724A44"/>
<path d="M279 116.1C278.86 116.15 278.47 115.29 277.45 114.91C276.43 114.53 275.57 114.91 275.5 114.72C275.43 114.53 275.64 114.46 276.04 114.32C276.568 114.15 277.139 114.175 277.65 114.39C278.17 114.586 278.604 114.958 278.88 115.44C279.06 115.82 279.05 116.09 279 116.1Z" fill="#724A44"/>
<path d="M245 103.68C245.153 104.426 245.59 105.082 246.22 105.51C246.849 105.938 247.621 106.103 248.37 105.97C248.74 105.923 249.096 105.801 249.418 105.613C249.739 105.425 250.02 105.175 250.243 104.876C250.466 104.578 250.626 104.237 250.715 103.876C250.804 103.514 250.819 103.138 250.76 102.77C250.61 102.025 250.174 101.369 249.546 100.941C248.919 100.513 248.148 100.348 247.4 100.48C247.031 100.529 246.675 100.651 246.353 100.839C246.032 101.027 245.751 101.278 245.528 101.576C245.304 101.874 245.142 102.213 245.052 102.575C244.961 102.936 244.944 103.312 245 103.68V103.68Z" fill="#263238"/>
<path d="M242.26 95.91C242.69 96.21 244.51 94.15 247.59 93.5C250.67 92.85 253.24 93.91 253.49 93.5C253.62 93.3 253.12 92.7 251.98 92.19C250.455 91.557 248.773 91.4069 247.16 91.76C245.564 92.0972 244.115 92.9302 243.02 94.14C242.23 95 242.05 95.78 242.26 95.91Z" fill="#263238"/>
<path d="M272.59 97.65C272.731 98.4136 273.169 99.09 273.809 99.5307C274.448 99.9713 275.236 100.14 276 100C276.369 99.9512 276.724 99.829 277.045 99.6407C277.367 99.4524 277.647 99.2018 277.869 98.9036C278.092 98.6055 278.253 98.2657 278.342 97.9044C278.432 97.5432 278.448 97.1677 278.39 96.8C278.24 96.0546 277.805 95.3973 277.177 94.9677C276.55 94.5382 275.779 94.3704 275.03 94.5C274.661 94.5431 274.305 94.6593 273.982 94.8417C273.659 95.0242 273.376 95.2693 273.148 95.5626C272.921 95.8559 272.755 96.1916 272.659 96.55C272.563 96.9085 272.54 97.2824 272.59 97.65V97.65Z" fill="#263238"/>
<path d="M272.57 90.06C273.01 90.36 274.83 88.3 277.9 87.65C280.97 87 283.55 88.07 283.81 87.65C283.93 87.45 283.43 86.85 282.3 86.35C280.774 85.7071 279.087 85.5533 277.47 85.91C275.871 86.2466 274.421 87.0837 273.33 88.3C272.54 89.19 272.36 89.93 272.57 90.06Z" fill="#263238"/>
<path d="M266.27 115.21C266.27 115.03 264.27 115.11 261.09 115.37C260.29 115.46 259.51 115.46 259.27 114.95C259.018 114.16 259.018 113.31 259.27 112.52C259.6 110.46 259.95 108.31 260.32 106.05C261.73 96.86 262.57 89.37 262.2 89.32C261.83 89.27 260.39 96.67 258.97 105.86C258.637 108.12 258.323 110.28 258.03 112.34C257.737 113.393 257.826 114.516 258.28 115.51C258.452 115.762 258.679 115.972 258.944 116.122C259.209 116.273 259.506 116.361 259.81 116.38C260.269 116.402 260.729 116.369 261.18 116.28C264.36 115.79 266.3 115.39 266.27 115.21Z" fill="#263238"/>
<path d="M299.15 135.26C299.15 135.26 295.15 152.09 272.47 154.75L271.34 149.52C281.751 147.433 291.379 142.496 299.15 135.26V135.26Z" fill="#724A44"/>
<path d="M269.14 122.34C269.569 121.48 270.21 120.743 271.002 120.198C271.795 119.654 272.713 119.321 273.67 119.23C274.361 119.146 275.062 119.203 275.731 119.397C276.399 119.592 277.021 119.919 277.56 120.36C278.075 120.788 278.447 121.363 278.626 122.008C278.805 122.654 278.782 123.338 278.56 123.97C278.184 124.626 277.62 125.155 276.941 125.488C276.262 125.822 275.499 125.944 274.75 125.84C273.187 125.638 271.681 125.125 270.32 124.33C269.922 124.158 269.56 123.914 269.25 123.61C269.103 123.464 269.002 123.279 268.959 123.076C268.917 122.873 268.934 122.663 269.01 122.47" fill="#724A44"/>
<path d="M275.76 115.41C275.26 115.49 275.96 118.83 273.61 121.8C271.26 124.77 267.61 125.16 267.7 125.63C267.7 125.85 268.63 126.11 270.14 125.83C272.109 125.452 273.88 124.39 275.14 122.83C276.34 121.334 276.91 119.429 276.73 117.52C276.53 116.09 276 115.35 275.76 115.41Z" fill="#263238"/>
<path d="M269.9 81.23C270.38 82 273.36 80.95 277.06 80.62C280.76 80.29 283.88 80.62 284.2 79.8C284.33 79.4 283.66 78.72 282.31 78.16C280.531 77.5039 278.626 77.261 276.739 77.4498C274.853 77.6387 273.034 78.2543 271.42 79.25C270.21 80.06 269.69 80.86 269.9 81.23Z" fill="#263238"/>
<path d="M241.5 86.78C242.19 87.36 244.15 86.19 246.69 85.61C249.23 85.03 251.48 85.08 251.83 84.25C251.97 83.85 251.48 83.25 250.4 82.76C248.971 82.2358 247.418 82.1459 245.938 82.5018C244.457 82.8577 243.115 83.6433 242.08 84.76C241.33 85.71 241.19 86.49 241.5 86.78Z" fill="#263238"/>
<path d="M238 65.69C238.64 62.05 241.88 59.25 245.45 58.29C249.02 57.33 252.84 57.94 256.36 59.08C271.25 63.89 281.97 77.49 296.76 82.6C300.4 83.86 304.28 84.6 307.57 86.6C310.86 88.6 313.57 92.34 312.75 96.11C314.127 93.3781 315.1 90.4611 315.64 87.45C315.903 85.942 315.84 84.3951 315.456 82.9134C315.071 81.4317 314.373 80.0496 313.41 78.86C311.86 77.14 309.54 76.07 308.51 73.99C307.61 72.16 307.94 69.99 307.43 67.99C306.772 66.0108 305.655 64.2153 304.17 62.75C297.1 54.75 288.28 48.1 278.1 44.95C271.436 42.7933 264.309 42.4993 257.49 44.1C250.644 45.7317 244.612 49.7664 240.49 55.47C238.15 58.82 235.67 62.31 237.99 65.69" fill="#263238"/>
<path d="M321.21 99.47C320.63 99.32 320.57 97.8 320.13 95.4C319.919 94.0633 319.476 92.7739 318.82 91.59C318.643 91.3038 318.442 91.0329 318.22 90.78C318.114 90.6593 318.001 90.5457 317.88 90.44L317.4 90C316.682 89.3627 315.916 88.781 315.11 88.26C314.447 87.7984 313.694 87.4816 312.9 87.33C312.64 87.33 312.6 87.39 312.72 87.4L311.97 87.72L311.17 88.1C310.134 88.6078 309.16 89.2355 308.27 89.97C307.8 90.35 307.34 90.77 306.87 91.22L306.52 91.57L305.92 92.13C305.515 92.4864 305.091 92.8202 304.65 93.13C302.856 94.3706 300.805 95.1909 298.65 95.53C297.337 95.733 295.997 95.6889 294.7 95.4L294.16 95.26L293.73 95.11C293.45 95.01 293.15 94.92 292.88 94.8C292.324 94.5643 291.782 94.2938 291.26 93.99C289.368 92.8362 287.699 91.3528 286.33 89.61C285 88 284 86.43 283 85C279.43 79.8047 275.067 75.202 270.07 71.36C265.945 68.1862 261.452 65.5203 256.69 63.42C253.571 61.915 250.255 60.8578 246.84 60.28C244.45 59.93 242.95 60.02 242.74 59.44C242.53 58.86 243.74 57.72 246.64 57.01C249.54 56.3 253.87 56.49 258.64 57.81C264.32 59.3282 269.707 61.7817 274.58 65.07C280.616 69.1031 285.826 74.252 289.93 80.24C290.93 81.78 291.93 83.17 292.81 84.33C293.555 85.3258 294.457 86.1937 295.48 86.9C295.681 87.0317 295.892 87.1487 296.11 87.25C296.214 87.3027 296.321 87.3494 296.43 87.39L296.58 87.45H296.65C296.974 87.549 297.315 87.5763 297.65 87.53C298.661 87.4043 299.632 87.0633 300.5 86.53C300.72 86.4 300.92 86.27 301.11 86.14L301.38 85.94L301.87 85.52C302.54 84.96 303.24 84.43 303.96 83.94C305.381 82.9745 306.916 82.1885 308.53 81.6C308.91 81.47 309.28 81.34 309.65 81.23L310.19 81.06L310.82 80.89C312.036 80.5644 313.319 80.5921 314.52 80.97C316.112 81.4889 317.57 82.3528 318.79 83.5C319.756 84.3607 320.633 85.3154 321.41 86.35C321.6 86.6 321.75 86.79 321.95 87.1C322.154 87.3872 322.337 87.6879 322.5 88C322.799 88.5621 323.043 89.1515 323.23 89.76C323.748 91.5895 323.823 93.5157 323.45 95.38C322.81 98.34 321.74 99.62 321.21 99.47Z" fill="#263238"/>
<path d="M308.75 90C308.85 89.31 319.56 82.63 322.36 94.93C325.09 106.93 312.49 107.12 312.36 106.79C312.23 106.46 308.75 90 308.75 90Z" fill="#9D6054"/>
<path d="M315.06 101.41C315.11 101.41 315.3 101.51 315.69 101.59C316.235 101.688 316.797 101.573 317.26 101.27C318.41 100.52 319.03 98.27 318.6 96.11C318.405 95.0775 317.977 94.103 317.35 93.26C317.154 92.9102 316.876 92.6135 316.54 92.3956C316.204 92.1778 315.819 92.0454 315.42 92.01C315.167 92.0034 314.919 92.0844 314.719 92.2392C314.518 92.3941 314.377 92.6134 314.32 92.86C314.23 93.23 314.32 93.45 314.32 93.48C314.32 93.51 314.01 93.34 314 92.83C314 92.5177 314.106 92.2145 314.3 91.97C314.573 91.6493 314.961 91.4483 315.38 91.41C315.894 91.3951 316.402 91.5123 316.858 91.7505C317.313 91.9886 317.699 92.3397 317.98 92.77C318.723 93.6902 319.227 94.7788 319.45 95.94C319.91 98.37 319.19 100.94 317.57 101.79C317.267 101.959 316.929 102.056 316.583 102.075C316.236 102.094 315.89 102.034 315.57 101.9C315.15 101.69 315 101.44 315.06 101.41Z" fill="#724A44"/>
<path d="M268.51 176.92C266.099 177.954 263.918 179.459 262.098 181.348C260.277 183.238 258.854 185.472 257.91 187.92C254.6 196.3 240.22 247.31 240.22 247.31L210.22 251.16L207.95 278.88C216.626 281.141 225.478 282.666 234.41 283.44C245.47 284.44 263.35 282.79 268.01 280.18C272.67 277.57 267.55 178.11 267.55 178.11L268.51 176.92Z" fill="#E0E0E0"/>
<path d="M274.59 169.35C284.09 180.14 309.05 158.26 320.16 140.87L284.42 308.72L278.32 307.23L274.59 169.35Z" fill="#455A64"/>
<path d="M273.85 162L271.55 172.9L263 180.64C262.89 194.88 270.59 223.32 268.67 229.02C265.94 237.17 264.85 245.61 268.12 257.49C269.79 263.57 279.9 307.23 279.9 307.23C279.9 307.23 277 421.48 277.32 423H300.56L277.87 271L277 175.79L273.85 162Z" fill="#E0E0E0"/>
<path d="M422.94 350.56C415.74 332.56 389.11 286.5 389.11 286.5C389.11 286.5 386.95 270.31 385.11 234.68C383.27 199.05 367.88 159.11 364.64 153C361.4 146.89 325.4 140.88 325.4 140.88L319.1 131.71C319.1 131.71 305.68 167 305 168C304.32 169 289.91 211.36 288.47 223.24C287.03 235.12 283 299.1 283 299.1L300.56 423H431.48C431.48 423 430.14 368.55 422.94 350.56Z" fill="#E0E0E0"/>
<path d="M301.67 346.08L366.79 338.73H367.02V338.96C368.87 358.89 371.02 382.55 373.42 407.84C373.68 410.63 373.93 413.39 374.19 416.14V416.41H374L321.65 417.61H321.47L321.42 417.43C315.62 396.19 310.75 378.34 307.32 365.79C305.58 359.54 304.21 354.61 303.26 351.23L302.15 347.39L301.84 346.39C301.76 346.17 301.71 346.07 301.72 346.07C301.783 346.168 301.836 346.272 301.88 346.38C301.96 346.6 302.08 346.92 302.22 347.38C302.51 348.24 302.9 349.52 303.4 351.2C304.4 354.55 305.82 359.47 307.59 365.73C311.12 378.24 316.06 396.07 321.87 417.32L321.64 417.15L373.99 415.89L373.74 416.18C373.493 413.433 373.237 410.667 372.97 407.88C370.65 382.58 368.48 358.88 366.65 338.99L366.89 339.19L301.67 346.08Z" fill="#263238"/>
<path d="M368.32 355.25C368.32 355.39 354.32 356.53 337.1 357.79C319.88 359.05 305.85 359.96 305.84 359.79C305.83 359.62 319.84 358.51 337.06 357.25C354.28 355.99 368.31 355.1 368.32 355.25Z" fill="#263238"/>
<path d="M388.63 286.31C388.397 286.51 388.138 286.678 387.86 286.81C387.35 287.1 386.58 287.49 385.62 287.93C383.101 289.069 380.456 289.908 377.74 290.43C375.025 290.923 372.269 291.151 369.51 291.11C368.45 291.11 367.6 291.06 367.01 291.01C366.703 291.013 366.396 290.973 366.1 290.89C367.23 290.775 368.365 290.725 369.5 290.74C372.234 290.674 374.958 290.4 377.65 289.92C380.329 289.396 382.951 288.616 385.48 287.59C386.508 287.11 387.559 286.683 388.63 286.31V286.31Z" fill="#263238"/>
<path d="M389.11 286.5C388.443 287.334 387.699 288.103 386.89 288.8C385.46 290.16 383.43 291.98 381.15 293.94L375.32 298.94C374.544 299.659 373.722 300.327 372.86 300.94C373.521 300.101 374.264 299.33 375.08 298.64C376.51 297.28 378.54 295.46 380.81 293.49L386.64 288.49C387.415 287.769 388.24 287.104 389.11 286.5Z" fill="#263238"/>
<path d="M344.62 383.34C342.11 382.43 339.37 382.07 337.05 383.4C336.148 383.992 335.432 384.827 334.986 385.81C334.54 386.792 334.382 387.881 334.53 388.95C334.869 391.099 335.927 393.07 337.53 394.54C338.504 395.651 339.854 396.363 341.32 396.54C342.977 396.472 344.54 395.753 345.67 394.54C346.943 393.462 347.932 392.089 348.55 390.54C348.849 389.758 348.964 388.917 348.886 388.083C348.808 387.248 348.539 386.444 348.1 385.73C347.02 384.13 345.04 383.43 343.19 382.83" fill="#FF725E"/>
<path d="M336.07 382C336.284 380.938 336.169 379.835 335.74 378.84C335.521 378.352 335.195 377.919 334.787 377.573C334.378 377.227 333.898 376.976 333.38 376.84C332.856 376.708 332.305 376.732 331.795 376.909C331.285 377.087 330.838 377.411 330.51 377.84C330.092 378.499 329.932 379.29 330.06 380.06C330.133 380.746 330.388 381.401 330.8 381.955C331.212 382.509 331.764 382.942 332.4 383.21C333.054 383.475 333.781 383.501 334.452 383.283C335.123 383.066 335.696 382.618 336.07 382.02" fill="#FF725E"/>
<path d="M347.25 382.52C348.328 382.497 349.374 382.149 350.25 381.52C350.688 381.207 351.05 380.8 351.311 380.33C351.572 379.86 351.726 379.337 351.76 378.8C351.782 378.26 351.646 377.726 351.368 377.263C351.091 376.799 350.685 376.427 350.2 376.19C349.465 375.915 348.655 375.915 347.92 376.19C347.265 376.401 346.677 376.782 346.218 377.295C345.76 377.809 345.446 378.435 345.31 379.11C345.181 379.805 345.302 380.524 345.652 381.139C346.001 381.753 346.557 382.225 347.22 382.47" fill="#FF725E"/>
<path d="M352.71 386C353.457 385.996 354.186 385.766 354.8 385.34C355.094 385.119 355.336 384.836 355.509 384.511C355.682 384.186 355.781 383.828 355.8 383.46C355.817 383.087 355.723 382.717 355.531 382.397C355.339 382.077 355.057 381.821 354.72 381.66C354.214 381.47 353.656 381.47 353.15 381.66C352.7 381.805 352.297 382.066 351.981 382.418C351.665 382.769 351.447 383.198 351.35 383.66C351.267 384.14 351.353 384.634 351.594 385.057C351.835 385.48 352.215 385.806 352.67 385.98" fill="#FF725E"/>
<path d="M341.12 380.69C342.305 380.208 343.316 379.378 344.02 378.31C344.364 377.775 344.585 377.169 344.666 376.538C344.748 375.907 344.687 375.265 344.49 374.66C344.276 374.061 343.893 373.537 343.387 373.152C342.881 372.766 342.274 372.536 341.64 372.49C340.715 372.505 339.828 372.861 339.15 373.49C338.523 374.009 338.046 374.685 337.766 375.45C337.487 376.214 337.416 377.039 337.56 377.84C337.733 378.653 338.182 379.381 338.831 379.901C339.48 380.42 340.289 380.699 341.12 380.69Z" fill="#FF725E"/>
<path d="M288.43 256C288.439 255.9 288.462 255.803 288.5 255.71C288.56 255.49 288.65 255.21 288.75 254.85C289 254.07 289.34 252.97 289.75 251.58C290.67 248.7 291.99 244.58 293.63 239.53L306.63 199.6C306.73 198.9 306.84 198.15 306.94 197.39C307.94 190.62 308.82 184.11 309.68 178.06V178H309.73L321.65 164.66L321.6 164.77L324.26 147.38C324.58 145.38 324.84 143.74 325.02 142.61C325.11 142.08 325.18 141.67 325.23 141.36C325.253 141.218 325.286 141.077 325.33 140.94C325.346 141.083 325.346 141.227 325.33 141.37C325.33 141.68 325.24 142.1 325.18 142.62C325.03 143.76 324.81 145.37 324.53 147.42C323.93 151.6 323.08 157.56 322.05 164.83V164.89L310.19 178.29L310.25 178.16C309.4 184.21 308.49 190.72 307.54 197.49C307.43 198.25 307.33 199.01 307.23 199.71C302.05 215.34 297.4 229.4 294.03 239.59C292.33 244.59 290.96 248.73 290.03 251.59C289.55 252.97 289.18 254.06 288.91 254.83C288.79 255.183 288.69 255.463 288.61 255.67C288.48 255.87 288.44 256 288.43 256Z" fill="#263238"/>
<path d="M277.27 268.41C277.257 268.344 277.257 268.276 277.27 268.21C277.27 268.05 277.2 267.86 277.16 267.62C277.067 267.06 276.947 266.3 276.8 265.34C276.49 263.34 276.06 260.43 275.52 256.86C274.47 249.6 273.02 239.53 271.37 228.07V228C271.73 225.13 272.11 222.15 272.49 219.1C273.16 213.89 273.8 208.88 274.39 204.19L274.46 204.39L267 196.65L266.92 196.56V196.45L270.05 179.34C270.44 177.34 270.75 175.7 270.96 174.56C271.07 174.04 271.16 173.62 271.22 173.3C271.24 173.156 271.277 173.015 271.33 172.88C271.345 173.023 271.345 173.167 271.33 173.31C271.28 173.64 271.22 174.06 271.14 174.58C270.95 175.73 270.68 177.35 270.35 179.38C269.63 183.56 268.61 189.45 267.35 196.53L267.3 196.34L274.76 204.05L274.84 204.13V204.25C274.25 208.94 273.61 213.96 272.96 219.17C272.57 222.17 272.19 225.17 271.83 228.06V228L275.83 256.82C276.31 260.4 276.69 263.29 276.96 265.33C277.07 266.33 277.17 267.06 277.23 267.62L277.3 268.21C277.287 268.343 277.277 268.41 277.27 268.41Z" fill="#263238"/>
<path d="M300.54 422.84C300.4 422.84 296.86 398.77 292.63 369.03C288.4 339.29 285.09 315.15 285.23 315.13C285.37 315.11 288.92 339.21 293.14 368.96C297.36 398.71 300.68 422.82 300.54 422.84Z" fill="#263238"/>
<path d="M218 291.67L238.23 285.85L250.81 315.13L222.63 314.25L218 292.86" fill="#9D6054"/>
<path d="M238.23 285.85L254.68 324.15C254.68 324.15 336.92 300.68 342.8 294.09C348.68 287.5 361.12 228.09 363.24 216.54C365.36 204.99 367.7 158.21 357.83 150.72C347.96 143.23 338.33 144.87 328.93 155.21C321.32 163.58 308.93 211.5 304.48 229.4C303.391 233.806 303.099 238.371 303.62 242.88L304.49 250.37C304.49 250.37 296.74 257.42 296.27 264L238.23 285.85Z" fill="#E0E0E0"/>
<path d="M318 180.76C318 180.76 317.9 181.18 317.69 181.99C317.48 182.8 317.14 183.99 316.69 185.59C315.82 188.75 314.55 193.4 312.91 199.37L306.91 221.11C306.32 223.22 305.72 225.41 305.09 227.67C304.395 229.972 303.93 232.337 303.7 234.73C303.44 237.26 303.44 239.81 303.7 242.34C304.013 244.953 304.327 247.62 304.64 250.34V250.44L304.57 250.51C302.66 252.318 300.953 254.33 299.48 256.51C297.85 258.731 296.799 261.322 296.42 264.05V264.18L296.3 264.23L238.3 286.12L238.44 285.79L254.9 324.08L254.59 323.94C261.37 321.94 268.59 319.88 275.8 317.7C289.92 313.46 303.68 309.2 316.85 304.7C323.43 302.45 329.85 300.2 336.02 297.56C337.55 296.91 339.02 296.2 340.49 295.41C341.206 295.03 341.877 294.57 342.49 294.04C342.763 293.757 343.004 293.445 343.21 293.11C343.41 292.76 343.62 292.42 343.8 292.06C345.161 289.146 346.31 286.138 347.24 283.06C349.16 276.97 350.76 270.95 352.24 265.06C353.72 259.17 355.09 253.48 356.36 247.94C358.89 236.86 361.13 226.51 362.96 217.03C364.5 208.475 365.602 199.847 366.26 191.18C366.817 184.641 366.894 178.07 366.49 171.52C366.07 166.14 365.13 162 363.86 159.45C363.281 158.122 362.41 156.943 361.31 156L362.14 156.72C362.39 156.99 362.67 157.35 363.01 157.77C363.364 158.291 363.681 158.835 363.96 159.4C365.26 161.95 366.24 166.12 366.69 171.5C367.134 178.061 367.087 184.646 366.55 191.2C365.923 199.88 364.844 208.522 363.32 217.09C361.51 226.59 359.32 236.95 356.78 248.09C355.52 253.63 354.17 259.35 352.69 265.23C351.21 271.11 349.6 277.13 347.69 283.23C346.76 286.342 345.607 289.384 344.24 292.33C344.05 292.7 343.83 293.06 343.63 293.42C343.401 293.779 343.136 294.114 342.84 294.42C342.206 294.986 341.508 295.476 340.76 295.88C339.3 296.68 337.76 297.4 336.25 298.06C330.08 300.71 323.63 302.97 317.05 305.23C303.87 309.7 290.11 313.97 275.98 318.23C268.72 320.41 261.54 322.52 254.76 324.46L254.54 324.53L254.45 324.32L238 286L237.9 285.76L238.15 285.67L296.15 263.85L296.01 264.04C296.395 261.242 297.475 258.584 299.15 256.31C300.651 254.131 302.38 252.12 304.31 250.31L304.25 250.48C303.943 247.74 303.637 245.073 303.33 242.48C303.07 239.927 303.07 237.353 303.33 234.8C303.571 232.385 304.05 230 304.76 227.68L306.59 221.13C308.96 212.68 311 205.38 312.67 199.41L316.55 185.66C316.99 184.09 317.34 182.9 317.55 182.08C317.76 181.26 318 180.76 318 180.76Z" fill="#263238"/>
<path d="M307 272.77C305.731 270.76 304.175 268.948 302.38 267.39C300.474 265.965 298.363 264.836 296.12 264.04C296.835 264.06 297.54 264.213 298.2 264.49C301.494 265.624 304.291 267.869 306.11 270.84C306.519 271.425 306.821 272.079 307 272.77Z" fill="#263238"/>
<path d="M325.4 257.23C325.32 257.29 324.57 256.12 322.97 254.6C320.894 252.609 318.373 251.141 315.617 250.319C312.86 249.496 309.948 249.342 307.12 249.87C304.95 250.27 303.68 250.87 303.64 250.75C303.906 250.557 304.199 250.406 304.51 250.3C305.333 249.967 306.183 249.702 307.05 249.51C309.934 248.869 312.934 248.976 315.766 249.819C318.597 250.663 321.167 252.215 323.23 254.33C323.853 254.965 324.419 255.655 324.92 256.39C325.118 256.647 325.279 256.929 325.4 257.23V257.23Z" fill="#263238"/>
<path d="M236.65 327.41C225.47 327.41 209.98 323.54 190.59 315.9C176.24 310.24 164.97 304.5 164.85 304.45L166.67 300.88C167.11 301.11 211.09 323.41 236.67 323.41C246.77 323.41 254.59 318.53 259.9 308.91C262.428 304.23 264.155 299.16 265.01 293.91C265.28 292.31 271.31 256.34 273.38 246.74C274.46 241.74 277.38 233.52 280.14 225.58C282.7 218.31 285.34 210.8 285.87 207.58C286.96 201.05 286.17 186.78 286.17 186.64L290.17 186.41C290.17 187.02 290.99 201.27 289.83 208.23C289.24 211.78 286.66 219.12 283.93 226.88C281.2 234.64 278.33 242.8 277.3 247.56C275.3 257.07 269.04 294.1 268.98 294.48C268.92 294.86 264.44 327.41 236.65 327.41Z" fill="#FF725E"/>
<g opacity="0.4">
<path d="M236.65 327.41C225.47 327.41 209.98 323.54 190.59 315.9C176.24 310.24 164.97 304.5 164.85 304.45L166.67 300.88C167.11 301.11 211.09 323.41 236.67 323.41C246.77 323.41 254.59 318.53 259.9 308.91C262.428 304.23 264.155 299.16 265.01 293.91C265.28 292.31 271.31 256.34 273.38 246.74C274.46 241.74 277.38 233.52 280.14 225.58C282.7 218.31 285.34 210.8 285.87 207.58C286.96 201.05 286.17 186.78 286.17 186.64L290.17 186.41C290.17 187.02 290.99 201.27 289.83 208.23C289.24 211.78 286.66 219.12 283.93 226.88C281.2 234.64 278.33 242.8 277.3 247.56C275.3 257.07 269.04 294.1 268.98 294.48C268.92 294.86 264.44 327.41 236.65 327.41Z" fill="black"/>
</g>
<path d="M285.48 187.89C282.987 187.923 280.58 186.975 278.78 185.25C271.89 178.42 264.55 150.05 264.24 148.85L266.17 148.35C266.25 148.64 273.69 177.35 280.17 183.83C281.046 184.65 282.102 185.254 283.253 185.593C284.405 185.932 285.619 185.996 286.8 185.78C290.06 185.27 292.97 182.97 294.8 179.47C300.12 169.22 314.62 99.23 314.8 98.52L316.8 98.93C316.2 101.82 302.1 169.93 296.65 180.39C294.54 184.46 291.09 187.15 287.2 187.76C286.631 187.852 286.056 187.895 285.48 187.89V187.89Z" fill="#E0E0E0"/>
<path d="M314 104.28C314.14 101.47 313.46 99.19 313 96.42C312.8 95.25 313.17 93.26 314.15 92.58C315.13 91.9 316.63 92.73 317.05 93.88C317.399 95.2252 317.464 96.6284 317.24 98C316.79 101.32 315.85 102.29 315.31 104.28" fill="#E0E0E0"/>
<path d="M286.47 188.45H285.85C283.65 188.361 281.514 187.683 279.665 186.487C277.817 185.291 276.323 183.62 275.34 181.65C272.81 176.65 269.51 169.91 268.16 166.22L271.91 164.85C272.91 167.58 275.4 172.91 278.91 179.85C279.575 181.188 280.588 182.323 281.843 183.136C283.097 183.949 284.547 184.409 286.04 184.47C287.508 184.556 288.972 184.245 290.277 183.569C291.583 182.893 292.682 181.878 293.46 180.63L293.57 180.45C293.65 180.3 294 179.45 295.23 175.93L295.37 175.53C296.09 173.53 297.6 168.99 299.62 161.53L303.48 162.53C301.43 170.16 299.88 174.8 299.13 176.88L299 177.26C297.48 181.58 297.21 182.18 297 182.51L296.84 182.77C295.737 184.52 294.206 185.96 292.391 186.954C290.577 187.948 288.539 188.463 286.47 188.45V188.45Z" fill="#FF725E"/>
<g opacity="0.4">
<path d="M286.47 188.45H285.85C283.65 188.361 281.514 187.683 279.665 186.487C277.817 185.291 276.323 183.62 275.34 181.65C272.81 176.65 269.51 169.91 268.16 166.22L271.91 164.85C272.91 167.58 275.4 172.91 278.91 179.85C279.575 181.188 280.588 182.323 281.843 183.136C283.097 183.949 284.547 184.409 286.04 184.47C287.508 184.556 288.972 184.245 290.277 183.569C291.583 182.893 292.682 181.878 293.46 180.63L293.57 180.45C293.65 180.3 294 179.45 295.23 175.93L295.37 175.53C296.09 173.53 297.6 168.99 299.62 161.53L303.48 162.53C301.43 170.16 299.88 174.8 299.13 176.88L299 177.26C297.48 181.58 297.21 182.18 297 182.51L296.84 182.77C295.737 184.52 294.206 185.96 292.391 186.954C290.577 187.948 288.539 188.463 286.47 188.45V188.45Z" fill="black"/>
</g>
<path d="M158.56 308.72C163.906 308.72 168.24 304.386 168.24 299.04C168.24 293.694 163.906 289.36 158.56 289.36C153.214 289.36 148.88 293.694 148.88 299.04C148.88 304.386 153.214 308.72 158.56 308.72Z" fill="#E0E0E0"/>
<path d="M159.1 305.11C162.143 305.11 164.61 302.643 164.61 299.6C164.61 296.557 162.143 294.09 159.1 294.09C156.057 294.09 153.59 296.557 153.59 299.6C153.59 302.643 156.057 305.11 159.1 305.11Z" fill="#263238"/>
<path d="M152.46 308.72C152.46 308.72 150.34 303.72 152.46 301.9C154.58 300.08 176.76 294.09 176.76 294.09C176.76 294.09 192.4 289.57 194.07 289.36C195.74 289.15 216.07 290.51 216.07 290.51C216.07 290.51 227.61 287.33 229.28 287.33C230.95 287.33 228.52 297.95 228.22 301.45C227.92 304.95 225.64 307.04 227.76 308.72C229.88 310.4 235.52 315.13 235.52 315.13C235.52 315.13 229.58 316.78 225.52 316.33C223.108 316.074 220.749 315.457 218.52 314.5C218.52 314.5 210.17 320.73 205.61 321.64C201.05 322.55 185.88 327.56 182.84 327.11C179.8 326.66 177.53 322.55 177.53 322.55C177.53 322.55 170.39 323.61 169.02 320.73C168.228 319.081 167.618 317.351 167.2 315.57L170.09 313.74C170.09 313.74 166.29 314.81 164.62 312.07C163.666 310.61 163.044 308.957 162.8 307.23C162.8 307.23 155 309.47 152.46 308.72Z" fill="#455A64"/>
<path d="M266.43 217.39C266.427 217.587 266.397 217.782 266.34 217.97C266.253 218.397 266.133 218.947 265.98 219.62C265.82 220.33 265.62 221.2 265.44 222.22C265.26 223.24 265 224.4 264.84 225.7C264.68 227 264.43 228.4 264.29 229.93C264.15 231.46 264.01 233.09 263.89 234.81C263.504 242.293 264.078 249.794 265.6 257.13C265.98 258.82 266.32 260.42 266.74 261.9C267.16 263.38 267.54 264.75 267.93 266C268.32 267.25 268.72 268.36 269.06 269.34C269.4 270.32 269.71 271.15 269.99 271.83C270.27 272.51 270.44 272.99 270.59 273.4C270.678 273.58 270.739 273.772 270.77 273.97C270.666 273.801 270.575 273.624 270.5 273.44L269.8 271.91C269.5 271.24 269.14 270.42 268.8 269.44C268.46 268.46 267.99 267.37 267.6 266.11C267.21 264.85 266.73 263.5 266.34 262.01C265.95 260.52 265.55 258.92 265.16 257.23C264.383 253.548 263.839 249.821 263.53 246.07C263.264 242.316 263.23 238.548 263.43 234.79C263.56 233.06 263.66 231.41 263.88 229.88C264.1 228.35 264.27 226.93 264.49 225.64C264.71 224.35 264.97 223.18 265.18 222.16C265.39 221.14 265.61 220.28 265.81 219.57L266.26 217.94C266.292 217.75 266.349 217.565 266.43 217.39V217.39Z" fill="#263238"/>
</g>
<defs>
<clipPath id="clip0_135_686">
<rect width="470" height="438" fill="white"/>
</clipPath>
</defs>
</svg>
