<svg width="500" height="493" viewBox="0 0 500 493" fill="none" xmlns="http://www.w3.org/2000/svg">
<path d="M251.4 58.41H29.29V204.69H251.4V58.41Z" fill="#F5F5F5"/>
<path d="M64.08 93.36C64.08 93.36 61 91.64 59 93.75C58.3 94.5 58.12 96.96 60.86 97.45C60.86 97.45 66.79 97.13 69.49 96.64C72.19 96.15 78.33 93.44 78.33 93.44L81.52 86.33C81.52 86.33 81.93 82.97 82.34 82.89C82.75 82.81 84 86.33 84 86.33L90.88 88.33L91.61 89.72L86 92C86 92 86.82 100.84 86.08 102.39C85.311 103.678 84.3461 104.839 83.22 105.83L83.54 118.68C83.54 118.68 84.77 118.19 84.85 119.09H81.59C81.59 119.09 80.28 111.09 78.4 110.49L78.89 107.14L66 106.05C66 106.05 66.9 109.05 63.22 111.53C61.2723 112.783 59.4972 114.286 57.94 116V118.45C57.94 118.45 59.01 118.86 59.09 119.76H55.16C55.16 119.76 55.65 112.97 55.16 111.82C55.16 111.82 59.98 106.9 59.33 100.82C59.33 100.82 53.85 99.43 55.16 94.11C56.47 88.79 62.61 88.7 64.08 93.36Z" fill="#E0E0E0"/>
<path d="M64.9 134.32C64.9 134.32 62.97 133.26 61.74 134.57C61.5845 134.785 61.4909 135.038 61.4694 135.302C61.4478 135.566 61.4991 135.832 61.6177 136.069C61.7362 136.306 61.9175 136.506 62.1418 136.647C62.3662 136.788 62.6249 136.866 62.89 136.87C62.89 136.87 66.58 136.66 68.25 136.36C70.131 135.832 71.9695 135.164 73.75 134.36L75.75 129.94C75.75 129.94 76 127.86 76.26 127.8C76.52 127.74 77.26 129.94 77.26 129.94L81.54 131.16L82 132L78.55 133.43C78.55 133.43 79.05 138.92 78.55 139.89C78.0693 140.687 77.469 141.405 76.77 142.02L76.97 150.02C76.97 150.02 77.73 149.71 77.78 150.27H75.78C75.78 150.27 74.97 145.27 73.78 144.93L74.08 142.85L66.08 142.18C66.08 142.18 66.64 144.07 64.35 145.59C63.1328 146.36 62.0203 147.285 61.04 148.34V149.86C61.04 149.86 61.7 150.12 61.76 150.68H59.36C59.36 150.68 59.66 146.46 59.36 145.74C59.36 145.74 62.36 142.68 61.95 138.93C61.95 138.93 58.54 138.07 59.36 134.76C60.18 131.45 64 131.42 64.9 134.32Z" fill="#E0E0E0"/>
<path d="M63.5 168.32C63.5 168.32 62.04 167.52 61.12 168.51C61.0026 168.672 60.932 168.863 60.9158 169.062C60.8997 169.261 60.9387 169.461 61.0285 169.64C61.1183 169.818 61.2555 169.969 61.4251 170.075C61.5947 170.181 61.7901 170.238 61.99 170.24C61.99 170.24 64.76 170.08 65.99 169.85C67.4023 169.458 68.783 168.96 70.12 168.36L71.62 165.03C71.62 165.03 71.81 163.46 72 163.42C72.19 163.38 72.77 165.03 72.77 165.03L76 166L76.34 166.65L73.74 167.72C73.74 167.72 74.12 171.86 73.74 172.59C73.3798 173.19 72.9276 173.73 72.4 174.19L72.56 180.19C72.56 180.19 73.13 179.96 73.17 180.38H71.7C71.7 180.38 71.08 176.63 70.2 176.38L70.43 174.81L64.43 174.31C64.5189 174.821 64.4403 175.348 64.2061 175.811C63.9719 176.274 63.5945 176.649 63.13 176.88C62.214 177.455 61.3769 178.148 60.64 178.94V180C60.64 180 61.13 180.2 61.17 180.62H59.32C59.4364 179.383 59.4364 178.137 59.32 176.9C59.9741 176.218 60.4873 175.414 60.8305 174.534C61.1737 173.654 61.34 172.715 61.32 171.77C60.9797 171.7 60.6569 171.563 60.3708 171.366C60.0846 171.169 59.841 170.917 59.6544 170.624C59.4678 170.331 59.3421 170.003 59.2846 169.661C59.2272 169.318 59.2392 168.968 59.32 168.63C59.94 166.18 62.81 166.14 63.5 168.32Z" fill="#E0E0E0"/>
<path d="M217.83 99.11C217.83 99.25 194.74 99.37 166.25 99.37C137.76 99.37 114.67 99.25 114.67 99.11C114.67 98.97 137.76 98.85 166.25 98.85C194.74 98.85 217.83 99 217.83 99.11Z" fill="#E0E0E0"/>
<path d="M217.83 103.09C217.83 103.23 194.74 103.35 166.25 103.35C137.76 103.35 114.67 103.23 114.67 103.09C114.67 102.95 137.76 102.83 166.25 102.83C194.74 102.83 217.83 102.94 217.83 103.09Z" fill="#E0E0E0"/>
<path d="M217.83 107.06C217.83 107.21 194.74 107.32 166.25 107.32C137.76 107.32 114.67 107.21 114.67 107.06C114.67 106.91 137.76 106.8 166.25 106.8C194.74 106.8 217.83 106.92 217.83 107.06Z" fill="#E0E0E0"/>
<path d="M217.83 111C217.83 111.15 194.74 111.26 166.25 111.26C137.76 111.26 114.67 111.15 114.67 111C114.67 110.85 137.76 110.74 166.25 110.74C194.74 110.74 217.83 110.9 217.83 111Z" fill="#E0E0E0"/>
<path d="M217.83 133.58C217.83 133.73 194.74 133.84 166.25 133.84C137.76 133.84 114.67 133.73 114.67 133.58C114.67 133.43 137.76 133.32 166.25 133.32C194.74 133.32 217.83 133.44 217.83 133.58Z" fill="#E0E0E0"/>
<path d="M217.83 137.56C217.83 137.71 194.74 137.82 166.25 137.82C137.76 137.82 114.67 137.71 114.67 137.56C114.67 137.41 137.76 137.3 166.25 137.3C194.74 137.3 217.83 137.42 217.83 137.56Z" fill="#E0E0E0"/>
<path d="M217.83 141.54C217.83 141.68 194.74 141.8 166.25 141.8C137.76 141.8 114.67 141.68 114.67 141.54C114.67 141.4 137.76 141.28 166.25 141.28C194.74 141.28 217.83 141.4 217.83 141.54Z" fill="#E0E0E0"/>
<path d="M217.83 145.52C217.83 145.66 194.74 145.78 166.25 145.78C137.76 145.78 114.67 145.66 114.67 145.52C114.67 145.38 137.76 145.26 166.25 145.26C194.74 145.26 217.83 145.37 217.83 145.52Z" fill="#E0E0E0"/>
<path d="M217.83 168.06C217.83 168.2 194.74 168.32 166.25 168.32C137.76 168.32 114.67 168.2 114.67 168.06C114.67 167.92 137.76 167.8 166.25 167.8C194.74 167.8 217.83 167.92 217.83 168.06Z" fill="#E0E0E0"/>
<path d="M217.83 172C217.83 172.14 194.74 172.26 166.25 172.26C137.76 172.26 114.67 172.14 114.67 172C114.67 171.86 137.76 171.74 166.25 171.74C194.74 171.74 217.83 171.89 217.83 172Z" fill="#E0E0E0"/>
<path d="M217.83 176C217.83 176.14 194.74 176.26 166.25 176.26C137.76 176.26 114.67 176.14 114.67 176C114.67 175.86 137.76 175.74 166.25 175.74C194.74 175.74 217.83 175.87 217.83 176Z" fill="#E0E0E0"/>
<path d="M217.83 180C217.83 180.15 194.74 180.26 166.25 180.26C137.76 180.26 114.67 180.15 114.67 180C114.67 179.85 137.76 179.74 166.25 179.74C194.74 179.74 217.83 179.85 217.83 180Z" fill="#E0E0E0"/>
<path d="M208.69 79.25C208.69 80.69 185.77 81.86 157.51 81.86C129.25 81.86 106.32 80.69 106.32 79.25C106.32 77.81 129.23 76.65 157.51 76.65C185.79 76.65 208.69 77.81 208.69 79.25Z" fill="#E0E0E0"/>
<path d="M377.53 55.11H374.72V49.79C374.753 49.0106 374.482 48.2488 373.963 47.6664C373.444 47.0839 372.718 46.7265 371.94 46.67H350.55C349.774 46.729 349.051 47.0874 348.534 47.6696C348.017 48.2518 347.747 49.0122 347.78 49.79V55.11H345V49.79C344.957 48.2636 345.519 46.7822 346.565 45.6692C347.61 44.5562 349.054 43.9022 350.58 43.85H371.97C373.498 43.8996 374.944 44.5525 375.992 45.6658C377.039 46.779 377.603 48.2619 377.56 49.79L377.53 55.11Z" fill="#EBEBEB"/>
<path d="M407.25 55.11H314.82C309.778 55.11 305.69 59.1977 305.69 64.24V119.99C305.69 125.032 309.778 129.12 314.82 129.12H407.25C412.292 129.12 416.38 125.032 416.38 119.99V64.24C416.38 59.1977 412.292 55.11 407.25 55.11Z" fill="#EBEBEB"/>
<path d="M364.57 77.17H357.93V106.92H364.57V77.17Z" fill="#F5F5F5"/>
<path d="M346.37 88.73V95.37H376.12V88.73H346.37Z" fill="#F5F5F5"/>
<path d="M386 92.12C386 92.12 386 91.98 386 91.72C386 91.46 385.95 91.04 385.91 90.54C385.91 90.28 385.91 89.99 385.86 89.68C385.81 89.37 385.75 89.02 385.69 88.68C385.579 87.8185 385.405 86.9662 385.17 86.13C384.588 83.8159 383.658 81.6039 382.41 79.57C379.137 74.1723 373.927 70.2284 367.843 68.5444C361.759 66.8604 355.262 67.5635 349.68 70.51C348.637 71.0839 347.635 71.7288 346.68 72.44C345.703 73.1689 344.774 73.9606 343.9 74.81C343.036 75.701 342.234 76.6499 341.5 77.65C339.976 79.701 338.791 81.9834 337.99 84.41C336.297 89.4345 336.297 94.8755 337.99 99.9C338.785 102.327 339.967 104.61 341.49 106.66C342.231 107.661 343.036 108.613 343.9 109.51C344.775 110.359 345.703 111.151 346.68 111.88C347.635 112.591 348.637 113.236 349.68 113.81C350.713 114.352 351.783 114.823 352.88 115.22C357.01 116.724 361.467 117.097 365.79 116.3C369.218 115.656 372.471 114.294 375.336 112.303C378.2 110.313 380.611 107.738 382.41 104.75C383.658 102.716 384.588 100.504 385.17 98.19C385.405 97.3539 385.579 96.5016 385.69 95.64C385.75 95.26 385.82 94.92 385.86 94.64C385.9 94.36 385.86 94.04 385.91 93.78C385.91 93.28 385.98 92.89 386 92.6C386.02 92.31 386 92.2 386 92.2C386.017 92.3328 386.017 92.4672 386 92.6C386 92.89 386 93.28 386 93.78C386 94.0467 386 94.3367 386 94.65C386 94.97 385.91 95.32 385.86 95.7C385.759 96.5699 385.599 97.4319 385.38 98.28C384.819 100.623 383.909 102.868 382.68 104.94C380.878 107.99 378.448 110.621 375.552 112.661C372.655 114.7 369.359 116.101 365.88 116.77C361.486 117.613 356.946 117.268 352.73 115.77C351.609 115.368 350.516 114.891 349.46 114.34C348.389 113.744 347.36 113.075 346.38 112.34C345.383 111.598 344.434 110.793 343.54 109.93C342.656 109.019 341.835 108.05 341.08 107.03C339.519 104.935 338.307 102.601 337.49 100.12C336.662 97.5673 336.227 94.9035 336.2 92.22C336.232 89.5337 336.667 86.8673 337.49 84.31C338.313 81.8343 339.525 79.5052 341.08 77.41C341.835 76.3901 342.657 75.4213 343.54 74.51C344.4 73.6136 345.319 72.7751 346.29 72C347.263 71.2592 348.289 70.5907 349.36 70C350.416 69.4494 351.509 68.9716 352.63 68.57C356.843 67.0728 361.379 66.7276 365.77 67.57C369.25 68.2378 372.549 69.6379 375.447 71.6774C378.345 73.717 380.777 76.3494 382.58 79.4C383.809 81.4719 384.719 83.7171 385.28 86.06C385.499 86.9079 385.66 87.77 385.76 88.64C385.81 89.02 385.87 89.36 385.9 89.64C385.93 89.92 385.9 90.25 385.9 90.52C385.9 91.01 385.9 91.41 385.9 91.7C385.953 91.8347 385.986 91.976 386 92.12V92.12Z" fill="#F5F5F5"/>
<path d="M449.5 60.56V49.37H441.63V60.56H433.71V124.56H456.86V60.56H449.5Z" fill="#EBEBEB"/>
<path d="M483.9 124.57H292.94V134.31H483.9V124.57Z" fill="#E0E0E0"/>
<path d="M335.82 134.32H330.26V157.35H335.82V134.32Z" fill="#E0E0E0"/>
<path d="M447 134.32H441.44V157.35H447V134.32Z" fill="#E0E0E0"/>
<path d="M406.44 77.78V69.6H400.68V77.78H394.89V124.57H411.81V77.78H406.44Z" fill="#FAFAFA"/>
<path d="M425.64 77.78V69.6H419.89V77.78H414.1V124.57H431V77.78H425.64Z" fill="#F5F5F5"/>
<path d="M330.26 94.17H299.86V124.57H330.26V94.17Z" fill="#E0E0E0"/>
<path d="M330.11 102C330.11 102.2 323.4 102.36 315.11 102.36C306.82 102.36 300.11 102.2 300.11 102C300.11 101.8 306.82 101.65 315.11 101.65C323.4 101.65 330.11 101.79 330.11 102Z" fill="#EBEBEB"/>
<path d="M316.21 106C316.21 106 316.32 106 316.52 106.05C316.81 106.13 317.083 106.258 317.33 106.43C318.228 107.112 318.826 108.116 319 109.23C319.38 110.865 319.096 112.584 318.21 114.01C317.651 114.859 316.818 115.49 315.85 115.8C314.817 116.095 313.723 116.095 312.69 115.8C311.679 115.578 310.75 115.08 310.005 114.361C309.26 113.643 308.729 112.732 308.47 111.73C308.287 110.907 308.322 110.05 308.573 109.244C308.824 108.439 309.282 107.714 309.9 107.14C310.725 106.391 311.787 105.955 312.9 105.91C313.304 105.859 313.715 105.929 314.08 106.11C314.08 106.17 313.65 106.11 312.93 106.19C311.91 106.326 310.96 106.785 310.22 107.5C309.698 108.029 309.32 108.682 309.123 109.398C308.925 110.114 308.913 110.869 309.09 111.59C309.547 112.888 310.468 113.97 311.675 114.63C312.883 115.289 314.291 115.478 315.63 115.16C316.446 114.899 317.151 114.371 317.63 113.66C318.438 112.378 318.731 110.839 318.45 109.35C318.339 108.328 317.863 107.38 317.11 106.68C316.61 106.18 316.19 106.06 316.21 106Z" fill="#EBEBEB"/>
<path d="M47.08 347.31C40.71 344.03 33.22 343.6 26.15 344.77C22.35 345.4 18.39 346.53 15.8 349.38C13.21 352.23 12.73 357.26 15.7 359.71C17.46 361.17 19.93 361.39 22.22 361.36C27.75 361.3 33.89 360.36 38.32 363.65C40.84 365.55 42.52 368.71 45.53 369.65C48.54 370.59 51.81 368.82 53.38 366.16C54.8157 363.384 55.1342 360.164 54.27 357.16C53.9113 355.075 53.0758 353.102 51.8286 351.393C50.5814 349.684 48.9563 348.287 47.08 347.31V347.31Z" fill="#EBEBEB"/>
<path d="M61.67 319.15C57.78 324.71 50.21 322.87 46.67 319.47C43.13 316.07 41.67 311.16 40.33 306.47C37.24 295.75 34.13 284.47 36.43 273.58C36.9801 270.27 38.4335 267.176 40.63 264.64C42.92 262.22 46.45 260.78 49.63 261.64C53.45 262.64 55.82 266.39 57.53 269.94C62.58 280.438 65.2275 291.93 65.28 303.58C65.28 309 64.66 314.68 61.6 319.16" fill="#EBEBEB"/>
<path d="M72.37 327.13C68.14 322.13 67.37 314.79 69.22 308.5C71.07 302.21 75.35 296.87 80.22 292.5C85.9935 287.368 92.7122 283.411 100 280.85C102.817 279.712 105.846 279.197 108.88 279.34C111.88 279.63 114.93 281.17 116.33 283.85C118.41 287.85 116.42 292.63 114.26 296.55C110.457 303.467 106.11 310.071 101.26 316.3C97.37 321.3 92.92 326.3 86.99 328.53C81.06 330.76 74.91 330.53 71.77 326.42" fill="#EBEBEB"/>
<path d="M61.94 403C61.7216 402.174 61.6008 401.325 61.58 400.47C61.4 398.64 61.18 396.33 60.91 393.58C60.5695 390.182 60.0522 386.804 59.36 383.46C58.4581 379.387 57.2274 375.394 55.68 371.52C54.1699 367.651 52.1196 364.015 49.59 360.72C47.5267 358.038 44.8932 355.849 41.88 354.31C39.8352 353.306 37.645 352.631 35.39 352.31C34.5403 352.272 33.6963 352.152 32.87 351.95C33.7203 351.849 34.5797 351.849 35.43 351.95C37.7747 352.121 40.0688 352.718 42.2 353.71C45.3723 355.207 48.155 357.418 50.33 360.17C52.9724 363.502 55.1025 367.209 56.65 371.17C58.2186 375.102 59.44 379.165 60.3 383.31C60.9583 386.693 61.4091 390.112 61.65 393.55C61.87 396.48 61.95 398.85 61.99 400.49C62.0629 401.326 62.0462 402.168 61.94 403Z" fill="#E0E0E0"/>
<path d="M61.46 397.74C61.3881 397.351 61.3646 396.955 61.39 396.56C61.39 395.68 61.39 394.56 61.39 393.21C61.39 390.3 61.39 386.09 61.24 380.89C60.98 370.49 60.09 359.29 58.36 343.51C56.72 328.67 54.52 311.4 52.2 300.18C51.71 297.62 51.2 295.32 50.73 293.31C50.26 291.3 49.9 289.56 49.53 288.15C49.16 286.74 48.95 285.75 48.75 284.89C48.6384 284.512 48.568 284.123 48.54 283.73C48.7143 284.082 48.8517 284.45 48.95 284.83C49.2 285.68 49.53 286.74 49.95 288.05C50.37 289.36 50.83 291.17 51.33 293.18C51.83 295.19 52.41 297.47 52.95 300.02C55.8259 313.298 57.989 326.721 59.43 340.23C61.16 356.05 61.94 370.45 62.01 380.87C62.07 386.09 61.96 390.31 61.83 393.22C61.74 394.58 61.68 395.69 61.62 396.57C61.6136 396.965 61.5599 397.358 61.46 397.74V397.74Z" fill="#E0E0E0"/>
<path d="M61.39 370C61.2981 368.835 61.2981 367.665 61.39 366.5C61.5929 363.317 61.9601 360.146 62.49 357C63.2555 352.336 64.2838 347.718 65.57 343.17C67.0823 337.578 69.0179 332.109 71.36 326.81C76.15 315.44 82.67 306.13 88.36 300.37C89.6142 299.051 90.9502 297.812 92.36 296.66C92.97 296.14 93.52 295.66 94.07 295.21L95.62 294.15C96.5662 293.438 97.5696 292.806 98.62 292.26C98.78 292.49 94.44 295.04 88.95 300.88C81.9469 308.643 76.3195 317.544 72.31 327.2C70.0145 332.468 68.0735 337.883 66.5 343.41C65.1761 347.915 64.0814 352.484 63.22 357.1C62.49 361.04 62.07 364.26 61.82 366.49C61.768 367.669 61.6243 368.843 61.39 370V370Z" fill="#E0E0E0"/>
<path d="M88.23 418.95L85.45 457.08H36.47L33.69 418.95H88.23Z" fill="#E0E0E0"/>
<path d="M92.97 403.93H27.85V418.96H92.97V403.93Z" fill="#E0E0E0"/>
<path d="M92.96 455.62V459.78H89.91H28.92V455.62H92.96Z" fill="#EBEBEB"/>
<path d="M86.91 467.11L89.91 459.78H31.26L34.76 467.11H86.91Z" fill="#E0E0E0"/>
<path d="M34.6 431.41C34.6618 431.536 34.7391 431.653 34.83 431.76L35.56 432.76L38.41 436.41L38.54 436.58L38.66 436.41C40.46 433.93 42.85 430.61 45.66 426.71H45.26L52.16 436.48L52.38 436.79L52.62 436.5L60.8 426.76H60.33L60.78 427.32L68.1 436.5L68.34 436.8L68.57 436.49C71.05 432.97 73.38 429.69 75.47 426.72H75.07L83.58 436.4L83.73 436.58L83.84 436.38C84.96 434.5 85.84 433 86.5 431.91L87.19 430.72C87.277 430.586 87.3475 430.441 87.4 430.29C87.288 430.404 87.1906 430.532 87.11 430.67C86.91 430.97 86.66 431.35 86.36 431.82L83.56 436.21H83.83L75.46 426.4L75.25 426.15L75.06 426.42L68.06 436.15H68.53C66.21 433.24 63.76 430.15 61.23 426.96L60.78 426.4L60.55 426.11L60.31 426.39L52.14 436.15H52.6C50.08 432.63 47.74 429.36 45.6 426.43L45.4 426.14L45.2 426.43L38.34 436.23H38.59L35.59 432.67C35.27 432.3 35.01 431.99 34.79 431.75C34.57 431.51 34.61 431.4 34.6 431.41Z" fill="#F5F5F5"/>
<path d="M33 418.7C33 418.87 45.27 419.01 60.41 419.01C75.55 419.01 87.82 418.87 87.82 418.7C87.82 418.53 75.55 418.4 60.41 418.4C45.27 418.4 33 418.53 33 418.7Z" fill="#F5F5F5"/>
<path d="M30.54 460.19C30.54 460.36 43.87 460.5 60.32 460.5C76.77 460.5 90.11 460.36 90.11 460.19C90.11 460.02 76.78 459.89 60.32 459.89C43.86 459.89 30.54 460 30.54 460.19Z" fill="#F5F5F5"/>
<path d="M461.11 170.08H368.76V266.35H461.11V170.08Z" fill="#E0E0E0"/>
<path d="M454.86 170.08H362.51V266.35H454.86V170.08Z" fill="#EBEBEB"/>
<path d="M442.44 183.02H374.92V253.41H442.44V183.02Z" fill="#FAFAFA"/>
<path d="M374.92 253.87C374.431 254.569 373.868 255.212 373.24 255.79C372.15 256.92 370.63 258.46 368.94 260.13C367.25 261.8 365.68 263.3 364.53 264.36C363.947 264.974 363.3 265.524 362.6 266C363.096 265.313 363.659 264.677 364.28 264.1C365.37 262.96 366.89 261.42 368.59 259.75C370.29 258.08 371.86 256.57 373 255.51C373.587 254.904 374.229 254.355 374.92 253.87Z" fill="#E0E0E0"/>
<path d="M442.45 253.7C443.137 254.204 443.776 254.77 444.36 255.39C445.49 256.47 447.03 257.99 448.7 259.69C450.37 261.39 451.87 262.95 452.94 264.09C453.551 264.679 454.103 265.325 454.59 266.02C453.895 265.53 453.255 264.966 452.68 264.34C451.55 263.26 450.01 261.74 448.33 260.03C446.65 258.32 445.15 256.77 444.09 255.62C443.479 255.038 442.93 254.394 442.45 253.7V253.7Z" fill="#E0E0E0"/>
<path d="M442.26 183.21C442.762 182.518 443.328 181.876 443.95 181.29C445.04 180.16 446.55 178.62 448.25 176.95C449.95 175.28 451.51 173.78 452.66 172.72C453.243 172.103 453.89 171.55 454.59 171.07C454.089 171.756 453.526 172.395 452.91 172.98C451.82 174.11 450.3 175.65 448.6 177.33C446.9 179.01 445.33 180.5 444.19 181.56C443.605 182.174 442.958 182.727 442.26 183.21Z" fill="#E0E0E0"/>
<path d="M374.74 183.38C374.05 182.88 373.41 182.314 372.83 181.69C371.69 180.61 370.16 179.09 368.48 177.39C366.8 175.69 365.32 174.13 364.25 172.99C363.639 172.401 363.087 171.755 362.6 171.06C363.295 171.55 363.935 172.114 364.51 172.74C365.64 173.82 367.18 175.34 368.86 177.05C370.54 178.76 372.03 180.31 373.1 181.46C373.711 182.042 374.26 182.686 374.74 183.38V183.38Z" fill="#E0E0E0"/>
<path d="M442.26 253.41C442.26 253.41 442.26 253.29 442.26 253.07C442.26 252.85 442.26 252.51 442.26 252.07C442.26 251.19 442.26 249.92 442.26 248.27C442.26 244.94 442.26 240.09 442.26 233.93C442.26 221.6 442.19 204.04 442.14 183L442.36 183.22H375.03L375.29 182.97C375.29 208.8 375.29 232.97 375.29 253.36L375.07 253.14L423.84 253.25L437.54 253.31H441.16H442.09H442.41H441.2H437.63H423.98L375.07 253.42H374.86V253.21C374.86 232.82 374.86 208.65 374.86 182.82V182.56H375.12H442.45H442.68V183C442.68 204.09 442.6 221.71 442.57 234.07C442.57 240.21 442.57 245.07 442.51 248.36C442.51 249.99 442.51 251.25 442.51 252.12C442.51 252.53 442.51 252.84 442.51 253.12C442.51 253.4 442.26 253.41 442.26 253.41Z" fill="#E0E0E0"/>
<path d="M392.75 212.42C392.75 212.42 391.3 229.85 410.17 229.85C410.17 220.55 402.5 213.21 392.75 212.42Z" fill="#EBEBEB"/>
<path d="M427.28 212.44C427.28 212.44 409.85 210.99 409.85 229.86C419.15 229.86 426.49 222.19 427.28 212.44Z" fill="#EBEBEB"/>
<path d="M409.34 202.9C409.34 202.9 395.1 215.68 410.12 229.85C417.1 222.45 416.51 210.85 409.34 202.9Z" fill="#E0E0E0"/>
<path d="M462.14 467.23C462.14 467.38 367.31 467.49 250.36 467.49C133.41 467.49 38.55 467.38 38.55 467.23C38.55 467.08 133.36 466.97 250.36 466.97C367.36 466.97 462.14 467.09 462.14 467.23Z" fill="#263238"/>
<path d="M210.77 297.15C210.77 297.15 190.62 293.99 188.94 294.05C187.26 294.11 171.28 297.24 171.28 297.24C171.28 297.24 148.67 301.24 146.39 302.88C144.11 304.52 145.79 309.67 145.79 309.67C148.3 310.67 156.21 309.1 156.21 309.1C156.297 310.848 156.768 312.555 157.59 314.1C159.01 316.96 162.89 316.24 162.89 316.24L159.89 317.8C160.144 319.612 160.6 321.39 161.25 323.1C162.35 326.1 169.56 325.67 169.56 325.67C169.56 325.67 171.46 329.95 174.45 330.67C177.44 331.39 193 327.74 197.62 327.24C202.24 326.74 211.1 321.24 211.1 321.24C214.664 322.506 218.293 323.584 221.97 324.47L224.24 295.11C222.54 295 210.77 297.15 210.77 297.15Z" fill="#455A64"/>
<path d="M130 390.27C121.41 388.11 114.91 380.6 112 372.27C109.09 363.94 109.16 354.8 110 345.99C110.326 344.362 110.191 342.675 109.61 341.12C108.46 338.76 105.3 337.94 102.79 338.72C100.28 339.5 98.35 341.48 96.79 343.55C92.3553 349.281 89.6792 356.177 89.0865 363.399C88.4937 370.622 90.0097 377.861 93.4506 384.239C96.8914 390.616 102.109 395.859 108.471 399.329C114.833 402.8 122.065 404.349 129.29 403.79" fill="#FF725E"/>
<path d="M195.12 307.37C195.12 307.37 215.25 342.24 220.34 356.26C225.43 370.28 231.91 408.83 231.91 408.83C231.91 408.83 262.13 416.61 243.41 449.11C236.49 461.11 237.11 466.69 229.35 467.05C223.35 467.32 174.63 466.95 174.63 466.95L175.51 471.72C175.51 471.72 171.43 485.5 163.19 481.61C154.95 477.72 145.19 466.95 145.19 466.95L131.02 466.76L97.29 467L87.42 466.81V466.54C87.7563 463.858 88.8615 461.332 90.6022 459.264C92.343 457.197 94.6448 455.678 97.23 454.89L104.47 452.69C104.47 452.69 95.06 413.17 103.21 403.69C111.36 394.21 124.62 394.86 124.62 394.86L118.53 354.19C117.32 344.656 118.28 334.971 121.34 325.86L125.91 312.27L195.12 307.37Z" fill="#FF725E"/>
<path d="M125.17 396.22C139.17 404.15 148.55 417.44 153.24 432.62C153.24 432.78 153.53 432.71 153.48 432.56C149.85 420.79 143.4 409.89 133.89 401.93C131.208 399.703 128.333 397.718 125.3 396C125.16 395.92 125.03 396.14 125.17 396.22Z" fill="#263238"/>
<path d="M125.47 313.66C125.47 313.66 118.9 331.21 118.35 339.98C117.44 354.53 124.65 394.84 124.65 394.84C124.65 394.84 122.18 434.35 120.04 440.21C117.9 446.07 118.79 451.47 109.04 453.46C106.41 454 101.82 462.53 101.82 466.76H129.09C129.09 466.76 136.47 458.42 136.82 450.62C137.17 442.82 150.15 400.44 150.15 400.44" fill="#FF725E"/>
<path d="M150.15 400.44C150.15 400.44 150.15 400.55 150.07 400.76C149.99 400.97 149.92 401.3 149.8 401.7C149.56 402.53 149.21 403.75 148.75 405.32C147.82 408.52 146.48 413.17 144.75 419.07C143.02 424.97 141.04 432.17 139 440.45C138.49 442.52 138 444.66 137.56 446.88C137.46 447.433 137.36 447.993 137.26 448.56C137.16 449.12 137.12 449.69 137.05 450.26L136.87 452.02C136.77 452.61 136.67 453.2 136.52 453.79C135.064 458.636 132.581 463.111 129.24 466.91L129.18 466.99H129.07H101.8H101.54V466.74C101.784 464.092 102.577 461.524 103.87 459.2C104.479 457.992 105.185 456.835 105.98 455.74C106.389 455.186 106.844 454.668 107.34 454.19C107.847 453.668 108.492 453.3 109.2 453.13C111.8 452.56 114.51 451.59 116.2 449.47C117.89 447.35 118.38 444.47 119.2 441.77C119.34 441.26 119.52 440.77 119.69 440.26C119.86 439.75 119.96 439.26 120.1 438.78C120.3 437.78 120.52 436.78 120.66 435.78C120.98 433.78 121.23 431.7 121.46 429.67C121.93 425.61 122.29 421.6 122.64 417.67C123.32 409.77 123.88 402.14 124.36 394.86V394.92C122.29 382.98 120.64 371.92 119.47 361.92C118.89 356.92 118.47 352.25 118.21 347.92C117.872 343.915 118.043 339.882 118.72 335.92C119.41 332.33 120.3 329.17 121.1 326.43C121.9 323.69 122.68 321.38 123.32 319.5C123.96 317.62 124.49 316.2 124.84 315.23L125.26 314.14C125.36 313.89 125.42 313.77 125.42 313.77L125.3 314.15C125.21 314.42 125.08 314.78 124.92 315.26C124.59 316.26 124.1 317.69 123.47 319.55C122.84 321.41 122.12 323.76 121.33 326.5C120.54 329.24 119.68 332.4 119.01 335.98C118.356 339.945 118.208 343.978 118.57 347.98C118.81 352.34 119.28 356.98 119.88 361.98C121.07 371.92 122.75 382.98 124.88 394.98V395.04C124.41 402.33 123.88 409.96 123.19 417.86C122.85 421.81 122.48 425.86 122.02 429.86C121.78 431.86 121.53 433.94 121.21 435.99C121.07 436.99 120.85 438.04 120.65 439.07C120.5 439.58 120.37 440.07 120.22 440.61C120.07 441.15 119.88 441.61 119.74 442.09C119.34 443.44 119.02 444.81 118.59 446.17C118.189 447.543 117.535 448.829 116.66 449.96C115.74 451.052 114.589 451.926 113.29 452.52C112.011 453.103 110.669 453.536 109.29 453.81C108.671 453.955 108.108 454.279 107.67 454.74C107.195 455.195 106.76 455.69 106.37 456.22C105.593 457.289 104.904 458.419 104.31 459.6C103.049 461.852 102.27 464.341 102.02 466.91L101.77 466.66H129.04L128.87 466.73C132.171 462.99 134.63 458.583 136.08 453.81C136.22 453.24 136.33 452.66 136.43 452.09L136.61 450.36C136.68 449.78 136.73 449.19 136.82 448.62C136.91 448.05 137.03 447.49 137.14 446.93C137.58 444.71 138.09 442.56 138.6 440.49C140.67 432.2 142.75 425.04 144.46 419.12C146.17 413.2 147.59 408.58 148.56 405.41C149.05 403.85 149.42 402.64 149.68 401.8L149.98 400.88C150.023 400.729 150.08 400.581 150.15 400.44V400.44Z" fill="#263238"/>
<path d="M197.9 331.9C197.9 331.9 198 332.11 198.17 332.54L198.89 334.46C199.52 336.16 200.43 338.65 201.61 341.85C203.94 348.28 207.31 357.58 211.22 369.17C212.22 372.07 213.22 375.11 214.17 378.31C214.67 379.9 215.17 381.54 215.6 383.22C216.008 384.947 216.312 386.697 216.51 388.46C217.38 395.61 217.79 403.29 218.25 411.36C218.71 419.43 219.09 427.91 219.68 436.68C219.99 441.06 220.31 445.53 220.93 450.01C221.09 451.13 221.27 452.26 221.52 453.36C221.642 453.917 221.803 454.465 222 455C222.09 455.248 222.211 455.483 222.36 455.7C222.43 455.78 222.51 455.88 222.58 455.9C222.7 455.954 222.824 456.001 222.95 456.04C224.088 456.371 225.166 456.885 226.14 457.56C226.629 457.902 227.085 458.291 227.5 458.72C227.907 459.164 228.266 459.65 228.57 460.17C229.733 462.308 230.088 464.792 229.57 467.17V467.37H229.36H198.87H198.61V467.12C198.73 464.573 199.115 462.046 199.76 459.58C200.34 457.15 201 454.78 201.76 452.46V452.56C199.92 440.56 198.18 429.45 196.55 419.56C195.72 414.62 194.95 409.97 194.09 405.69C193.97 405.16 193.88 404.62 193.74 404.11L193.54 403.35C193.455 403.109 193.352 402.875 193.23 402.65C192.735 401.762 192.162 400.919 191.52 400.13C190.3 398.55 189.03 397.13 187.83 395.74C182.96 390.3 178.9 386.19 176.14 383.36L172.96 380.13L172.15 379.3C171.96 379.11 171.88 379.01 171.88 379.01L172.17 379.27L173.02 380.07C173.76 380.81 174.837 381.87 176.25 383.25C179.04 386.05 183.14 390.13 188.05 395.54C189.26 396.91 190.54 398.34 191.78 399.94C192.443 400.74 193.029 401.6 193.53 402.51C193.665 402.746 193.779 402.994 193.87 403.25L194.07 404.03C194.22 404.55 194.31 405.08 194.43 405.62C195.32 409.91 196.1 414.55 196.94 419.5C198.61 429.39 200.38 440.5 202.23 452.5V452.61C201.52 454.92 200.86 457.28 200.29 459.7C199.663 462.132 199.284 464.621 199.16 467.13L198.91 466.88L229.4 466.82L229.14 467.02C229.608 464.775 229.253 462.436 228.14 460.43C227.851 459.946 227.516 459.49 227.14 459.07C226.746 458.673 226.318 458.311 225.86 457.99C224.945 457.348 223.932 456.859 222.86 456.54C222.711 456.491 222.564 456.434 222.42 456.37C222.248 456.289 222.102 456.161 222 456C221.816 455.75 221.671 455.473 221.57 455.18C221.362 454.633 221.195 454.072 221.07 453.5C220.81 452.37 220.63 451.24 220.47 450.11C219.85 445.59 219.53 441.11 219.22 436.73C218.64 427.95 218.22 419.47 217.82 411.4C217.42 403.33 216.98 395.66 216.14 388.53C215.944 386.784 215.647 385.051 215.25 383.34C214.803 381.667 214.333 380.033 213.84 378.44C212.84 375.25 211.84 372.21 210.92 369.31C207.06 357.71 203.74 348.39 201.47 341.94C200.33 338.73 199.47 336.23 198.84 334.51C198.55 333.68 198.32 333.03 198.17 332.58C198.02 332.13 197.9 331.9 197.9 331.9Z" fill="#263238"/>
<path d="M171.27 424C171.071 423.874 170.883 423.73 170.71 423.57L169.18 422.27C167.88 421.11 166.04 419.37 163.91 417.09C158.402 411.104 153.301 404.757 148.64 398.09C143.911 391.48 139.634 384.558 135.84 377.37C134.41 374.59 133.39 372.28 132.74 370.66C132.46 369.88 132.23 369.26 132.05 368.78C131.96 368.563 131.89 368.339 131.84 368.11C131.965 368.309 132.069 368.52 132.15 368.74L132.93 370.58C133.64 372.17 134.7 374.45 136.17 377.2C140.05 384.318 144.358 391.194 149.07 397.79C153.722 404.42 158.768 410.764 164.18 416.79C166.27 419.1 168.06 420.87 169.32 422.07L170.78 423.44C170.96 423.612 171.124 423.799 171.27 424V424Z" fill="#263238"/>
<path d="M154.5 420.17C156.349 426.079 157.572 432.166 158.15 438.33C158.168 438.987 158.437 439.613 158.902 440.078C159.367 440.543 159.993 440.812 160.65 440.83C161.312 440.827 161.947 440.563 162.415 440.095C162.883 439.627 163.147 438.992 163.15 438.33C162.561 431.717 161.277 425.184 159.32 418.84C159.144 418.201 158.721 417.658 158.144 417.331C157.567 417.003 156.884 416.919 156.245 417.095C155.606 417.271 155.063 417.694 154.736 418.271C154.408 418.848 154.324 419.531 154.5 420.17V420.17Z" fill="#FF725E"/>
<path d="M125.63 317.68C124.78 296.29 123.24 271.32 125.57 263.18C127.9 255.04 144.27 238.96 153.68 235.18C163.09 231.4 178.68 236.42 183.38 240.59L213 233.47C213 233.47 218.81 246.94 211.65 257.74C204.49 268.54 183.37 268.42 183.37 268.42C183.37 268.42 181.48 280.17 190.51 281.2C199.54 282.23 211.56 280.82 212.71 290.64L194.16 292.3L195.16 308.66L159.86 327.42L126.81 317.88" fill="#FF725E"/>
<path d="M151 248.21C151.106 248.496 151.17 248.796 151.19 249.1L151.56 251.68C151.86 254.05 152.26 257.26 152.76 261.17C153.26 265.08 153.76 270 154.41 275.27C154.785 278.056 155.006 280.86 155.07 283.67C155.179 286.739 154.673 289.8 153.58 292.67C152.396 295.586 150.132 297.933 147.26 299.22C144.576 300.328 141.617 300.59 138.78 299.97C136.226 299.443 133.85 298.269 131.88 296.56C130.216 295.05 128.858 293.233 127.88 291.21C126.458 288.299 125.697 285.11 125.65 281.87C125.624 280.999 125.654 280.127 125.74 279.26C125.749 278.954 125.803 278.651 125.9 278.36C125.98 278.36 125.85 279.61 125.99 281.85C126.174 285.01 127.008 288.097 128.44 290.92C129.44 292.851 130.798 294.575 132.44 296C134.332 297.598 136.6 298.689 139.03 299.17C141.711 299.74 144.502 299.479 147.03 298.42C149.694 297.218 151.791 295.032 152.88 292.32C153.922 289.562 154.411 286.627 154.32 283.68C154.263 280.902 154.062 278.128 153.72 275.37C153.17 270.08 152.67 265.3 152.25 261.24C151.83 257.18 151.57 254.09 151.34 251.71C151.26 250.71 151.19 249.81 151.13 249.12C151.051 248.823 151.008 248.517 151 248.21V248.21Z" fill="#263238"/>
<path d="M204.17 235.73C204.133 237.328 204.713 238.879 205.79 240.06C206.856 241.106 208.176 241.857 209.62 242.24C211.428 242.976 213.439 243.04 215.29 242.42C215.287 240.044 214.916 237.683 214.19 235.42C214.117 235.062 213.971 234.722 213.761 234.423C213.551 234.124 213.282 233.871 212.97 233.68C212.579 233.54 212.16 233.499 211.75 233.56C209.097 233.756 206.515 234.506 204.17 235.76" fill="#263238"/>
<g opacity="0.3">
<path d="M125.94 283.74C126.74 289.03 128.2 294.82 131.81 298.74C135.42 302.66 141.11 305 146.27 303.62C152.62 301.92 156.54 295.17 157.05 288.62C157.56 282.07 155.37 275.62 153.21 269.44C154.21 275.35 155.28 281.44 153.89 287.28C152.5 293.12 148.06 298.65 142.11 299.36C140.029 299.542 137.934 299.223 136.001 298.429C134.068 297.636 132.354 296.392 131 294.8C128.14 291.77 126.355 287.884 125.92 283.74" fill="black"/>
</g>
<path d="M215.39 244.76C215.471 245.274 215.471 245.796 215.39 246.31C215.277 247.716 215.053 249.11 214.72 250.48C214.229 252.52 213.511 254.499 212.58 256.38C211.454 258.731 209.826 260.807 207.81 262.46C205.754 264.029 203.462 265.261 201.02 266.11C199.053 266.823 197.029 267.368 194.97 267.74C193.589 268.004 192.193 268.181 190.79 268.27C190.28 268.354 189.76 268.354 189.25 268.27C189.25 268.13 191.42 267.95 194.84 267.15C196.843 266.697 198.811 266.103 200.73 265.37C203.072 264.506 205.272 263.299 207.26 261.79C209.173 260.213 210.736 258.255 211.85 256.04C212.789 254.223 213.546 252.317 214.11 250.35C215.08 246.94 215.23 244.75 215.39 244.76Z" fill="#263238"/>
<path d="M172.23 249.24C171.571 249.511 171.045 250.03 170.764 250.685C170.484 251.34 170.472 252.079 170.73 252.743C170.989 253.407 171.498 253.943 172.148 254.236C172.798 254.528 173.536 254.554 174.205 254.308C174.874 254.061 175.419 253.563 175.724 252.918C176.028 252.274 176.068 251.536 175.834 250.863C175.6 250.19 175.111 249.635 174.473 249.319C173.835 249.002 173.097 248.949 172.42 249.17" fill="#263238"/>
<path d="M162 252.41C161.67 252.54 161.12 252.11 160.71 251.17C160.212 249.921 160.107 248.55 160.41 247.24C160.669 245.922 161.329 244.717 162.3 243.79C163.06 243.1 163.74 242.93 163.99 243.18C164.5 243.74 163.47 245.51 162.99 247.8C162.51 250.09 162.74 252.11 162 252.41Z" fill="#263238"/>
<path d="M198.86 427.35C198.86 427.41 197.86 427.35 195.99 427.44C194.872 427.491 193.759 427.622 192.66 427.83C191.21 428.093 189.814 428.596 188.53 429.32C185.66 430.91 182.87 433.76 179.67 436.71C176.47 439.66 173.58 443.61 169.42 446.6C167.397 448.08 165.06 449.072 162.59 449.5C160.2 449.89 157.89 449.84 155.72 450.01C153.677 450.077 151.672 450.582 149.84 451.49C148.275 452.339 146.932 453.545 145.92 455.01C144.417 457.133 143.626 459.679 143.66 462.28C143.715 463.231 143.839 464.177 144.03 465.11C143.68 464.21 143.487 463.256 143.46 462.29C143.339 459.624 144.098 456.992 145.62 454.8C146.642 453.27 148.013 452.005 149.62 451.11C151.499 450.155 153.563 449.619 155.67 449.54C157.87 449.35 160.17 449.38 162.49 449C164.882 448.575 167.146 447.61 169.11 446.18C173.18 443.25 176.11 439.37 179.33 436.37C182.55 433.37 185.33 430.6 188.33 428.99C189.66 428.275 191.1 427.785 192.59 427.54C193.704 427.352 194.831 427.251 195.96 427.24C196.89 427.24 197.61 427.24 198.1 427.29C198.355 427.29 198.609 427.31 198.86 427.35V427.35Z" fill="#263238"/>
<path d="M161.62 457.82C161.921 457.746 162.231 457.719 162.54 457.74C163.378 457.751 164.213 457.852 165.03 458.04C167.776 458.641 170.263 460.092 172.137 462.187C174.011 464.282 175.178 466.914 175.47 469.71C175.56 470.544 175.56 471.386 175.47 472.22C175.461 472.528 175.4 472.832 175.29 473.12C175.19 473.12 175.4 471.81 175.09 469.75C174.71 467.063 173.541 464.55 171.73 462.529C169.92 460.508 167.549 459.071 164.92 458.4C162.93 457.86 161.61 457.92 161.62 457.82Z" fill="#263238"/>
<path d="M171.49 471C171.406 471.804 171.154 472.58 170.75 473.28C169.863 475.031 168.509 476.502 166.837 477.531C165.166 478.56 163.243 479.106 161.28 479.11C160.472 479.166 159.662 479.039 158.91 478.74C158.91 478.66 159.82 478.83 161.26 478.74C163.137 478.642 164.959 478.075 166.56 477.089C168.16 476.104 169.488 474.732 170.42 473.1C171.15 471.85 171.4 471 171.49 471Z" fill="#263238"/>
<path d="M162.86 464.55C162.86 464.63 162.06 464.79 160.86 465.3C159.279 465.952 157.858 466.94 156.696 468.195C155.534 469.45 154.658 470.943 154.13 472.57C153.71 473.82 153.62 474.64 153.53 474.63C153.463 473.897 153.548 473.158 153.78 472.46C154.241 470.73 155.121 469.14 156.341 467.83C157.562 466.52 159.087 465.531 160.78 464.95C161.436 464.668 162.146 464.531 162.86 464.55Z" fill="#263238"/>
<path d="M219.81 467.69C219.829 467.019 219.899 466.35 220.02 465.69C220.229 464.088 220.082 462.459 219.59 460.92C219.041 459.414 217.935 458.175 216.5 457.46C215.88 457.219 215.237 457.045 214.58 456.94C215.269 456.752 216.003 456.815 216.65 457.12C217.441 457.453 218.155 457.947 218.745 458.57C219.335 459.193 219.79 459.932 220.08 460.74C220.612 462.352 220.715 464.076 220.38 465.74C220.305 466.418 220.112 467.078 219.81 467.69V467.69Z" fill="#263238"/>
<path d="M121.07 456.23C121.07 456.32 120.14 456.23 118.7 456.42C116.823 456.694 115.05 457.456 113.56 458.63C112.09 459.834 110.956 461.398 110.27 463.17C109.75 464.53 109.66 465.45 109.57 465.44C109.506 464.623 109.629 463.802 109.93 463.04C110.531 461.144 111.68 459.467 113.232 458.222C114.783 456.976 116.668 456.217 118.65 456.04C119.461 455.917 120.289 455.982 121.07 456.23V456.23Z" fill="#263238"/>
<path d="M245.57 447.11C245.57 447.11 246.05 446.48 246.81 445.28C247.875 443.592 248.709 441.769 249.29 439.86C250.137 437.021 250.509 434.061 250.39 431.1C250.261 427.479 249.411 423.919 247.89 420.63C246.385 417.334 244.031 414.498 241.07 412.41C238.675 410.699 235.951 409.504 233.07 408.9C231.116 408.502 229.098 408.54 227.16 409.01C226.636 409.158 226.122 409.339 225.62 409.55C225.45 409.639 225.268 409.703 225.08 409.74C225.234 409.622 225.402 409.525 225.58 409.45C226.066 409.193 226.575 408.982 227.1 408.82C229.05 408.257 231.106 408.161 233.1 408.54C236.071 409.089 238.888 410.273 241.36 412.01C242.832 413.016 244.161 414.217 245.31 415.58C246.531 417.056 247.562 418.678 248.38 420.41C249.934 423.762 250.788 427.396 250.89 431.09C250.991 434.099 250.575 437.102 249.66 439.97C249.038 441.898 248.142 443.727 247 445.4C246.58 445.98 246.24 446.4 246 446.7C245.872 446.852 245.728 446.99 245.57 447.11V447.11Z" fill="#263238"/>
<path d="M124.58 396C119.924 394.936 115.042 395.556 110.8 397.75C108.109 399.097 105.741 401.011 103.86 403.36C102.888 404.558 102.125 405.91 101.6 407.36C101.138 408.73 100.803 410.139 100.6 411.57C100.265 414.018 100.122 416.489 100.17 418.96C100.17 421.07 100.25 422.78 100.28 423.96C100.28 424.5 100.28 424.96 100.28 425.32C100.305 425.479 100.305 425.641 100.28 425.8C100.234 425.648 100.21 425.489 100.21 425.33C100.21 424.95 100.14 424.51 100.1 423.97C100.01 422.78 99.89 421.07 99.82 418.97C99.7242 416.478 99.8346 413.983 100.15 411.51C100.344 410.045 100.679 408.601 101.15 407.2C101.685 405.688 102.472 404.278 103.48 403.03C105.408 400.622 107.847 398.672 110.62 397.32C112.872 396.209 115.303 395.508 117.8 395.25C119.469 395.08 121.155 395.161 122.8 395.49C123.251 395.572 123.695 395.686 124.13 395.83C124.287 395.867 124.438 395.925 124.58 396V396Z" fill="#263238"/>
<path d="M83.33 374.31C83.1934 373.96 83.1059 373.594 83.07 373.22C82.8915 372.228 82.7713 371.226 82.71 370.22C82.2542 363.453 83.6838 356.693 86.84 350.69C87.3021 349.761 87.8232 348.863 88.4 348C88.5842 347.673 88.8093 347.37 89.07 347.1C89.15 347.15 88.28 348.49 87.16 350.79C84.2354 356.808 82.8343 363.453 83.08 370.14C83.17 372.73 83.42 374.3 83.33 374.31Z" fill="#263238"/>
<path d="M80.12 375.87C79.9801 375.52 79.8828 375.154 79.83 374.78C79.66 374.08 79.49 373.04 79.32 371.78C78.4977 365.052 79.1599 358.225 81.26 351.78C81.67 350.55 82.04 349.57 82.34 348.91C82.4639 348.559 82.6283 348.223 82.83 347.91C82.92 347.91 82.33 349.44 81.61 351.91C79.7218 358.36 79.0704 365.108 79.69 371.8C79.92 374.28 80.21 375.86 80.12 375.87Z" fill="#263238"/>
<g opacity="0.3">
<path d="M145.35 415.52C149.513 420.095 152.487 425.624 154.01 431.62C154.452 432.914 154.469 434.315 154.06 435.62C152.91 438.32 149.2 438.44 146.67 439.9C144.54 441.12 143.23 443.34 142.01 445.47L129.61 467.03C133.44 466.71 134.86 467.11 138.69 466.8L144.85 466.93C144.62 467.03 143.65 464 143.57 462.58C143.32 458.24 146.25 452.99 150.15 451.06C155.04 448.63 160.67 450.66 165.64 448.38C170.39 446.19 173.22 442.85 176.31 439.79C180.19 435.94 184.04 430.79 189.01 428.56C191.26 427.56 196.63 427.44 196.63 427.44C194.08 424.44 189.4 424.59 185.63 425.61C181.86 426.63 177.92 428.3 174.07 427.43C170.84 426.71 168.27 424.32 165.88 422.03C159.75 416.17 153.41 410.03 150.67 401.96L145.56 415.17" fill="black"/>
</g>
<g opacity="0.3">
<path d="M229.35 467.05C231.35 462.19 226.81 456.45 224.99 451.53C223.17 446.61 223.55 441.05 223.56 435.74C223.588 424.521 221.777 413.373 218.2 402.74C217.8 417.32 219.47 432.8 220.34 447.35C220.52 450.44 220.28 454.01 222.55 456.11C223.71 457.19 224.4 456.72 225.7 457.62C227 458.52 229.55 460.62 229.35 467.02" fill="black"/>
</g>
<path d="M170.46 323.43C168.611 322.774 166.911 321.758 165.459 320.439C164.007 319.121 162.831 317.527 162 315.75C163.181 317.26 164.453 318.696 165.81 320.05C167.285 321.277 168.838 322.406 170.46 323.43V323.43Z" fill="#263238"/>
<path d="M174.21 321.38C171.004 320.414 168.197 318.435 166.21 315.74C166.33 315.64 167.84 317.23 170.05 318.74C172.26 320.25 174.27 321.23 174.21 321.38Z" fill="#263238"/>
<path d="M179.15 321.2C177.576 320.922 176.091 320.27 174.82 319.3C173.452 318.476 172.298 317.343 171.45 315.99C171.57 315.88 172.98 317.44 175.11 318.87C177.24 320.3 179.2 321.05 179.15 321.2Z" fill="#263238"/>
<path d="M145.14 364.15C143.32 363.365 141.72 362.146 140.48 360.6C139.117 359.167 138.13 357.418 137.61 355.51C138.59 357.166 139.683 358.753 140.88 360.26C142.212 361.65 143.635 362.949 145.14 364.15V364.15Z" fill="#263238"/>
<path d="M148.83 364.2C146.002 362.453 143.827 359.825 142.64 356.72C142.78 356.65 143.81 358.58 145.52 360.64C147.23 362.7 148.92 364.08 148.83 364.2Z" fill="#263238"/>
<path d="M155.26 365.45C153.963 364.438 152.776 363.291 151.72 362.03C150.535 360.886 149.476 359.619 148.56 358.25C149.856 359.268 151.042 360.417 152.1 361.68C153.283 362.822 154.343 364.085 155.26 365.45Z" fill="#263238"/>
<path d="M135.42 282.23C135.42 282.23 134.97 282.05 134.42 281.51C133.772 280.785 133.288 279.929 133 279C132.682 278.079 132.562 277.101 132.65 276.13C132.73 275.39 132.91 274.96 132.97 274.97C132.975 276.274 133.15 277.571 133.49 278.83C133.975 280.046 134.625 281.19 135.42 282.23V282.23Z" fill="#263238"/>
<path d="M137.18 281.46C136.425 280.742 135.9 279.816 135.67 278.8C135.286 277.831 135.193 276.771 135.4 275.75C135.56 275.75 135.68 277.09 136.17 278.64C136.66 280.19 137.3 281.38 137.18 281.46Z" fill="#263238"/>
<path d="M141.15 284C139.259 281.831 138.049 279.153 137.67 276.3C137.82 276.3 138.35 278.08 139.31 280.19C140.27 282.3 141.27 283.86 141.15 284Z" fill="#263238"/>
<path d="M258.92 99.35C251.17 104.1 248.54 115.57 248.21 124.65C247.88 133.73 250.35 142.65 252.36 151.52C254.37 160.39 255.92 169.68 253.74 178.52C251.74 186.7 246.62 195.32 250.29 202.9C253.06 208.62 260.15 211.59 262.11 217.64C264.39 224.7 258.62 231.64 253.32 236.79C254.593 238.719 256.536 240.107 258.773 240.685C261.01 241.263 263.382 240.991 265.43 239.92C265.363 240.995 265.074 242.045 264.582 243.004C264.09 243.962 263.405 244.809 262.57 245.49C265.599 246.218 268.774 246.059 271.716 245.033C274.657 244.006 277.241 242.155 279.16 239.7C278.43 242.22 277.69 244.7 276.96 247.26C283.046 245.822 288.334 242.071 291.7 236.8L294.25 241.58C304 234.88 310.78 224.34 314.11 212.98C317.44 201.62 317.47 189.49 315.56 177.81C312.722 161.283 306.144 145.623 296.327 132.028C286.51 118.433 273.715 107.263 258.92 99.37" fill="#263238"/>
<path d="M372.34 182.63C368.87 178.46 364.59 174.32 364.11 168.91C363.9 166.53 364.47 164.08 363.93 161.74C362.53 155.74 354.69 153.33 352.33 147.61C349.33 140.43 356.11 130.93 351.11 124.98C348.71 122.13 344.58 121.57 341.43 119.58C333.43 114.51 335.37 100.58 316.18 90.44L317.61 121.06C324.077 146.957 329.214 173.168 333 199.59L376.31 197.45C378.78 192.63 375.82 186.8 372.34 182.63Z" fill="#263238"/>
<path d="M249.75 110.51C249.979 106.69 250.967 102.953 252.657 99.5195C254.346 96.0855 256.703 93.0227 259.59 90.51C265.94 85.03 274.51 82.59 282.89 82.51C291.27 82.43 299.56 84.42 307.54 87C312.02 88.45 316.54 90.13 320.17 93.12C326.81 98.57 329.45 107.38 331.76 115.65C333.62 122.34 335.5 129.37 333.96 136.14C333.226 139.252 331.803 142.16 329.795 144.649C327.787 147.138 325.247 149.144 322.36 150.52" fill="#263238"/>
<path d="M252.07 104.75C247.52 112.47 245.727 121.506 246.986 130.378C248.245 139.25 252.481 147.431 259 153.58C259.223 134.275 261.126 115.025 264.69 96.05" fill="#263238"/>
<path d="M250.31 131.31C248.31 117.78 253.68 99.51 267.31 98.09L299.76 99.32C310.17 99.72 318.54 106.64 321.45 116.64C321.59 117.14 321.51 116.51 321.58 116.9L336.66 198C337.835 204.387 336.438 210.98 332.775 216.342C329.111 221.705 323.477 225.402 317.1 226.63V226.63C310.782 227.845 304.239 226.537 298.874 222.985C293.509 219.433 289.749 213.921 288.4 207.63C286.99 201.14 285.34 193.48 285.34 193.52C285.34 193.56 267.68 194.31 259.41 172.81C255.3 162.11 252.53 146.34 250.31 131.31Z" fill="#9D6054"/>
<path d="M279.39 117.77C275.467 120.003 271.127 121.408 266.64 121.9C266.64 121.74 269.54 121.1 273.05 119.96C276.56 118.82 279.32 117.63 279.39 117.77Z" fill="#724A44"/>
<path d="M274.25 118.05C271.815 119.451 269.059 120.199 266.25 120.22C267.554 119.753 268.891 119.382 270.25 119.11C271.556 118.659 272.892 118.305 274.25 118.05V118.05Z" fill="#724A44"/>
<path d="M293 160.1C292.86 160.15 292.47 159.29 291.45 158.91C290.43 158.53 289.57 158.91 289.5 158.72C289.43 158.53 289.64 158.46 290.04 158.32C290.568 158.15 291.139 158.175 291.65 158.39C292.17 158.586 292.604 158.958 292.88 159.44C293.06 159.82 293.05 160.09 293 160.1Z" fill="#724A44"/>
<path d="M259 147.68C259.153 148.426 259.59 149.082 260.22 149.51C260.849 149.938 261.621 150.103 262.37 149.97C262.74 149.923 263.096 149.801 263.417 149.613C263.739 149.425 264.02 149.175 264.243 148.876C264.466 148.578 264.626 148.237 264.715 147.876C264.804 147.514 264.819 147.138 264.76 146.77C264.61 146.025 264.174 145.369 263.546 144.941C262.918 144.513 262.148 144.348 261.4 144.48C261.031 144.529 260.675 144.651 260.353 144.839C260.032 145.027 259.751 145.278 259.528 145.576C259.304 145.874 259.142 146.213 259.052 146.575C258.961 146.936 258.944 147.312 259 147.68V147.68Z" fill="#263238"/>
<path d="M256.26 139.91C256.69 140.21 258.51 138.15 261.59 137.5C264.67 136.85 267.24 137.91 267.49 137.5C267.62 137.3 267.12 136.7 265.98 136.19C264.455 135.557 262.773 135.407 261.16 135.76C259.564 136.097 258.115 136.93 257.02 138.14C256.23 139 256.05 139.78 256.26 139.91Z" fill="#263238"/>
<path d="M286.59 141.65C286.731 142.414 287.169 143.09 287.809 143.531C288.448 143.971 289.236 144.14 290 144C290.369 143.951 290.724 143.829 291.045 143.641C291.367 143.452 291.647 143.202 291.869 142.904C292.092 142.605 292.253 142.266 292.342 141.904C292.432 141.543 292.448 141.168 292.39 140.8C292.24 140.055 291.805 139.397 291.177 138.968C290.55 138.538 289.779 138.37 289.03 138.5C288.661 138.543 288.305 138.659 287.982 138.842C287.659 139.024 287.376 139.269 287.148 139.563C286.921 139.856 286.755 140.192 286.659 140.55C286.563 140.908 286.54 141.282 286.59 141.65V141.65Z" fill="#263238"/>
<path d="M286.57 134.06C287.01 134.36 288.83 132.3 291.9 131.65C294.97 131 297.55 132.07 297.81 131.65C297.93 131.45 297.43 130.85 296.3 130.35C294.774 129.707 293.087 129.553 291.47 129.91C289.871 130.247 288.421 131.084 287.33 132.3C286.54 133.19 286.36 133.93 286.57 134.06Z" fill="#263238"/>
<path d="M280.27 159.21C280.27 159.03 278.27 159.11 275.09 159.37C274.29 159.46 273.51 159.46 273.27 158.95C273.018 158.16 273.018 157.31 273.27 156.52C273.6 154.46 273.95 152.31 274.32 150.05C275.73 140.86 276.57 133.37 276.2 133.32C275.83 133.27 274.39 140.67 272.97 149.86C272.637 152.12 272.323 154.28 272.03 156.34C271.737 157.393 271.826 158.516 272.28 159.51C272.452 159.762 272.679 159.972 272.944 160.122C273.209 160.273 273.506 160.361 273.81 160.38C274.269 160.402 274.729 160.369 275.18 160.28C278.36 159.79 280.3 159.39 280.27 159.21Z" fill="#263238"/>
<path d="M313.15 179.26C313.15 179.26 309.15 196.09 286.47 198.75L285.34 193.52C295.751 191.433 305.379 186.496 313.15 179.26V179.26Z" fill="#724A44"/>
<path d="M283.14 166.34C283.569 165.48 284.21 164.743 285.002 164.198C285.795 163.654 286.713 163.321 287.67 163.23C288.361 163.146 289.062 163.203 289.731 163.397C290.399 163.592 291.021 163.919 291.56 164.36C292.075 164.788 292.447 165.363 292.626 166.008C292.805 166.654 292.782 167.338 292.56 167.97C292.184 168.626 291.62 169.155 290.941 169.488C290.262 169.822 289.499 169.944 288.75 169.84C287.187 169.638 285.681 169.125 284.32 168.33C283.922 168.158 283.56 167.914 283.25 167.61C283.103 167.464 283.002 167.279 282.959 167.076C282.917 166.873 282.934 166.663 283.01 166.47" fill="#724A44"/>
<path d="M289.76 159.41C289.26 159.49 289.96 162.83 287.61 165.8C285.26 168.77 281.61 169.16 281.7 169.63C281.7 169.85 282.63 170.11 284.14 169.83C286.109 169.452 287.88 168.39 289.14 166.83C290.34 165.334 290.91 163.429 290.73 161.52C290.53 160.09 290 159.35 289.76 159.41Z" fill="#263238"/>
<path d="M283.9 125.23C284.38 126 287.36 124.95 291.06 124.62C294.76 124.29 297.88 124.62 298.2 123.8C298.33 123.4 297.66 122.72 296.31 122.16C294.531 121.504 292.626 121.261 290.739 121.45C288.853 121.639 287.034 122.254 285.42 123.25C284.21 124.06 283.69 124.86 283.9 125.23Z" fill="#263238"/>
<path d="M255.5 130.78C256.19 131.36 258.15 130.19 260.69 129.61C263.23 129.03 265.48 129.08 265.83 128.25C265.97 127.85 265.48 127.25 264.4 126.76C262.971 126.236 261.418 126.146 259.938 126.502C258.457 126.858 257.115 127.643 256.08 128.76C255.33 129.71 255.19 130.49 255.5 130.78Z" fill="#263238"/>
<path d="M252 109.69C252.64 106.05 255.88 103.25 259.45 102.29C263.02 101.33 266.84 101.94 270.36 103.08C285.25 107.89 295.97 121.49 310.76 126.6C314.4 127.86 318.28 128.6 321.57 130.6C324.86 132.6 327.57 136.34 326.75 140.11C328.127 137.378 329.1 134.461 329.64 131.45C329.903 129.942 329.84 128.395 329.456 126.913C329.071 125.432 328.373 124.05 327.41 122.86C325.86 121.14 323.54 120.07 322.51 117.99C321.61 116.16 321.94 113.99 321.43 111.99C320.772 110.011 319.655 108.215 318.17 106.75C311.1 98.75 302.28 92.1 292.1 88.95C285.436 86.7933 278.309 86.4993 271.49 88.1C264.644 89.7317 258.612 93.7664 254.49 99.47C252.15 102.82 249.67 106.31 251.99 109.69" fill="#263238"/>
<path d="M335.21 143.47C334.63 143.32 334.57 141.8 334.13 139.4C333.919 138.063 333.476 136.774 332.82 135.59C332.643 135.304 332.442 135.033 332.22 134.78C332.114 134.659 332.001 134.546 331.88 134.44L331.4 134C330.682 133.363 329.916 132.781 329.11 132.26C328.447 131.798 327.694 131.482 326.9 131.33C326.64 131.33 326.6 131.39 326.72 131.4L325.97 131.72L325.17 132.1C324.134 132.608 323.16 133.235 322.27 133.97C321.8 134.35 321.34 134.77 320.87 135.22L320.52 135.57L319.92 136.13C319.515 136.486 319.091 136.82 318.65 137.13C316.856 138.371 314.805 139.191 312.65 139.53C311.337 139.733 309.997 139.689 308.7 139.4L308.16 139.26L307.73 139.11C307.45 139.01 307.15 138.92 306.88 138.8C306.324 138.564 305.782 138.294 305.26 137.99C303.368 136.836 301.699 135.353 300.33 133.61C299 132 298 130.43 297 129C293.43 123.805 289.067 119.202 284.07 115.36C279.945 112.186 275.452 109.52 270.69 107.42C267.571 105.915 264.255 104.858 260.84 104.28C258.45 103.93 256.95 104.02 256.74 103.44C256.53 102.86 257.74 101.72 260.64 101.01C263.54 100.3 267.87 100.49 272.64 101.81C278.32 103.328 283.707 105.782 288.58 109.07C294.616 113.103 299.826 118.252 303.93 124.24C304.93 125.78 305.93 127.17 306.81 128.33C307.555 129.326 308.457 130.194 309.48 130.9C309.681 131.032 309.892 131.149 310.11 131.25C310.214 131.303 310.321 131.349 310.43 131.39L310.58 131.45H310.65C310.974 131.549 311.315 131.576 311.65 131.53C312.661 131.404 313.632 131.063 314.5 130.53C314.72 130.4 314.92 130.27 315.11 130.14L315.38 129.94L315.87 129.52C316.54 128.96 317.24 128.43 317.96 127.94C319.381 126.974 320.916 126.188 322.53 125.6C322.91 125.47 323.28 125.34 323.65 125.23L324.19 125.06L324.82 124.89C326.036 124.564 327.319 124.592 328.52 124.97C330.112 125.489 331.57 126.353 332.79 127.5C333.756 128.361 334.633 129.315 335.41 130.35C335.6 130.6 335.75 130.79 335.95 131.1C336.154 131.387 336.337 131.688 336.5 132C336.799 132.562 337.043 133.151 337.23 133.76C337.748 135.589 337.823 137.516 337.45 139.38C336.81 142.34 335.74 143.62 335.21 143.47Z" fill="#263238"/>
<path d="M322.75 134C322.85 133.31 333.56 126.63 336.36 138.93C339.09 150.93 326.49 151.12 326.36 150.79C326.23 150.46 322.75 134 322.75 134Z" fill="#9D6054"/>
<path d="M329.06 145.41C329.11 145.41 329.3 145.51 329.69 145.59C330.235 145.688 330.797 145.573 331.26 145.27C332.41 144.52 333.03 142.27 332.6 140.11C332.405 139.078 331.977 138.103 331.35 137.26C331.154 136.91 330.876 136.613 330.54 136.396C330.204 136.178 329.819 136.045 329.42 136.01C329.167 136.003 328.919 136.084 328.719 136.239C328.518 136.394 328.377 136.613 328.32 136.86C328.23 137.23 328.32 137.45 328.32 137.48C328.32 137.51 328.01 137.34 328 136.83C328 136.518 328.106 136.214 328.3 135.97C328.573 135.649 328.961 135.448 329.38 135.41C329.894 135.395 330.402 135.512 330.858 135.75C331.313 135.989 331.699 136.34 331.98 136.77C332.723 137.69 333.227 138.779 333.45 139.94C333.91 142.37 333.19 144.94 331.57 145.79C331.267 145.959 330.929 146.056 330.583 146.075C330.236 146.094 329.89 146.034 329.57 145.9C329.15 145.69 329 145.44 329.06 145.41Z" fill="#724A44"/>
<path d="M282.51 220.92C280.099 221.954 277.918 223.459 276.098 225.348C274.277 227.238 272.854 229.472 271.91 231.92C268.6 240.3 254.22 291.31 254.22 291.31L224.22 295.16L221.95 322.88C230.626 325.141 239.478 326.666 248.41 327.44C259.47 328.44 277.35 326.79 282.01 324.18C286.67 321.57 281.55 222.11 281.55 222.11L282.51 220.92Z" fill="#E0E0E0"/>
<path d="M288.59 213.35C298.09 224.14 323.05 202.26 334.16 184.87L298.42 352.72L292.32 351.23L288.59 213.35Z" fill="#455A64"/>
<path d="M287.85 206L285.55 216.9L277 224.64C276.89 238.88 284.59 267.32 282.67 273.02C279.94 281.17 278.85 289.61 282.12 301.49C283.79 307.57 293.9 351.23 293.9 351.23C293.9 351.23 291 465.48 291.32 467H314.56L291.87 315L291 219.79L287.85 206Z" fill="#E0E0E0"/>
<path d="M436.94 394.56C429.74 376.56 403.11 330.5 403.11 330.5C403.11 330.5 400.95 314.31 399.11 278.68C397.27 243.05 381.88 203.11 378.64 197C375.4 190.89 339.4 184.88 339.4 184.88L333.1 175.71C333.1 175.71 319.68 211 319 212C318.32 213 303.91 255.36 302.47 267.24C301.03 279.12 297 343.1 297 343.1L314.56 467H445.48C445.48 467 444.14 412.55 436.94 394.56Z" fill="#E0E0E0"/>
<path d="M315.67 390.08L380.79 382.73H381.02V382.96C382.87 402.89 385.02 426.55 387.42 451.84C387.68 454.63 387.93 457.39 388.19 460.14V460.41H388L335.65 461.61H335.47L335.42 461.43C329.62 440.19 324.75 422.34 321.32 409.79C319.58 403.54 318.21 398.61 317.26 395.23L316.15 391.39L315.84 390.39C315.76 390.17 315.71 390.07 315.72 390.07C315.783 390.168 315.836 390.272 315.88 390.38C315.96 390.6 316.08 390.92 316.22 391.38C316.51 392.24 316.9 393.52 317.4 395.2C318.4 398.55 319.82 403.47 321.59 409.73C325.12 422.24 330.06 440.07 335.87 461.32L335.64 461.15L387.99 459.89L387.74 460.18C387.493 457.433 387.237 454.667 386.97 451.88C384.65 426.58 382.48 402.88 380.65 382.99L380.89 383.19L315.67 390.08Z" fill="#263238"/>
<path d="M382.32 399.25C382.32 399.39 368.32 400.53 351.1 401.79C333.88 403.05 319.85 403.96 319.84 403.79C319.83 403.62 333.84 402.51 351.06 401.25C368.28 399.99 382.31 399.1 382.32 399.25Z" fill="#263238"/>
<path d="M402.63 330.31C402.397 330.51 402.138 330.678 401.86 330.81C401.35 331.1 400.58 331.49 399.62 331.93C397.1 333.069 394.456 333.908 391.74 334.43C389.025 334.923 386.269 335.151 383.51 335.11C382.45 335.11 381.6 335.06 381.01 335.01C380.703 335.013 380.396 334.973 380.1 334.89C381.23 334.775 382.365 334.725 383.5 334.74C386.234 334.674 388.958 334.4 391.65 333.92C394.329 333.396 396.951 332.616 399.48 331.59C400.508 331.11 401.559 330.683 402.63 330.31V330.31Z" fill="#263238"/>
<path d="M403.11 330.5C402.443 331.334 401.699 332.103 400.89 332.8C399.46 334.16 397.43 335.98 395.15 337.94L389.32 342.94C388.544 343.659 387.722 344.327 386.86 344.94C387.521 344.101 388.264 343.33 389.08 342.64C390.51 341.28 392.54 339.46 394.81 337.49L400.64 332.49C401.415 331.769 402.24 331.104 403.11 330.5Z" fill="#263238"/>
<path d="M358.62 427.34C356.11 426.43 353.37 426.07 351.05 427.4C350.148 427.992 349.432 428.827 348.986 429.81C348.54 430.792 348.382 431.881 348.53 432.95C348.869 435.099 349.927 437.07 351.53 438.54C352.504 439.651 353.854 440.363 355.32 440.54C356.977 440.472 358.54 439.753 359.67 438.54C360.943 437.462 361.932 436.089 362.55 434.54C362.849 433.758 362.964 432.917 362.886 432.083C362.808 431.248 362.539 430.444 362.1 429.73C361.02 428.13 359.04 427.43 357.19 426.83" fill="#FF725E"/>
<path d="M350.07 426C350.284 424.938 350.169 423.835 349.74 422.84C349.521 422.352 349.195 421.919 348.787 421.573C348.378 421.227 347.898 420.976 347.38 420.84C346.856 420.708 346.305 420.732 345.795 420.909C345.285 421.087 344.838 421.411 344.51 421.84C344.092 422.499 343.932 423.29 344.06 424.06C344.133 424.746 344.388 425.401 344.8 425.955C345.211 426.509 345.764 426.942 346.4 427.21C347.054 427.475 347.78 427.501 348.452 427.283C349.123 427.066 349.696 426.618 350.07 426.02" fill="#FF725E"/>
<path d="M361.25 426.52C362.328 426.497 363.374 426.149 364.25 425.52C364.688 425.207 365.05 424.8 365.311 424.33C365.572 423.86 365.726 423.337 365.76 422.8C365.782 422.26 365.646 421.726 365.368 421.263C365.091 420.799 364.685 420.427 364.2 420.19C363.465 419.915 362.655 419.915 361.92 420.19C361.265 420.401 360.677 420.782 360.218 421.295C359.76 421.809 359.446 422.435 359.31 423.11C359.181 423.805 359.302 424.524 359.652 425.139C360.001 425.753 360.557 426.225 361.22 426.47" fill="#FF725E"/>
<path d="M366.71 430C367.457 429.996 368.186 429.766 368.8 429.34C369.094 429.119 369.336 428.836 369.509 428.511C369.682 428.186 369.781 427.828 369.8 427.46C369.817 427.087 369.723 426.717 369.531 426.397C369.339 426.077 369.057 425.821 368.72 425.66C368.214 425.47 367.656 425.47 367.15 425.66C366.7 425.805 366.297 426.066 365.981 426.418C365.665 426.769 365.447 427.198 365.35 427.66C365.267 428.14 365.353 428.634 365.594 429.057C365.835 429.48 366.215 429.806 366.67 429.98" fill="#FF725E"/>
<path d="M355.12 424.69C356.305 424.208 357.316 423.378 358.02 422.31C358.364 421.775 358.585 421.169 358.666 420.538C358.748 419.907 358.687 419.265 358.49 418.66C358.276 418.061 357.893 417.537 357.387 417.152C356.881 416.766 356.274 416.536 355.64 416.49C354.715 416.505 353.828 416.861 353.15 417.49C352.523 418.009 352.046 418.685 351.766 419.45C351.487 420.214 351.416 421.039 351.56 421.84C351.733 422.653 352.182 423.381 352.831 423.901C353.48 424.42 354.289 424.699 355.12 424.69Z" fill="#FF725E"/>
<path d="M302.43 300C302.439 299.9 302.462 299.803 302.5 299.71C302.56 299.49 302.65 299.21 302.75 298.85C303 298.07 303.34 296.97 303.75 295.58C304.67 292.7 305.99 288.58 307.63 283.53L320.63 243.6C320.73 242.9 320.84 242.15 320.94 241.39C321.94 234.62 322.82 228.11 323.68 222.06V222H323.73L335.65 208.66L335.6 208.77L338.26 191.38C338.58 189.38 338.84 187.74 339.02 186.61C339.11 186.08 339.18 185.67 339.23 185.36C339.253 185.218 339.286 185.077 339.33 184.94C339.345 185.083 339.345 185.227 339.33 185.37C339.33 185.68 339.24 186.1 339.18 186.62C339.03 187.76 338.81 189.37 338.53 191.42C337.93 195.6 337.08 201.56 336.05 208.83V208.89L324.19 222.29L324.25 222.16C323.4 228.21 322.49 234.72 321.54 241.49C321.43 242.25 321.33 243.01 321.23 243.71C316.05 259.34 311.4 273.4 308.03 283.59C306.33 288.59 304.96 292.73 304.03 295.59C303.55 296.97 303.18 298.06 302.91 298.83C302.79 299.183 302.69 299.463 302.61 299.67C302.48 299.87 302.44 300 302.43 300Z" fill="#263238"/>
<path d="M291.27 312.41C291.257 312.344 291.257 312.276 291.27 312.21C291.27 312.05 291.2 311.86 291.16 311.62C291.067 311.06 290.947 310.3 290.8 309.34C290.49 307.34 290.06 304.43 289.52 300.86C288.47 293.6 287.02 283.53 285.37 272.07V272C285.73 269.13 286.11 266.15 286.49 263.1C287.16 257.89 287.8 252.88 288.39 248.19L288.46 248.39L281 240.65L280.92 240.56V240.45L284.05 223.34C284.44 221.34 284.75 219.7 284.96 218.56C285.07 218.04 285.16 217.62 285.22 217.3C285.24 217.156 285.277 217.015 285.33 216.88C285.345 217.023 285.345 217.167 285.33 217.31C285.28 217.64 285.22 218.06 285.14 218.58C284.95 219.73 284.68 221.35 284.35 223.38C283.63 227.56 282.61 233.45 281.35 240.53L281.3 240.34L288.76 248.05L288.84 248.13V248.25C288.25 252.94 287.61 257.96 286.96 263.17C286.57 266.17 286.19 269.17 285.83 272.06V272L289.83 300.82C290.31 304.4 290.69 307.29 290.96 309.33C291.07 310.33 291.17 311.06 291.23 311.62L291.3 312.21C291.287 312.343 291.277 312.41 291.27 312.41Z" fill="#263238"/>
<path d="M314.54 466.84C314.4 466.84 310.86 442.77 306.63 413.03C302.4 383.29 299.09 359.15 299.23 359.13C299.37 359.11 302.92 383.21 307.14 412.96C311.36 442.71 314.68 466.82 314.54 466.84Z" fill="#263238"/>
<path d="M232 335.67L252.23 329.85L264.81 359.13L236.63 358.25L232 336.86" fill="#9D6054"/>
<path d="M252.23 329.85L268.68 368.15C268.68 368.15 350.92 344.68 356.8 338.09C362.68 331.5 375.12 272.09 377.24 260.54C379.36 248.99 381.7 202.21 371.83 194.72C361.96 187.23 352.33 188.87 342.93 199.21C335.32 207.58 322.93 255.5 318.48 273.4C317.391 277.806 317.099 282.371 317.62 286.88L318.49 294.37C318.49 294.37 310.74 301.42 310.27 308L252.23 329.85Z" fill="#E0E0E0"/>
<path d="M332 224.76C332 224.76 331.9 225.18 331.69 225.99C331.48 226.8 331.14 227.99 330.69 229.59C329.82 232.75 328.55 237.4 326.91 243.37L320.91 265.11C320.32 267.22 319.72 269.41 319.09 271.67C318.395 273.972 317.93 276.337 317.7 278.73C317.44 281.26 317.44 283.81 317.7 286.34C318.013 288.953 318.327 291.62 318.64 294.34V294.44L318.57 294.51C316.66 296.318 314.953 298.33 313.48 300.51C311.85 302.731 310.799 305.322 310.42 308.05V308.18L310.3 308.23L252.3 330.12L252.44 329.79L268.9 368.08L268.59 367.94C275.37 365.94 282.59 363.88 289.8 361.7C303.92 357.46 317.68 353.2 330.85 348.7C337.43 346.45 343.85 344.2 350.02 341.56C351.55 340.91 353.02 340.2 354.49 339.41C355.206 339.03 355.877 338.57 356.49 338.04C356.763 337.757 357.004 337.445 357.21 337.11C357.41 336.76 357.62 336.42 357.8 336.06C359.161 333.146 360.31 330.138 361.24 327.06C363.16 320.97 364.76 314.95 366.24 309.06C367.72 303.17 369.09 297.48 370.36 291.94C372.89 280.86 375.13 270.51 376.96 261.03C378.5 252.475 379.602 243.847 380.26 235.18C380.817 228.641 380.894 222.07 380.49 215.52C380.07 210.14 379.13 206 377.86 203.45C377.281 202.122 376.41 200.943 375.31 200L376.14 200.72C376.39 200.99 376.67 201.35 377.01 201.77C377.364 202.291 377.681 202.835 377.96 203.4C379.26 205.95 380.24 210.12 380.69 215.5C381.134 222.061 381.087 228.646 380.55 235.2C379.923 243.88 378.844 252.522 377.32 261.09C375.51 270.59 373.32 280.95 370.78 292.09C369.52 297.63 368.17 303.35 366.69 309.23C365.21 315.11 363.6 321.13 361.69 327.23C360.76 330.342 359.607 333.384 358.24 336.33C358.05 336.7 357.83 337.06 357.63 337.42C357.401 337.779 357.136 338.114 356.84 338.42C356.206 338.986 355.508 339.476 354.76 339.88C353.3 340.68 351.76 341.4 350.25 342.06C344.08 344.71 337.63 346.97 331.05 349.23C317.87 353.7 304.11 357.97 289.98 362.23C282.72 364.41 275.54 366.52 268.76 368.46L268.54 368.53L268.45 368.32L252 330L251.9 329.76L252.15 329.67L310.15 307.85L310.01 308.04C310.395 305.242 311.475 302.584 313.15 300.31C314.651 298.131 316.38 296.12 318.31 294.31L318.25 294.48C317.943 291.74 317.637 289.073 317.33 286.48C317.07 283.927 317.07 281.353 317.33 278.8C317.571 276.385 318.05 274 318.76 271.68L320.59 265.13C322.96 256.68 325 249.38 326.67 243.41L330.55 229.66C330.99 228.09 331.34 226.9 331.55 226.08C331.76 225.26 332 224.76 332 224.76Z" fill="#263238"/>
<path d="M321 316.77C319.731 314.76 318.175 312.948 316.38 311.39C314.474 309.965 312.363 308.836 310.12 308.04C310.835 308.06 311.54 308.213 312.2 308.49C315.494 309.624 318.291 311.869 320.11 314.84C320.519 315.425 320.821 316.079 321 316.77Z" fill="#263238"/>
<path d="M339.4 301.23C339.32 301.29 338.57 300.12 336.97 298.6C334.894 296.609 332.373 295.141 329.617 294.319C326.86 293.496 323.948 293.342 321.12 293.87C318.95 294.27 317.68 294.87 317.64 294.75C317.906 294.557 318.199 294.406 318.51 294.3C319.333 293.967 320.183 293.702 321.05 293.51C323.934 292.869 326.934 292.976 329.766 293.819C332.597 294.663 335.167 296.215 337.23 298.33C337.853 298.965 338.419 299.655 338.92 300.39C339.118 300.647 339.279 300.929 339.4 301.23V301.23Z" fill="#263238"/>
<path d="M250.65 371.41C239.47 371.41 223.98 367.54 204.59 359.9C190.24 354.24 178.97 348.5 178.85 348.45L180.67 344.88C181.11 345.11 225.09 367.41 250.67 367.41C260.77 367.41 268.59 362.53 273.9 352.91C276.428 348.23 278.155 343.16 279.01 337.91C279.28 336.31 285.31 300.34 287.38 290.74C288.46 285.74 291.38 277.52 294.14 269.58C296.7 262.31 299.34 254.8 299.87 251.58C300.96 245.05 300.17 230.78 300.17 230.64L304.17 230.41C304.17 231.02 304.99 245.27 303.83 252.23C303.24 255.78 300.66 263.12 297.93 270.88C295.2 278.64 292.33 286.8 291.3 291.56C289.3 301.07 283.04 338.1 282.98 338.48C282.92 338.86 278.44 371.41 250.65 371.41Z" fill="#FF725E"/>
<g opacity="0.4">
<path d="M250.65 371.41C239.47 371.41 223.98 367.54 204.59 359.9C190.24 354.24 178.97 348.5 178.85 348.45L180.67 344.88C181.11 345.11 225.09 367.41 250.67 367.41C260.77 367.41 268.59 362.53 273.9 352.91C276.428 348.23 278.155 343.16 279.01 337.91C279.28 336.31 285.31 300.34 287.38 290.74C288.46 285.74 291.38 277.52 294.14 269.58C296.7 262.31 299.34 254.8 299.87 251.58C300.96 245.05 300.17 230.78 300.17 230.64L304.17 230.41C304.17 231.02 304.99 245.27 303.83 252.23C303.24 255.78 300.66 263.12 297.93 270.88C295.2 278.64 292.33 286.8 291.3 291.56C289.3 301.07 283.04 338.1 282.98 338.48C282.92 338.86 278.44 371.41 250.65 371.41Z" fill="black"/>
</g>
<path d="M299.48 231.89C296.987 231.923 294.58 230.975 292.78 229.25C285.89 222.42 278.55 194.05 278.24 192.85L280.17 192.35C280.25 192.64 287.69 221.35 294.17 227.83C295.046 228.65 296.102 229.254 297.253 229.593C298.405 229.932 299.619 229.996 300.8 229.78C304.06 229.27 306.97 226.97 308.8 223.47C314.12 213.22 328.62 143.23 328.8 142.52L330.8 142.93C330.2 145.82 316.1 213.93 310.65 224.39C308.54 228.46 305.09 231.15 301.2 231.76C300.631 231.852 300.056 231.895 299.48 231.89V231.89Z" fill="#E0E0E0"/>
<path d="M328 148.28C328.14 145.47 327.46 143.19 327 140.42C326.8 139.25 327.17 137.26 328.15 136.58C329.13 135.9 330.63 136.73 331.05 137.88C331.399 139.225 331.464 140.628 331.24 142C330.79 145.32 329.85 146.29 329.31 148.28" fill="#E0E0E0"/>
<path d="M300.47 232.45H299.85C297.65 232.361 295.514 231.683 293.665 230.487C291.817 229.291 290.323 227.62 289.34 225.65C286.81 220.65 283.51 213.91 282.16 210.22L285.91 208.85C286.91 211.58 289.4 216.91 292.91 223.85C293.575 225.188 294.588 226.323 295.843 227.136C297.097 227.949 298.547 228.409 300.04 228.47C301.508 228.556 302.971 228.245 304.277 227.569C305.583 226.893 306.682 225.878 307.46 224.63L307.57 224.45C307.65 224.3 308 223.45 309.23 219.93L309.37 219.53C310.09 217.53 311.6 212.99 313.62 205.53L317.48 206.53C315.43 214.16 313.88 218.8 313.13 220.88L313 221.26C311.48 225.58 311.21 226.18 311 226.51L310.84 226.77C309.737 228.52 308.206 229.96 306.391 230.954C304.577 231.948 302.539 232.463 300.47 232.45V232.45Z" fill="#FF725E"/>
<g opacity="0.4">
<path d="M300.47 232.45H299.85C297.65 232.361 295.514 231.683 293.665 230.487C291.817 229.291 290.323 227.62 289.34 225.65C286.81 220.65 283.51 213.91 282.16 210.22L285.91 208.85C286.91 211.58 289.4 216.91 292.91 223.85C293.575 225.188 294.588 226.323 295.843 227.136C297.097 227.949 298.547 228.409 300.04 228.47C301.508 228.556 302.971 228.245 304.277 227.569C305.583 226.893 306.682 225.878 307.46 224.63L307.57 224.45C307.65 224.3 308 223.45 309.23 219.93L309.37 219.53C310.09 217.53 311.6 212.99 313.62 205.53L317.48 206.53C315.43 214.16 313.88 218.8 313.13 220.88L313 221.26C311.48 225.58 311.21 226.18 311 226.51L310.84 226.77C309.737 228.52 308.206 229.96 306.391 230.954C304.577 231.948 302.539 232.463 300.47 232.45V232.45Z" fill="black"/>
</g>
<path d="M172.56 352.72C177.906 352.72 182.24 348.386 182.24 343.04C182.24 337.694 177.906 333.36 172.56 333.36C167.214 333.36 162.88 337.694 162.88 343.04C162.88 348.386 167.214 352.72 172.56 352.72Z" fill="#E0E0E0"/>
<path d="M173.1 349.11C176.143 349.11 178.61 346.643 178.61 343.6C178.61 340.557 176.143 338.09 173.1 338.09C170.057 338.09 167.59 340.557 167.59 343.6C167.59 346.643 170.057 349.11 173.1 349.11Z" fill="#263238"/>
<path d="M166.46 352.72C166.46 352.72 164.34 347.72 166.46 345.9C168.58 344.08 190.76 338.09 190.76 338.09C190.76 338.09 206.4 333.57 208.07 333.36C209.74 333.15 230.07 334.51 230.07 334.51C230.07 334.51 241.61 331.33 243.28 331.33C244.95 331.33 242.52 341.95 242.22 345.45C241.92 348.95 239.64 351.04 241.76 352.72C243.88 354.4 249.52 359.13 249.52 359.13C249.52 359.13 243.58 360.78 239.52 360.33C237.108 360.074 234.749 359.457 232.52 358.5C232.52 358.5 224.17 364.73 219.61 365.64C215.05 366.55 199.88 371.56 196.84 371.11C193.8 370.66 191.53 366.55 191.53 366.55C191.53 366.55 184.39 367.61 183.02 364.73C182.228 363.081 181.618 361.351 181.2 359.57L184.09 357.74C184.09 357.74 180.29 358.81 178.62 356.07C177.666 354.61 177.044 352.957 176.8 351.23C176.8 351.23 169 353.47 166.46 352.72Z" fill="#455A64"/>
<path d="M280.43 261.39C280.427 261.587 280.397 261.782 280.34 261.97C280.253 262.397 280.133 262.947 279.98 263.62C279.82 264.33 279.62 265.2 279.44 266.22C279.26 267.24 279 268.4 278.84 269.7C278.68 271 278.43 272.4 278.29 273.93C278.15 275.46 278.01 277.09 277.89 278.81C277.504 286.293 278.078 293.794 279.6 301.13C279.98 302.82 280.32 304.42 280.74 305.9C281.16 307.38 281.54 308.75 281.93 310C282.32 311.25 282.72 312.36 283.06 313.34C283.4 314.32 283.71 315.15 283.99 315.83C284.27 316.51 284.44 316.99 284.59 317.4C284.678 317.58 284.739 317.772 284.77 317.97C284.666 317.801 284.575 317.624 284.5 317.44L283.8 315.91C283.5 315.24 283.14 314.42 282.8 313.44C282.46 312.46 281.99 311.37 281.6 310.11C281.21 308.85 280.73 307.5 280.34 306.01C279.95 304.52 279.55 302.92 279.16 301.23C278.383 297.548 277.839 293.821 277.53 290.07C277.264 286.316 277.23 282.548 277.43 278.79C277.56 277.06 277.66 275.41 277.88 273.88C278.1 272.35 278.27 270.93 278.49 269.64C278.71 268.35 278.97 267.18 279.18 266.16C279.39 265.14 279.61 264.28 279.81 263.57L280.26 261.94C280.292 261.75 280.349 261.565 280.43 261.39V261.39Z" fill="#263238"/>
</svg>
